{"glyphs":{"0":{"ha":796,"x_min":63,"x_max":732,"o":"m 397 951 q 647 826 561 951 q 732 467 732 701 q 647 105 732 231 q 397 -21 561 -21 q 148 105 233 -21 q 63 467 63 231 q 148 826 63 701 q 397 951 233 951 m 397 817 q 282 737 318 817 q 246 467 246 657 q 282 194 246 275 q 397 114 318 114 q 513 194 476 114 q 549 467 549 274 q 513 738 549 658 q 397 817 476 817 z "},"1":{"ha":625,"x_min":32,"x_max":493,"o":"m 493 935 l 493 0 l 318 0 l 318 756 l 110 629 l 32 749 l 336 935 l 493 935 z "},"2":{"ha":704,"x_min":21,"x_max":649,"o":"m 324 951 q 487 917 418 951 q 592 822 556 882 q 628 689 628 763 q 594 537 628 610 q 481 375 560 464 q 249 140 401 286 l 649 140 l 629 0 l 47 0 l 47 131 q 302 398 225 311 q 412 547 379 485 q 444 675 444 608 q 408 775 444 739 q 310 811 371 811 q 215 788 256 811 q 129 713 174 765 l 21 799 q 324 951 139 951 z "},"3":{"ha":708,"x_min":7,"x_max":649,"o":"m 322 951 q 483 919 415 951 q 584 833 550 888 q 618 714 618 779 q 569 573 618 629 q 436 494 521 517 q 589 428 529 486 q 649 267 649 369 q 608 121 649 186 q 490 17 567 56 q 310 -21 414 -21 q 7 114 118 -21 l 106 208 q 199 140 153 161 q 300 118 244 118 q 420 160 375 118 q 465 275 465 203 q 423 390 465 356 q 297 425 381 425 l 224 425 l 244 551 l 294 551 q 403 589 363 551 q 444 693 444 626 q 407 783 444 750 q 307 815 369 815 q 208 795 253 815 q 119 733 164 775 l 29 832 q 322 951 156 951 z "},"4":{"ha":764,"x_min":46,"x_max":729,"o":"m 729 350 l 729 214 l 617 214 l 617 0 l 443 0 l 443 214 l 46 214 l 46 336 l 318 953 l 469 896 l 231 350 l 444 350 l 463 585 l 617 585 l 617 350 l 729 350 z "},"5":{"ha":722,"x_min":26,"x_max":669,"o":"m 610 803 l 260 803 l 260 571 q 401 606 329 606 q 540 569 479 606 q 635 465 601 533 q 669 304 669 397 q 626 135 669 208 q 504 20 583 61 q 321 -21 425 -21 q 156 13 228 -21 q 26 111 85 47 l 128 206 q 317 117 208 117 q 441 165 396 117 q 486 304 486 214 q 336 478 486 478 q 276 470 304 478 q 215 446 249 463 l 89 446 l 89 935 l 631 935 l 610 803 z "},"6":{"ha":764,"x_min":63,"x_max":719,"o":"m 456 622 q 590 587 529 622 q 685 483 650 551 q 719 318 719 414 q 679 144 719 221 q 566 23 639 67 q 400 -21 493 -21 q 145 100 228 -21 q 63 432 63 221 q 109 705 63 588 q 242 887 156 822 q 446 951 329 951 q 650 892 561 951 l 583 782 q 449 819 519 819 q 306 740 360 819 q 246 519 253 660 q 456 622 331 622 m 400 111 q 505 166 469 111 q 540 315 540 221 q 508 452 540 411 q 413 493 475 493 q 323 467 365 493 q 247 397 281 442 q 285 178 250 246 q 400 111 321 111 z "},"7":{"ha":635,"x_min":25,"x_max":603,"o":"m 603 935 l 603 810 l 257 -18 l 94 35 l 419 797 l 25 797 l 25 935 l 603 935 z "},"8":{"ha":788,"x_min":51,"x_max":738,"o":"m 546 501 q 738 251 738 415 q 694 113 738 175 q 573 15 651 51 q 390 -21 494 -21 q 211 15 288 -21 q 93 111 135 50 q 51 249 51 172 q 229 485 51 410 q 89 706 89 561 q 130 835 89 779 q 241 922 171 892 q 394 951 311 951 q 549 924 479 951 q 659 842 618 896 q 700 713 700 788 q 546 501 700 581 m 394 826 q 297 794 332 826 q 261 703 261 763 q 294 615 261 647 q 401 556 328 582 l 428 546 q 505 616 482 579 q 528 704 528 653 q 493 794 528 761 q 394 826 458 826 m 394 111 q 514 150 471 111 q 557 251 557 189 q 519 352 557 315 q 386 424 482 389 l 343 439 q 231 254 231 379 q 275 149 231 188 q 394 111 319 111 z "},"9":{"ha":756,"x_min":49,"x_max":701,"o":"m 374 951 q 617 853 532 951 q 701 589 701 756 q 644 277 701 399 q 469 83 588 156 q 157 -35 351 11 l 119 92 q 398 217 303 140 q 511 428 493 294 q 311 331 435 331 q 178 367 239 331 q 83 474 118 404 q 49 635 49 543 q 92 802 49 731 q 209 913 135 874 q 374 951 283 951 m 360 460 q 519 556 454 460 q 487 759 521 699 q 374 819 453 819 q 265 772 304 819 q 226 638 226 725 q 263 503 226 546 q 360 460 300 460 z "},"\r":{"ha":347,"x_min":0,"x_max":0,"o":""}," ":{"ha":347,"x_min":0,"x_max":0,"o":""},"A":{"ha":810,"x_min":-7,"x_max":815,"o":"m 621 0 l 561 222 l 243 222 l 183 0 l -7 0 l 292 960 l 518 960 l 815 0 l 621 0 m 279 361 l 524 361 l 401 819 l 279 361 z "},"Á":{"ha":810,"x_min":-7,"x_max":815,"o":"m 621 0 l 561 222 l 243 222 l 183 0 l -7 0 l 292 960 l 518 960 l 815 0 l 621 0 m 279 361 l 524 361 l 401 819 l 279 361 m 518 1300 l 588 1161 l 269 1046 l 224 1138 l 518 1300 z "},"Ă":{"ha":810,"x_min":-7,"x_max":815,"o":"m 621 0 l 561 222 l 243 222 l 183 0 l -7 0 l 292 960 l 518 960 l 815 0 l 621 0 m 279 361 l 524 361 l 401 819 l 279 361 m 404 1047 q 249 1104 310 1047 q 179 1247 188 1161 l 283 1268 q 328 1200 297 1225 q 404 1175 358 1175 q 482 1200 450 1175 q 526 1268 514 1225 l 632 1247 q 562 1104 624 1161 q 404 1047 500 1047 z "},"Ắ":{"ha":810,"x_min":-7,"x_max":815,"o":"m 621 0 l 561 222 l 243 222 l 183 0 l -7 0 l 292 960 l 518 960 l 815 0 l 621 0 m 279 361 l 524 361 l 401 819 l 279 361 m 404 1025 q 249 1082 310 1025 q 179 1225 188 1139 l 283 1246 q 328 1178 297 1203 q 404 1153 358 1153 q 482 1178 450 1153 q 526 1246 514 1203 l 632 1225 q 562 1082 624 1139 q 404 1025 500 1025 m 513 1515 l 614 1418 l 408 1232 l 339 1294 l 513 1515 z "},"Ặ":{"ha":810,"x_min":-7,"x_max":815,"o":"m 621 0 l 561 222 l 243 222 l 183 0 l -7 0 l 292 960 l 518 960 l 815 0 l 621 0 m 279 361 l 524 361 l 401 819 l 279 361 m 404 1047 q 249 1104 310 1047 q 179 1247 188 1161 l 283 1268 q 328 1200 297 1225 q 404 1175 358 1175 q 482 1200 450 1175 q 526 1268 514 1225 l 632 1247 q 562 1104 624 1161 q 404 1047 500 1047 m 406 -307 q 324 -276 356 -307 q 293 -199 293 -244 q 324 -122 293 -153 q 406 -92 356 -92 q 485 -122 454 -92 q 517 -199 517 -153 q 485 -276 517 -244 q 406 -307 454 -307 z "},"Ằ":{"ha":810,"x_min":-7,"x_max":815,"o":"m 621 0 l 561 222 l 243 222 l 183 0 l -7 0 l 292 960 l 518 960 l 815 0 l 621 0 m 279 361 l 524 361 l 401 819 l 279 361 m 404 1025 q 249 1082 310 1025 q 179 1225 188 1139 l 283 1246 q 328 1178 297 1203 q 404 1153 358 1153 q 482 1178 450 1153 q 526 1246 514 1203 l 632 1225 q 562 1082 624 1139 q 404 1025 500 1025 m 300 1515 l 475 1294 l 406 1232 l 200 1418 l 300 1515 z "},"Ẳ":{"ha":810,"x_min":-7,"x_max":815,"o":"m 621 0 l 561 222 l 243 222 l 183 0 l -7 0 l 292 960 l 518 960 l 815 0 l 621 0 m 279 361 l 524 361 l 401 819 l 279 361 m 404 1025 q 249 1082 310 1025 q 179 1225 188 1139 l 283 1246 q 328 1178 297 1203 q 404 1153 358 1153 q 482 1178 450 1153 q 526 1246 514 1203 l 632 1225 q 562 1082 624 1139 q 404 1025 500 1025 m 347 1342 q 423 1359 400 1347 q 446 1399 446 1371 q 430 1433 446 1421 q 388 1444 414 1444 q 306 1426 349 1444 l 272 1508 q 414 1543 332 1543 q 534 1506 492 1543 q 576 1407 576 1469 q 547 1324 576 1356 q 461 1283 517 1293 l 461 1221 l 347 1221 l 347 1342 z "},"Ẵ":{"ha":810,"x_min":-7,"x_max":815,"o":"m 621 0 l 561 222 l 243 222 l 183 0 l -7 0 l 292 960 l 518 960 l 815 0 l 621 0 m 279 361 l 524 361 l 401 819 l 279 361 m 404 1025 q 249 1082 310 1025 q 179 1225 188 1139 l 283 1246 q 328 1178 297 1203 q 404 1153 358 1153 q 482 1178 450 1153 q 526 1246 514 1203 l 632 1225 q 562 1082 624 1139 q 404 1025 500 1025 m 489 1282 q 440 1292 461 1282 q 389 1319 418 1301 q 356 1340 368 1333 q 329 1346 343 1346 q 290 1331 306 1346 q 256 1285 274 1317 l 160 1331 q 229 1431 188 1393 q 326 1469 271 1469 q 379 1460 357 1469 q 429 1433 401 1451 q 488 1408 464 1408 q 525 1422 508 1408 q 561 1465 542 1435 l 656 1421 q 585 1319 628 1357 q 489 1282 542 1282 z "},"Ǎ":{"ha":810,"x_min":-7,"x_max":815,"o":"m 621 0 l 561 222 l 243 222 l 183 0 l -7 0 l 292 960 l 518 960 l 815 0 l 621 0 m 279 361 l 524 361 l 401 819 l 279 361 m 586 1289 l 654 1211 l 461 1044 l 350 1044 l 157 1211 l 225 1289 l 406 1174 l 586 1289 z "},"Â":{"ha":810,"x_min":-7,"x_max":815,"o":"m 621 0 l 561 222 l 243 222 l 183 0 l -7 0 l 292 960 l 518 960 l 815 0 l 621 0 m 279 361 l 524 361 l 401 819 l 279 361 m 224 1051 l 156 1128 l 349 1296 l 460 1296 l 653 1128 l 585 1051 l 404 1165 l 224 1051 z "},"Ấ":{"ha":810,"x_min":-7,"x_max":815,"o":"m 621 0 l 561 222 l 243 222 l 183 0 l -7 0 l 292 960 l 518 960 l 815 0 l 621 0 m 279 361 l 524 361 l 401 819 l 279 361 m 224 999 l 156 1075 l 349 1243 l 460 1243 l 653 1075 l 585 999 l 404 1113 l 224 999 m 714 1472 l 815 1375 l 610 1189 l 540 1251 l 714 1472 z "},"Ậ":{"ha":810,"x_min":-7,"x_max":815,"o":"m 621 0 l 561 222 l 243 222 l 183 0 l -7 0 l 292 960 l 518 960 l 815 0 l 621 0 m 279 361 l 524 361 l 401 819 l 279 361 m 224 1051 l 156 1128 l 349 1296 l 460 1296 l 653 1128 l 585 1051 l 404 1165 l 224 1051 m 406 -307 q 324 -276 356 -307 q 293 -199 293 -244 q 324 -122 293 -153 q 406 -92 356 -92 q 485 -122 454 -92 q 517 -199 517 -153 q 485 -276 517 -244 q 406 -307 454 -307 z "},"Ầ":{"ha":810,"x_min":-7,"x_max":815,"o":"m 621 0 l 561 222 l 243 222 l 183 0 l -7 0 l 292 960 l 518 960 l 815 0 l 621 0 m 279 361 l 524 361 l 401 819 l 279 361 m 222 999 l 154 1075 l 347 1243 l 458 1243 l 651 1075 l 583 999 l 403 1113 l 222 999 m 93 1472 l 268 1251 l 199 1189 l -7 1375 l 93 1472 z "},"Ẩ":{"ha":810,"x_min":-7,"x_max":815,"o":"m 621 0 l 561 222 l 243 222 l 183 0 l -7 0 l 292 960 l 518 960 l 815 0 l 621 0 m 279 361 l 524 361 l 401 819 l 279 361 m 222 999 l 154 1075 l 347 1243 l 458 1243 l 651 1075 l 583 999 l 403 1113 l 222 999 m 571 1285 q 647 1302 624 1290 q 669 1342 669 1314 q 653 1376 669 1364 q 611 1388 638 1388 q 529 1369 572 1388 l 496 1451 q 638 1486 556 1486 q 758 1449 715 1486 q 800 1350 800 1413 q 770 1267 800 1299 q 685 1226 740 1236 l 685 1164 l 571 1164 l 571 1285 z "},"Ẫ":{"ha":810,"x_min":-7,"x_max":815,"o":"m 621 0 l 561 222 l 243 222 l 183 0 l -7 0 l 292 960 l 518 960 l 815 0 l 621 0 m 279 361 l 524 361 l 401 819 l 279 361 m 221 999 l 153 1075 l 346 1243 l 457 1243 l 650 1075 l 582 999 l 401 1113 l 221 999 m 483 1281 q 434 1290 456 1281 q 383 1318 413 1300 q 350 1338 363 1332 q 324 1344 338 1344 q 284 1330 300 1344 q 250 1283 268 1315 l 154 1329 q 224 1430 182 1392 q 321 1468 265 1468 q 374 1459 351 1468 q 424 1432 396 1450 q 482 1407 458 1407 q 519 1420 503 1407 q 556 1464 536 1433 l 650 1419 q 579 1318 622 1356 q 483 1281 536 1281 z "},"Ȁ":{"ha":810,"x_min":-7,"x_max":815,"o":"m 621 0 l 561 222 l 243 222 l 183 0 l -7 0 l 292 960 l 518 960 l 815 0 l 621 0 m 279 361 l 524 361 l 401 819 l 279 361 m 229 1351 l 357 1093 l 258 1049 l 100 1285 l 229 1351 m 458 1351 l 574 1097 l 474 1056 l 328 1288 l 458 1351 z "},"Ä":{"ha":810,"x_min":-7,"x_max":815,"o":"m 621 0 l 561 222 l 243 222 l 183 0 l -7 0 l 292 960 l 518 960 l 815 0 l 621 0 m 279 361 l 524 361 l 401 819 l 279 361 m 251 1265 q 319 1238 292 1265 q 347 1169 347 1210 q 319 1101 347 1129 q 251 1074 292 1074 q 181 1101 210 1074 q 153 1169 153 1129 q 181 1238 153 1210 q 251 1265 210 1265 m 558 1265 q 628 1238 600 1265 q 656 1169 656 1210 q 628 1101 656 1129 q 558 1074 600 1074 q 490 1101 518 1074 q 461 1169 461 1129 q 490 1238 461 1210 q 558 1265 518 1265 z "},"Ǟ":{"ha":810,"x_min":-7,"x_max":815,"o":"m 621 0 l 561 222 l 243 222 l 183 0 l -7 0 l 292 960 l 518 960 l 815 0 l 621 0 m 279 361 l 524 361 l 401 819 l 279 361 m 251 1228 q 319 1200 292 1228 q 347 1132 347 1172 q 319 1064 347 1092 q 251 1036 292 1036 q 181 1064 210 1036 q 153 1132 153 1092 q 181 1200 153 1172 q 251 1228 210 1228 m 558 1228 q 628 1200 600 1228 q 656 1132 656 1172 q 628 1064 656 1092 q 558 1036 600 1036 q 490 1064 518 1036 q 461 1132 461 1092 q 490 1200 461 1172 q 558 1228 518 1228 m 611 1283 l 207 1283 l 207 1410 l 611 1410 l 611 1283 z "},"Ȧ":{"ha":810,"x_min":-7,"x_max":815,"o":"m 621 0 l 561 222 l 243 222 l 183 0 l -7 0 l 292 960 l 518 960 l 815 0 l 621 0 m 279 361 l 524 361 l 401 819 l 279 361 m 404 1282 q 485 1251 454 1282 q 517 1174 517 1219 q 485 1097 517 1128 q 404 1067 454 1067 q 324 1097 356 1067 q 293 1174 293 1128 q 324 1251 293 1219 q 404 1282 356 1282 z "},"Ạ":{"ha":810,"x_min":-7,"x_max":815,"o":"m 621 0 l 561 222 l 243 222 l 183 0 l -7 0 l 292 960 l 518 960 l 815 0 l 621 0 m 279 361 l 524 361 l 401 819 l 279 361 m 406 -307 q 324 -276 356 -307 q 293 -199 293 -244 q 324 -122 293 -153 q 406 -92 356 -92 q 485 -122 454 -92 q 517 -199 517 -153 q 485 -276 517 -244 q 406 -307 454 -307 z "},"Ǡ":{"ha":810,"x_min":-7,"x_max":815,"o":"m 621 0 l 561 222 l 243 222 l 183 0 l -7 0 l 292 960 l 518 960 l 815 0 l 621 0 m 279 361 l 524 361 l 401 819 l 279 361 m 406 1240 q 487 1209 456 1240 q 518 1132 518 1178 q 487 1056 518 1086 q 406 1025 456 1025 q 326 1056 357 1025 q 294 1132 294 1086 q 326 1209 294 1178 q 406 1240 357 1240 m 611 1283 l 207 1283 l 207 1410 l 611 1410 l 611 1283 z "},"À":{"ha":810,"x_min":-7,"x_max":815,"o":"m 621 0 l 561 222 l 243 222 l 183 0 l -7 0 l 292 960 l 518 960 l 815 0 l 621 0 m 279 361 l 524 361 l 401 819 l 279 361 m 285 1300 l 579 1138 l 533 1046 l 215 1161 l 285 1300 z "},"Ả":{"ha":810,"x_min":-7,"x_max":815,"o":"m 621 0 l 561 222 l 243 222 l 183 0 l -7 0 l 292 960 l 518 960 l 815 0 l 621 0 m 279 361 l 524 361 l 401 819 l 279 361 m 349 1181 q 424 1198 401 1186 q 447 1238 447 1210 q 431 1272 447 1260 q 389 1283 415 1283 q 307 1265 350 1283 l 274 1347 q 415 1382 333 1382 q 535 1345 493 1382 q 578 1246 578 1308 q 548 1163 578 1194 q 463 1122 518 1132 l 463 1060 l 349 1060 l 349 1181 z "},"Ȃ":{"ha":810,"x_min":-7,"x_max":815,"o":"m 621 0 l 561 222 l 243 222 l 183 0 l -7 0 l 292 960 l 518 960 l 815 0 l 621 0 m 279 361 l 524 361 l 401 819 l 279 361 m 404 1303 q 562 1243 500 1303 q 632 1088 624 1183 l 526 1068 q 483 1147 514 1119 q 404 1175 451 1175 q 283 1068 311 1175 l 179 1088 q 248 1243 188 1183 q 404 1303 308 1303 z "},"Ɑ":{"ha":957,"x_min":60,"x_max":899,"o":"m 836 225 q 849 152 836 175 q 899 113 863 129 l 842 -21 q 735 19 775 -7 q 675 89 696 44 q 436 -21 582 -21 q 242 35 328 -21 q 108 199 157 90 q 60 461 60 308 q 109 740 60 622 q 244 919 158 857 q 442 981 331 981 q 664 883 574 981 l 678 960 l 836 960 l 836 225 m 467 118 q 569 140 524 118 q 653 206 614 163 l 653 757 q 474 840 579 840 q 253 461 253 840 q 467 118 253 118 z "},"Ā":{"ha":810,"x_min":-7,"x_max":815,"o":"m 621 0 l 561 222 l 243 222 l 183 0 l -7 0 l 292 960 l 518 960 l 815 0 l 621 0 m 279 361 l 524 361 l 401 819 l 279 361 m 607 1093 l 203 1093 l 203 1219 l 607 1219 l 607 1093 z "},"Ą":{"ha":810,"x_min":-7,"x_max":815,"o":"m 726 0 q 594 -75 631 -39 q 558 -150 558 -111 q 635 -214 558 -214 q 719 -204 672 -214 l 706 -322 q 613 -332 654 -332 q 475 -290 528 -332 q 422 -181 422 -249 q 470 -58 422 -110 q 613 31 518 -7 l 561 222 l 243 222 l 183 0 l -7 0 l 292 960 l 518 960 l 815 0 l 726 0 m 279 361 l 524 361 l 401 819 l 279 361 z "},"Å":{"ha":810,"x_min":-7,"x_max":815,"o":"m 621 0 l 561 222 l 243 222 l 183 0 l -7 0 l 292 960 l 518 960 l 815 0 l 621 0 m 279 361 l 524 361 l 401 819 l 279 361 m 406 1360 q 533 1312 485 1360 q 582 1193 582 1264 q 533 1075 582 1124 q 406 1026 483 1026 q 277 1075 326 1026 q 228 1193 228 1124 q 277 1312 228 1264 q 406 1360 326 1360 m 406 1267 q 356 1247 374 1267 q 338 1193 338 1228 q 356 1140 338 1158 q 406 1121 374 1121 q 454 1140 436 1121 q 472 1193 472 1158 q 454 1247 472 1228 q 406 1267 436 1267 z "},"Ǻ":{"ha":810,"x_min":-7,"x_max":815,"o":"m 621 0 l 561 222 l 243 222 l 183 0 l -7 0 l 292 960 l 518 960 l 815 0 l 621 0 m 279 361 l 524 361 l 401 819 l 279 361 m 406 1339 q 533 1291 485 1339 q 582 1172 582 1243 q 533 1054 582 1103 q 406 1006 483 1006 q 277 1054 326 1006 q 228 1172 228 1103 q 277 1291 228 1243 q 406 1339 326 1339 m 406 1246 q 356 1226 374 1246 q 338 1172 338 1207 q 356 1119 338 1138 q 406 1100 374 1100 q 454 1119 436 1100 q 472 1172 472 1138 q 454 1226 472 1207 q 406 1246 436 1246 m 519 1600 l 589 1461 l 271 1346 l 225 1438 l 519 1600 z "},"Ⱥ":{"ha":810,"x_min":-7,"x_max":815,"o":"m 633 0 l 572 222 l 397 222 l 311 -100 l 239 -83 l 319 222 l 232 222 l 171 0 l -7 0 l 292 960 l 517 960 l 539 1046 l 611 1029 l 558 831 l 815 0 l 633 0 m 268 353 l 354 353 l 443 686 l 401 839 l 268 353 m 432 353 l 536 353 l 482 546 l 432 353 z "},"Ã":{"ha":810,"x_min":-7,"x_max":815,"o":"m 621 0 l 561 222 l 243 222 l 183 0 l -7 0 l 292 960 l 518 960 l 815 0 l 621 0 m 279 361 l 524 361 l 401 819 l 279 361 m 486 1069 q 435 1080 457 1069 q 386 1108 414 1090 q 353 1128 365 1122 q 326 1135 340 1135 q 287 1120 303 1135 q 253 1072 271 1106 l 157 1119 q 226 1224 185 1185 q 324 1264 268 1264 q 376 1254 354 1264 q 426 1226 397 1244 q 458 1206 444 1213 q 485 1200 471 1200 q 522 1214 506 1200 q 558 1260 539 1228 l 653 1213 q 582 1108 625 1146 q 486 1069 539 1069 z "},"Æ":{"ha":1156,"x_min":-25,"x_max":1097,"o":"m 778 138 l 1097 138 l 1097 0 l 626 0 l 582 222 l 249 222 l 169 0 l -25 0 l 354 960 l 1043 960 l 1022 824 l 622 824 l 683 554 l 1031 554 l 1031 418 l 714 418 l 778 138 m 297 361 l 554 361 l 461 821 l 297 361 z "},"Ǽ":{"ha":1156,"x_min":-25,"x_max":1097,"o":"m 778 138 l 1097 138 l 1097 0 l 626 0 l 582 222 l 249 222 l 169 0 l -25 0 l 354 960 l 1043 960 l 1022 824 l 622 824 l 683 554 l 1031 554 l 1031 418 l 714 418 l 778 138 m 297 361 l 554 361 l 461 821 l 297 361 m 778 1300 l 847 1161 l 529 1046 l 483 1138 l 778 1300 z "},"Ǣ":{"ha":1156,"x_min":-25,"x_max":1097,"o":"m 778 138 l 1097 138 l 1097 0 l 626 0 l 582 222 l 249 222 l 169 0 l -25 0 l 354 960 l 1043 960 l 1022 824 l 622 824 l 683 554 l 1031 554 l 1031 418 l 714 418 l 778 138 m 297 361 l 554 361 l 461 821 l 297 361 m 867 1093 l 463 1093 l 463 1219 l 867 1219 l 867 1093 z "},"B":{"ha":851,"x_min":113,"x_max":803,"o":"m 583 508 q 742 438 682 490 q 803 276 803 385 q 697 63 803 126 q 401 0 592 0 l 113 0 l 113 960 l 364 960 q 761 715 761 960 q 710 577 761 631 q 583 508 658 524 m 296 825 l 296 565 l 408 565 q 529 599 485 565 q 574 700 574 633 q 527 797 574 769 q 382 825 481 825 l 296 825 m 403 138 q 558 168 504 138 q 611 283 611 199 q 560 401 611 365 q 422 438 510 438 l 296 438 l 296 138 l 403 138 z "},"Ḃ":{"ha":851,"x_min":113,"x_max":803,"o":"m 583 508 q 742 438 682 490 q 803 276 803 385 q 697 63 803 126 q 401 0 592 0 l 113 0 l 113 960 l 364 960 q 761 715 761 960 q 710 577 761 631 q 583 508 658 524 m 296 825 l 296 565 l 408 565 q 529 599 485 565 q 574 700 574 633 q 527 797 574 769 q 382 825 481 825 l 296 825 m 403 138 q 558 168 504 138 q 611 283 611 199 q 560 401 611 365 q 422 438 510 438 l 296 438 l 296 138 l 403 138 m 413 1282 q 494 1251 463 1282 q 525 1174 525 1219 q 494 1097 525 1128 q 413 1067 463 1067 q 333 1097 364 1067 q 301 1174 301 1128 q 333 1251 301 1219 q 413 1282 364 1282 z "},"Ḅ":{"ha":851,"x_min":113,"x_max":803,"o":"m 583 508 q 742 438 682 490 q 803 276 803 385 q 697 63 803 126 q 401 0 592 0 l 113 0 l 113 960 l 364 960 q 761 715 761 960 q 710 577 761 631 q 583 508 658 524 m 296 825 l 296 565 l 408 565 q 529 599 485 565 q 574 700 574 633 q 527 797 574 769 q 382 825 481 825 l 296 825 m 403 138 q 558 168 504 138 q 611 283 611 199 q 560 401 611 365 q 422 438 510 438 l 296 438 l 296 138 l 403 138 m 431 -307 q 349 -276 381 -307 q 318 -199 318 -244 q 349 -122 318 -153 q 431 -92 381 -92 q 510 -122 479 -92 q 542 -199 542 -153 q 510 -276 542 -244 q 431 -307 479 -307 z "},"Ꞵ":{"ha":851,"x_min":113,"x_max":803,"o":"m 583 508 q 742 439 682 490 q 803 283 803 388 q 704 69 803 139 q 453 0 606 0 q 296 18 375 0 l 296 -286 l 113 -286 l 113 960 l 364 960 q 761 715 761 960 q 710 577 761 631 q 583 508 658 524 m 436 138 q 563 174 515 138 q 611 290 611 210 q 563 402 611 367 q 432 438 514 438 l 376 438 l 390 565 l 418 565 q 531 599 488 565 q 574 697 574 633 q 527 797 574 769 q 382 825 481 825 l 296 825 l 296 150 q 436 138 376 138 z "},"Ɓ":{"ha":1011,"x_min":10,"x_max":963,"o":"m 743 508 q 902 438 842 490 q 963 276 963 386 q 857 63 963 126 q 561 0 751 0 l 272 0 l 272 824 l 231 824 q 161 761 161 824 q 167 717 161 738 q 185 665 172 696 l 68 611 q 25 690 40 653 q 10 769 10 726 q 71 908 10 857 q 240 960 132 960 l 524 960 q 921 715 921 960 q 869 577 921 631 q 743 508 818 524 m 456 825 l 456 565 l 568 565 q 689 599 644 565 q 733 700 733 633 q 687 797 733 769 q 542 825 640 825 l 456 825 m 563 138 q 717 168 664 138 q 771 283 771 199 q 720 401 771 365 q 582 438 669 438 l 456 438 l 456 138 l 563 138 z "},"Ƀ":{"ha":869,"x_min":24,"x_max":821,"o":"m 601 508 q 760 438 700 490 q 821 276 821 386 q 715 63 821 126 q 419 0 610 0 l 131 0 l 131 239 l 24 239 l 24 344 l 131 344 l 131 960 l 382 960 q 779 715 779 960 q 728 577 779 631 q 601 508 676 524 m 314 825 l 314 565 l 426 565 q 547 599 503 565 q 592 700 592 633 q 545 797 592 769 q 400 825 499 825 l 314 825 m 421 138 q 576 168 522 138 q 629 283 629 199 q 578 401 629 365 q 440 438 528 438 l 314 438 l 314 344 l 501 344 l 501 239 l 314 239 l 314 138 l 421 138 z "},"Ƃ":{"ha":817,"x_min":113,"x_max":785,"o":"m 410 610 q 687 535 589 610 q 785 313 785 460 q 683 77 785 154 q 410 0 582 0 l 113 0 l 113 960 l 676 960 l 657 817 l 296 817 l 296 610 l 410 610 m 404 138 q 543 177 494 138 q 592 310 592 217 q 544 436 592 396 q 400 476 496 476 l 296 476 l 296 138 l 404 138 z "},"C":{"ha":789,"x_min":60,"x_max":771,"o":"m 479 981 q 632 956 567 981 q 760 879 697 931 l 667 771 q 489 839 582 839 q 317 753 382 839 q 253 482 253 667 q 317 214 253 301 q 489 126 381 126 q 590 147 546 126 q 685 204 635 167 l 771 96 q 648 13 722 46 q 482 -21 574 -21 q 261 38 357 -21 q 113 209 165 96 q 60 482 60 322 q 115 751 60 639 q 265 922 169 864 q 479 981 360 981 z "},"Ć":{"ha":789,"x_min":60,"x_max":771,"o":"m 479 981 q 632 956 567 981 q 760 879 697 931 l 667 771 q 489 839 582 839 q 317 753 382 839 q 253 482 253 667 q 317 214 253 301 q 489 126 381 126 q 590 147 546 126 q 685 204 635 167 l 771 96 q 648 13 722 46 q 482 -21 574 -21 q 261 38 357 -21 q 113 209 165 96 q 60 482 60 322 q 115 751 60 639 q 265 922 169 864 q 479 981 360 981 m 600 1300 l 669 1161 l 351 1046 l 306 1138 l 600 1300 z "},"Č":{"ha":789,"x_min":60,"x_max":771,"o":"m 479 981 q 632 956 567 981 q 760 879 697 931 l 667 771 q 489 839 582 839 q 317 753 382 839 q 253 482 253 667 q 317 214 253 301 q 489 126 381 126 q 590 147 546 126 q 685 204 635 167 l 771 96 q 648 13 722 46 q 482 -21 574 -21 q 261 38 357 -21 q 113 209 165 96 q 60 482 60 322 q 115 751 60 639 q 265 922 169 864 q 479 981 360 981 m 668 1289 l 736 1211 l 543 1044 l 432 1044 l 239 1211 l 307 1289 l 488 1174 l 668 1289 z "},"Ç":{"ha":789,"x_min":60,"x_max":771,"o":"m 771 96 q 666 22 728 53 q 528 -18 604 -10 l 528 -72 q 631 -113 597 -79 q 665 -200 665 -147 q 613 -310 665 -269 q 475 -351 560 -351 q 394 -341 432 -351 q 332 -312 357 -331 l 375 -225 q 463 -247 417 -247 q 531 -200 531 -247 q 501 -160 531 -172 q 404 -147 471 -147 l 421 -17 q 158 133 256 4 q 60 482 60 263 q 115 751 60 639 q 265 922 169 864 q 479 981 360 981 q 632 956 567 981 q 760 879 697 931 l 667 771 q 489 839 582 839 q 317 753 382 839 q 253 482 253 667 q 317 214 253 301 q 489 126 381 126 q 590 147 546 126 q 685 204 635 167 l 771 96 z "},"Ĉ":{"ha":789,"x_min":60,"x_max":771,"o":"m 479 981 q 632 956 567 981 q 760 879 697 931 l 667 771 q 489 839 582 839 q 317 753 382 839 q 253 482 253 667 q 317 214 253 301 q 489 126 381 126 q 590 147 546 126 q 685 204 635 167 l 771 96 q 648 13 722 46 q 482 -21 574 -21 q 261 38 357 -21 q 113 209 165 96 q 60 482 60 322 q 115 751 60 639 q 265 922 169 864 q 479 981 360 981 m 306 1051 l 238 1128 l 431 1296 l 542 1296 l 735 1128 l 667 1051 l 486 1165 l 306 1051 z "},"Ċ":{"ha":789,"x_min":60,"x_max":771,"o":"m 479 981 q 632 956 567 981 q 760 879 697 931 l 667 771 q 489 839 582 839 q 317 753 382 839 q 253 482 253 667 q 317 214 253 301 q 489 126 381 126 q 590 147 546 126 q 685 204 635 167 l 771 96 q 648 13 722 46 q 482 -21 574 -21 q 261 38 357 -21 q 113 209 165 96 q 60 482 60 322 q 115 751 60 639 q 265 922 169 864 q 479 981 360 981 m 486 1282 q 567 1251 536 1282 q 599 1174 599 1219 q 567 1097 599 1128 q 486 1067 536 1067 q 406 1097 438 1067 q 375 1174 375 1128 q 406 1251 375 1219 q 486 1282 438 1282 z "},"Ꭓ":{"ha":769,"x_min":0,"x_max":769,"o":"m 492 421 l 769 -204 l 565 -204 l 381 294 l 196 -204 l 0 -204 l 271 413 l 22 960 l 226 960 l 383 531 l 546 960 l 742 960 l 492 421 z "},"Ƈ":{"ha":789,"x_min":60,"x_max":994,"o":"m 819 1171 q 994 1118 917 1171 l 938 1006 q 889 1028 911 1021 q 839 1035 867 1035 q 760 942 760 1035 l 760 879 l 678 783 q 488 839 585 839 q 317 753 381 839 q 253 482 253 667 q 317 213 253 300 q 490 126 381 126 q 589 147 546 126 q 685 207 632 168 l 771 96 q 648 13 722 46 q 482 -21 574 -21 q 261 38 357 -21 q 113 209 165 96 q 60 482 60 322 q 115 751 60 638 q 262 922 169 864 q 465 981 354 981 q 596 957 540 981 q 657 1115 600 1060 q 819 1171 714 1171 z "},"Ȼ":{"ha":789,"x_min":60,"x_max":771,"o":"m 771 96 q 648 13 722 46 q 482 -21 574 -21 q 376 -10 429 -21 l 353 -100 l 281 -83 l 307 14 q 125 185 190 65 q 60 482 60 304 q 115 751 60 639 q 265 922 169 864 q 479 981 360 981 q 561 974 519 981 l 581 1046 l 651 1029 l 632 956 q 760 879 696 932 l 667 771 q 594 815 635 797 l 415 138 q 489 126 453 126 q 590 147 546 126 q 685 204 635 167 l 771 96 m 253 482 q 350 176 253 263 l 525 836 q 489 839 500 839 q 317 753 382 839 q 253 482 253 667 z "},"D":{"ha":900,"x_min":113,"x_max":840,"o":"m 349 960 q 706 858 572 960 q 840 485 840 757 q 708 109 840 218 q 374 0 576 0 l 113 0 l 113 960 l 349 960 m 296 822 l 296 138 l 386 138 q 578 213 508 138 q 647 485 647 289 q 612 695 647 621 q 519 796 576 769 q 381 822 461 822 l 296 822 z "},"Ǳ":{"ha":1607,"x_min":113,"x_max":1558,"o":"m 349 960 q 706 858 572 960 q 840 485 840 757 q 708 109 840 218 q 374 0 576 0 l 113 0 l 113 960 l 349 960 m 296 822 l 296 138 l 386 138 q 578 213 508 138 q 647 485 647 289 q 612 695 647 621 q 519 796 576 769 q 381 822 461 822 l 296 822 m 1554 960 l 1554 818 l 1111 150 l 1558 150 l 1539 0 l 897 0 l 897 140 l 1349 814 l 943 814 l 943 960 l 1554 960 z "},"Ǆ":{"ha":1607,"x_min":113,"x_max":1558,"o":"m 349 960 q 706 858 572 960 q 840 485 840 757 q 708 109 840 218 q 374 0 576 0 l 113 0 l 113 960 l 349 960 m 296 822 l 296 138 l 386 138 q 578 213 508 138 q 647 485 647 289 q 612 695 647 621 q 519 796 576 769 q 381 822 461 822 l 296 822 m 1554 960 l 1554 818 l 1111 150 l 1558 150 l 1539 0 l 897 0 l 897 140 l 1349 814 l 943 814 l 943 960 l 1554 960 m 1426 1289 l 1494 1211 l 1301 1044 l 1190 1044 l 997 1211 l 1065 1289 l 1246 1174 l 1426 1289 z "},"Ɖ":{"ha":918,"x_min":24,"x_max":858,"o":"m 367 960 q 724 858 590 960 q 858 485 858 757 q 726 109 858 218 q 392 0 594 0 l 131 0 l 131 431 l 24 431 l 24 550 l 131 550 l 131 960 l 367 960 m 404 138 q 596 213 526 138 q 665 485 665 289 q 630 695 665 621 q 537 796 594 769 q 399 822 479 822 l 314 822 l 314 550 l 515 550 l 515 431 l 314 431 l 314 138 l 404 138 z "},"Ð":{"ha":918,"x_min":24,"x_max":858,"o":"m 367 960 q 724 858 590 960 q 858 485 858 757 q 726 109 858 218 q 392 0 594 0 l 131 0 l 131 431 l 24 431 l 24 550 l 131 550 l 131 960 l 367 960 m 404 138 q 596 213 526 138 q 665 485 665 289 q 630 695 665 621 q 537 796 594 769 q 399 822 479 822 l 314 822 l 314 550 l 515 550 l 515 431 l 314 431 l 314 138 l 404 138 z "},"Ď":{"ha":900,"x_min":113,"x_max":840,"o":"m 349 960 q 706 858 572 960 q 840 485 840 757 q 708 109 840 218 q 374 0 576 0 l 113 0 l 113 960 l 349 960 m 296 822 l 296 138 l 386 138 q 578 213 508 138 q 647 485 647 289 q 612 695 647 621 q 519 796 576 769 q 381 822 461 822 l 296 822 m 596 1289 l 664 1211 l 471 1044 l 360 1044 l 167 1211 l 235 1289 l 415 1174 l 596 1289 z "},"Ḓ":{"ha":900,"x_min":113,"x_max":840,"o":"m 349 960 q 706 858 572 960 q 840 485 840 757 q 708 109 840 218 q 374 0 576 0 l 113 0 l 113 960 l 349 960 m 296 822 l 296 138 l 386 138 q 578 213 508 138 q 647 485 647 289 q 612 695 647 621 q 519 796 576 769 q 381 822 461 822 l 296 822 m 240 -343 l 172 -265 l 364 -90 l 476 -90 l 669 -265 l 601 -343 l 421 -221 l 240 -343 z "},"Đ":{"ha":918,"x_min":24,"x_max":858,"o":"m 367 960 q 724 858 590 960 q 858 485 858 757 q 726 109 858 218 q 392 0 594 0 l 131 0 l 131 431 l 24 431 l 24 550 l 131 550 l 131 960 l 367 960 m 404 138 q 596 213 526 138 q 665 485 665 289 q 630 695 665 621 q 537 796 594 769 q 399 822 479 822 l 314 822 l 314 550 l 515 550 l 515 431 l 314 431 l 314 138 l 404 138 z "},"Ḋ":{"ha":900,"x_min":113,"x_max":840,"o":"m 349 960 q 706 858 572 960 q 840 485 840 757 q 708 109 840 218 q 374 0 576 0 l 113 0 l 113 960 l 349 960 m 296 822 l 296 138 l 386 138 q 578 213 508 138 q 647 485 647 289 q 612 695 647 621 q 519 796 576 769 q 381 822 461 822 l 296 822 m 414 1282 q 495 1251 464 1282 q 526 1174 526 1219 q 495 1097 526 1128 q 414 1067 464 1067 q 334 1097 365 1067 q 303 1174 303 1128 q 334 1251 303 1219 q 414 1282 365 1282 z "},"Ḍ":{"ha":900,"x_min":113,"x_max":840,"o":"m 349 960 q 706 858 572 960 q 840 485 840 757 q 708 109 840 218 q 374 0 576 0 l 113 0 l 113 960 l 349 960 m 296 822 l 296 138 l 386 138 q 578 213 508 138 q 647 485 647 289 q 612 695 647 621 q 519 796 576 769 q 381 822 461 822 l 296 822 m 421 -307 q 340 -276 371 -307 q 308 -199 308 -244 q 340 -122 308 -153 q 421 -92 371 -92 q 501 -122 469 -92 q 532 -199 532 -153 q 501 -276 532 -244 q 421 -307 469 -307 z "},"Ɗ":{"ha":1060,"x_min":10,"x_max":1000,"o":"m 508 960 q 866 858 732 960 q 1000 485 1000 757 q 868 109 1000 218 q 533 0 736 0 l 272 0 l 272 824 l 231 824 q 161 761 161 824 q 167 717 161 738 q 185 665 172 696 l 68 611 q 25 690 40 653 q 10 769 10 726 q 71 908 10 857 q 240 960 132 960 l 508 960 m 546 138 q 738 213 668 138 q 807 485 807 289 q 772 695 807 621 q 678 796 736 769 q 540 822 621 822 l 456 822 l 456 138 l 546 138 z "},"Ḏ":{"ha":900,"x_min":113,"x_max":840,"o":"m 349 960 q 706 858 572 960 q 840 485 840 757 q 708 109 840 218 q 374 0 576 0 l 113 0 l 113 960 l 349 960 m 296 822 l 296 138 l 386 138 q 578 213 508 138 q 647 485 647 289 q 612 695 647 621 q 519 796 576 769 q 381 822 461 822 l 296 822 m 622 -253 l 218 -253 l 218 -126 l 622 -126 l 622 -253 z "},"Ƌ":{"ha":817,"x_min":32,"x_max":706,"o":"m 704 958 l 704 0 l 396 0 q 131 74 229 0 q 32 303 32 149 q 131 530 32 450 q 407 610 231 610 l 521 610 l 521 817 l 149 817 l 149 960 l 706 960 l 704 958 m 521 138 l 521 476 l 417 476 q 273 434 321 476 q 225 303 225 392 q 274 175 225 213 q 413 138 322 138 l 521 138 z "},"ǲ":{"ha":1510,"x_min":113,"x_max":1478,"o":"m 349 960 q 706 858 572 960 q 840 485 840 757 q 708 109 840 218 q 374 0 576 0 l 113 0 l 113 960 l 349 960 m 296 822 l 296 138 l 386 138 q 578 213 508 138 q 647 485 647 289 q 612 695 647 621 q 519 796 576 769 q 381 822 461 822 l 296 822 m 1471 735 l 1471 607 l 1115 139 l 1478 139 l 1460 0 l 911 0 l 911 128 l 1268 596 l 942 596 l 942 735 l 1471 735 z "},"ǅ":{"ha":1510,"x_min":113,"x_max":1478,"o":"m 349 960 q 706 858 572 960 q 840 485 840 757 q 708 109 840 218 q 374 0 576 0 l 113 0 l 113 960 l 349 960 m 296 822 l 296 138 l 386 138 q 578 213 508 138 q 647 485 647 289 q 612 695 647 621 q 519 796 576 769 q 381 822 461 822 l 296 822 m 1471 735 l 1471 607 l 1115 139 l 1478 139 l 1460 0 l 911 0 l 911 128 l 1268 596 l 942 596 l 942 735 l 1471 735 m 1381 1111 l 1449 1033 l 1256 860 l 1144 860 l 951 1033 l 1019 1111 l 1200 989 l 1381 1111 z "},"E":{"ha":736,"x_min":113,"x_max":675,"o":"m 669 960 l 650 824 l 296 824 l 296 556 l 604 556 l 604 419 l 296 419 l 296 138 l 675 138 l 675 0 l 113 0 l 113 960 l 669 960 z "},"É":{"ha":736,"x_min":113,"x_max":675,"o":"m 669 960 l 650 824 l 296 824 l 296 556 l 604 556 l 604 419 l 296 419 l 296 138 l 675 138 l 675 0 l 113 0 l 113 960 l 669 960 m 507 1300 l 576 1161 l 258 1046 l 213 1138 l 507 1300 z "},"Ĕ":{"ha":736,"x_min":113,"x_max":675,"o":"m 669 960 l 650 824 l 296 824 l 296 556 l 604 556 l 604 419 l 296 419 l 296 138 l 675 138 l 675 0 l 113 0 l 113 960 l 669 960 m 393 1047 q 238 1104 299 1047 q 168 1247 176 1161 l 272 1268 q 317 1200 286 1225 q 393 1175 347 1175 q 471 1200 439 1175 q 515 1268 503 1225 l 621 1247 q 551 1104 613 1161 q 393 1047 489 1047 z "},"Ě":{"ha":736,"x_min":113,"x_max":675,"o":"m 669 960 l 650 824 l 296 824 l 296 556 l 604 556 l 604 419 l 296 419 l 296 138 l 675 138 l 675 0 l 113 0 l 113 960 l 669 960 m 575 1289 l 643 1211 l 450 1044 l 339 1044 l 146 1211 l 214 1289 l 394 1174 l 575 1289 z "},"Ȩ":{"ha":736,"x_min":113,"x_max":675,"o":"m 444 0 l 444 -72 q 548 -113 514 -79 q 582 -200 582 -147 q 529 -310 582 -269 q 392 -351 476 -351 q 311 -341 349 -351 q 249 -312 274 -331 l 292 -225 q 379 -247 333 -247 q 447 -200 447 -247 q 417 -160 447 -172 q 321 -147 388 -147 l 339 0 l 113 0 l 113 960 l 669 960 l 650 824 l 296 824 l 296 556 l 604 556 l 604 419 l 296 419 l 296 138 l 675 138 l 675 0 l 444 0 z "},"Ê":{"ha":736,"x_min":113,"x_max":675,"o":"m 669 960 l 650 824 l 296 824 l 296 556 l 604 556 l 604 419 l 296 419 l 296 138 l 675 138 l 675 0 l 113 0 l 113 960 l 669 960 m 213 1051 l 144 1128 l 338 1296 l 449 1296 l 642 1128 l 574 1051 l 393 1165 l 213 1051 z "},"Ế":{"ha":736,"x_min":113,"x_max":804,"o":"m 669 960 l 650 824 l 296 824 l 296 556 l 604 556 l 604 419 l 296 419 l 296 138 l 675 138 l 675 0 l 113 0 l 113 960 l 669 960 m 213 999 l 144 1075 l 338 1243 l 449 1243 l 642 1075 l 574 999 l 393 1113 l 213 999 m 703 1472 l 804 1375 l 599 1189 l 529 1251 l 703 1472 z "},"Ệ":{"ha":736,"x_min":113,"x_max":675,"o":"m 669 960 l 650 824 l 296 824 l 296 556 l 604 556 l 604 419 l 296 419 l 296 138 l 675 138 l 675 0 l 113 0 l 113 960 l 669 960 m 213 1051 l 144 1128 l 338 1296 l 449 1296 l 642 1128 l 574 1051 l 393 1165 l 213 1051 m 394 -307 q 313 -276 344 -307 q 282 -199 282 -244 q 313 -122 282 -153 q 394 -92 344 -92 q 474 -122 443 -92 q 506 -199 506 -153 q 474 -276 506 -244 q 394 -307 443 -307 z "},"Ề":{"ha":736,"x_min":-18,"x_max":675,"o":"m 669 960 l 650 824 l 296 824 l 296 556 l 604 556 l 604 419 l 296 419 l 296 138 l 675 138 l 675 0 l 113 0 l 113 960 l 669 960 m 211 999 l 143 1075 l 336 1243 l 447 1243 l 640 1075 l 572 999 l 392 1113 l 211 999 m 82 1472 l 257 1251 l 188 1189 l -18 1375 l 82 1472 z "},"Ể":{"ha":736,"x_min":113,"x_max":789,"o":"m 669 960 l 650 824 l 296 824 l 296 556 l 604 556 l 604 419 l 296 419 l 296 138 l 675 138 l 675 0 l 113 0 l 113 960 l 669 960 m 211 999 l 143 1075 l 336 1243 l 447 1243 l 640 1075 l 572 999 l 392 1113 l 211 999 m 560 1285 q 635 1302 613 1290 q 658 1342 658 1314 q 642 1376 658 1364 q 600 1388 626 1388 q 518 1369 561 1388 l 485 1451 q 626 1486 544 1486 q 747 1449 704 1486 q 789 1350 789 1413 q 759 1267 789 1299 q 674 1226 729 1236 l 674 1164 l 560 1164 l 560 1285 z "},"Ễ":{"ha":736,"x_min":113,"x_max":675,"o":"m 669 960 l 650 824 l 296 824 l 296 556 l 604 556 l 604 419 l 296 419 l 296 138 l 675 138 l 675 0 l 113 0 l 113 960 l 669 960 m 210 999 l 142 1075 l 335 1243 l 446 1243 l 639 1075 l 571 999 l 390 1113 l 210 999 m 472 1281 q 423 1290 444 1281 q 372 1318 401 1300 q 339 1338 351 1332 q 313 1344 326 1344 q 273 1330 289 1344 q 239 1283 257 1315 l 143 1329 q 213 1430 171 1392 q 310 1468 254 1468 q 363 1459 340 1468 q 413 1432 385 1450 q 471 1407 447 1407 q 508 1420 492 1407 q 544 1464 525 1433 l 639 1419 q 568 1318 611 1356 q 472 1281 525 1281 z "},"Ȅ":{"ha":736,"x_min":89,"x_max":675,"o":"m 669 960 l 650 824 l 296 824 l 296 556 l 604 556 l 604 419 l 296 419 l 296 138 l 675 138 l 675 0 l 113 0 l 113 960 l 669 960 m 218 1351 l 346 1093 l 247 1049 l 89 1285 l 218 1351 m 447 1351 l 563 1097 l 463 1056 l 317 1288 l 447 1351 z "},"Ë":{"ha":736,"x_min":113,"x_max":675,"o":"m 669 960 l 650 824 l 296 824 l 296 556 l 604 556 l 604 419 l 296 419 l 296 138 l 675 138 l 675 0 l 113 0 l 113 960 l 669 960 m 240 1265 q 308 1238 281 1265 q 336 1169 336 1210 q 308 1101 336 1129 q 240 1074 281 1074 q 170 1101 199 1074 q 142 1169 142 1129 q 170 1238 142 1210 q 240 1265 199 1265 m 547 1265 q 617 1238 589 1265 q 644 1169 644 1210 q 617 1101 644 1129 q 547 1074 589 1074 q 478 1101 507 1074 q 450 1169 450 1129 q 478 1238 450 1210 q 547 1265 507 1265 z "},"Ė":{"ha":736,"x_min":113,"x_max":675,"o":"m 669 960 l 650 824 l 296 824 l 296 556 l 604 556 l 604 419 l 296 419 l 296 138 l 675 138 l 675 0 l 113 0 l 113 960 l 669 960 m 393 1282 q 474 1251 443 1282 q 506 1174 506 1219 q 474 1097 506 1128 q 393 1067 443 1067 q 313 1097 344 1067 q 282 1174 282 1128 q 313 1251 282 1219 q 393 1282 344 1282 z "},"Ẹ":{"ha":736,"x_min":113,"x_max":675,"o":"m 669 960 l 650 824 l 296 824 l 296 556 l 604 556 l 604 419 l 296 419 l 296 138 l 675 138 l 675 0 l 113 0 l 113 960 l 669 960 m 394 -307 q 313 -276 344 -307 q 282 -199 282 -244 q 313 -122 282 -153 q 394 -92 344 -92 q 474 -122 443 -92 q 506 -199 506 -153 q 474 -276 506 -244 q 394 -307 443 -307 z "},"È":{"ha":736,"x_min":113,"x_max":675,"o":"m 669 960 l 650 824 l 296 824 l 296 556 l 604 556 l 604 419 l 296 419 l 296 138 l 675 138 l 675 0 l 113 0 l 113 960 l 669 960 m 274 1300 l 568 1138 l 522 1046 l 204 1161 l 274 1300 z "},"Ẻ":{"ha":736,"x_min":113,"x_max":675,"o":"m 669 960 l 650 824 l 296 824 l 296 556 l 604 556 l 604 419 l 296 419 l 296 138 l 675 138 l 675 0 l 113 0 l 113 960 l 669 960 m 338 1181 q 413 1198 390 1186 q 436 1238 436 1210 q 420 1272 436 1260 q 378 1283 404 1283 q 296 1265 339 1283 l 263 1347 q 404 1382 322 1382 q 524 1345 482 1382 q 567 1246 567 1308 q 537 1163 567 1194 q 451 1122 507 1132 l 451 1060 l 338 1060 l 338 1181 z "},"Ȇ":{"ha":736,"x_min":113,"x_max":675,"o":"m 669 960 l 650 824 l 296 824 l 296 556 l 604 556 l 604 419 l 296 419 l 296 138 l 675 138 l 675 0 l 113 0 l 113 960 l 669 960 m 393 1303 q 551 1243 489 1303 q 621 1088 613 1183 l 515 1068 q 472 1147 503 1119 q 393 1175 440 1175 q 272 1068 300 1175 l 168 1088 q 237 1243 176 1183 q 393 1303 297 1303 z "},"Ē":{"ha":736,"x_min":113,"x_max":675,"o":"m 669 960 l 650 824 l 296 824 l 296 556 l 604 556 l 604 419 l 296 419 l 296 138 l 675 138 l 675 0 l 113 0 l 113 960 l 669 960 m 596 1093 l 192 1093 l 192 1219 l 596 1219 l 596 1093 z "},"Ę":{"ha":736,"x_min":113,"x_max":675,"o":"m 675 138 l 675 0 l 619 0 q 488 -75 524 -39 q 451 -150 451 -111 q 528 -214 451 -214 q 613 -204 565 -214 l 599 -322 q 506 -332 547 -332 q 368 -290 421 -332 q 315 -181 315 -249 q 440 0 315 -69 l 113 0 l 113 960 l 669 960 l 650 824 l 296 824 l 296 556 l 604 556 l 604 419 l 296 419 l 296 138 l 675 138 z "},"Ɛ":{"ha":739,"x_min":49,"x_max":735,"o":"m 397 981 q 708 857 578 981 l 615 758 q 415 842 522 842 q 304 806 340 842 q 268 713 268 769 q 312 612 268 649 q 431 575 356 575 l 529 575 l 506 438 l 433 438 q 291 397 339 438 q 243 281 243 356 q 291 164 243 206 q 425 122 339 122 q 538 144 488 122 q 632 211 588 167 l 735 113 q 410 -21 613 -21 q 224 16 306 -21 q 95 119 142 53 q 49 272 49 186 q 112 439 49 378 q 281 511 175 500 q 131 589 183 532 q 79 732 79 646 q 117 859 79 803 q 228 948 156 915 q 397 981 300 981 z "},"Ǝ":{"ha":736,"x_min":61,"x_max":624,"o":"m 69 960 l 624 960 l 624 0 l 61 0 l 61 138 l 440 138 l 440 419 l 132 419 l 132 556 l 440 556 l 440 824 l 69 824 l 69 960 z "},"Ʃ":{"ha":699,"x_min":42,"x_max":657,"o":"m 657 960 l 657 821 l 246 821 l 500 518 l 500 429 l 244 142 l 657 142 l 657 0 l 42 0 l 42 139 l 328 471 l 42 821 l 42 960 l 657 960 z "},"Ɇ":{"ha":736,"x_min":113,"x_max":675,"o":"m 675 138 l 675 0 l 343 0 l 317 -100 l 243 -83 l 265 0 l 113 0 l 113 960 l 521 960 l 543 1046 l 615 1029 l 597 960 l 669 960 l 650 824 l 561 824 l 490 556 l 604 556 l 604 419 l 454 419 l 379 138 l 675 138 m 296 824 l 296 556 l 413 556 l 483 824 l 296 824 m 296 138 l 301 138 l 376 419 l 296 419 l 296 138 z "},"Ẽ":{"ha":736,"x_min":113,"x_max":675,"o":"m 669 960 l 650 824 l 296 824 l 296 556 l 604 556 l 604 419 l 296 419 l 296 138 l 675 138 l 675 0 l 113 0 l 113 960 l 669 960 m 475 1069 q 424 1080 446 1069 q 375 1108 403 1090 q 342 1128 354 1122 q 315 1135 329 1135 q 276 1120 292 1135 q 242 1072 260 1106 l 146 1119 q 215 1224 174 1185 q 313 1264 257 1264 q 365 1254 343 1264 q 415 1226 386 1244 q 447 1206 433 1213 q 474 1200 460 1200 q 511 1214 494 1200 q 547 1260 528 1228 l 642 1213 q 571 1108 614 1146 q 475 1069 528 1069 z "},"Ʒ":{"ha":740,"x_min":10,"x_max":692,"o":"m 379 556 q 612 482 532 554 q 692 281 692 410 q 648 126 692 194 q 522 18 604 57 q 328 -21 440 -21 q 144 13 221 -21 q 10 114 67 47 l 108 210 q 204 142 156 163 q 318 121 253 121 q 453 165 406 121 q 500 286 500 208 q 452 404 500 368 q 307 440 404 440 l 176 440 l 176 553 l 442 821 l 58 821 l 58 960 l 650 960 l 650 824 l 379 556 z "},"Ǯ":{"ha":740,"x_min":10,"x_max":692,"o":"m 379 556 q 612 482 532 554 q 692 281 692 410 q 648 126 692 194 q 522 18 604 57 q 328 -21 440 -21 q 144 13 221 -21 q 10 114 67 47 l 108 210 q 204 142 156 163 q 318 121 253 121 q 453 165 406 121 q 500 286 500 208 q 452 404 500 368 q 307 440 404 440 l 176 440 l 176 553 l 442 821 l 58 821 l 58 960 l 650 960 l 650 824 l 379 556 m 535 1289 l 603 1211 l 410 1044 l 299 1044 l 106 1211 l 174 1289 l 354 1174 l 535 1289 z "},"Ƹ":{"ha":740,"x_min":49,"x_max":731,"o":"m 731 114 q 594 13 672 46 q 403 -21 515 -21 q 215 17 296 -21 q 92 122 135 54 q 49 274 49 189 q 131 476 49 399 q 360 556 214 553 l 90 824 l 90 960 l 681 960 l 681 821 l 300 821 l 564 551 l 564 440 l 433 440 q 239 278 239 440 q 285 163 239 206 q 413 121 331 121 q 534 142 483 121 q 632 210 585 163 l 731 114 z "},"F":{"ha":679,"x_min":113,"x_max":656,"o":"m 113 0 l 113 960 l 656 960 l 636 824 l 296 824 l 296 536 l 592 536 l 592 400 l 296 400 l 296 0 l 113 0 z "},"Ḟ":{"ha":679,"x_min":113,"x_max":656,"o":"m 113 0 l 113 960 l 656 960 l 636 824 l 296 824 l 296 536 l 592 536 l 592 400 l 296 400 l 296 0 l 113 0 m 397 1282 q 478 1251 447 1282 q 510 1174 510 1219 q 478 1097 510 1128 q 397 1067 447 1067 q 317 1097 349 1067 q 286 1174 286 1128 q 317 1251 286 1219 q 397 1282 349 1282 z "},"Ƒ":{"ha":679,"x_min":-131,"x_max":656,"o":"m 296 824 l 296 536 l 592 536 l 592 400 l 296 400 l 296 -60 q 230 -241 296 -179 q 49 -303 164 -303 q -131 -246 -56 -303 l -67 -135 q -18 -157 -39 -150 q 32 -164 3 -164 q 113 -71 113 -164 l 113 960 l 656 960 l 636 824 l 296 824 z "},"G":{"ha":886,"x_min":60,"x_max":814,"o":"m 500 981 q 667 952 594 981 q 806 868 740 924 l 707 765 q 610 824 656 806 q 506 842 565 842 q 324 753 394 842 q 253 481 253 664 q 309 204 253 289 q 481 119 365 119 q 633 157 568 119 l 633 407 l 489 407 l 469 543 l 814 543 l 814 74 q 483 -21 658 -21 q 169 107 278 -21 q 60 481 60 235 q 119 751 60 638 q 278 922 178 864 q 500 981 378 981 z "},"Ǵ":{"ha":886,"x_min":60,"x_max":814,"o":"m 500 981 q 667 952 594 981 q 806 868 740 924 l 707 765 q 610 824 656 806 q 506 842 565 842 q 324 753 394 842 q 253 481 253 664 q 309 204 253 289 q 481 119 365 119 q 633 157 568 119 l 633 407 l 489 407 l 469 543 l 814 543 l 814 74 q 483 -21 658 -21 q 169 107 278 -21 q 60 481 60 235 q 119 751 60 638 q 278 922 178 864 q 500 981 378 981 m 603 1300 l 672 1161 l 354 1046 l 308 1138 l 603 1300 z "},"Ɣ":{"ha":781,"x_min":-7,"x_max":788,"o":"m 493 114 q 563 -28 542 28 q 583 -144 583 -85 q 536 -261 583 -219 q 393 -303 489 -303 q 250 -261 297 -303 q 203 -144 203 -219 q 224 -36 203 -93 q 293 114 244 21 l -7 960 l 190 960 l 394 236 l 600 960 l 788 960 l 493 114 m 435 -131 q 424 -72 435 -104 q 393 10 414 -40 q 351 -132 351 -85 q 393 -178 351 -178 q 435 -131 435 -178 z "},"Ğ":{"ha":886,"x_min":60,"x_max":814,"o":"m 500 981 q 667 952 594 981 q 806 868 740 924 l 707 765 q 610 824 656 806 q 506 842 565 842 q 324 753 394 842 q 253 481 253 664 q 309 204 253 289 q 481 119 365 119 q 633 157 568 119 l 633 407 l 489 407 l 469 543 l 814 543 l 814 74 q 483 -21 658 -21 q 169 107 278 -21 q 60 481 60 235 q 119 751 60 638 q 278 922 178 864 q 500 981 378 981 m 489 1047 q 333 1104 394 1047 q 264 1247 272 1161 l 368 1268 q 413 1200 382 1225 q 489 1175 443 1175 q 567 1200 535 1175 q 611 1268 599 1225 l 717 1247 q 647 1104 708 1161 q 489 1047 585 1047 z "},"Ǧ":{"ha":886,"x_min":60,"x_max":814,"o":"m 500 981 q 667 952 594 981 q 806 868 740 924 l 707 765 q 610 824 656 806 q 506 842 565 842 q 324 753 394 842 q 253 481 253 664 q 309 204 253 289 q 481 119 365 119 q 633 157 568 119 l 633 407 l 489 407 l 469 543 l 814 543 l 814 74 q 483 -21 658 -21 q 169 107 278 -21 q 60 481 60 235 q 119 751 60 638 q 278 922 178 864 q 500 981 378 981 m 671 1289 l 739 1211 l 546 1044 l 435 1044 l 242 1211 l 310 1289 l 490 1174 l 671 1289 z "},"Ĝ":{"ha":886,"x_min":60,"x_max":814,"o":"m 500 981 q 667 952 594 981 q 806 868 740 924 l 707 765 q 610 824 656 806 q 506 842 565 842 q 324 753 394 842 q 253 481 253 664 q 309 204 253 289 q 481 119 365 119 q 633 157 568 119 l 633 407 l 489 407 l 469 543 l 814 543 l 814 74 q 483 -21 658 -21 q 169 107 278 -21 q 60 481 60 235 q 119 751 60 638 q 278 922 178 864 q 500 981 378 981 m 308 1051 l 240 1128 l 433 1296 l 544 1296 l 738 1128 l 669 1051 l 489 1165 l 308 1051 z "},"Ģ":{"ha":886,"x_min":60,"x_max":814,"o":"m 500 981 q 667 952 594 981 q 806 868 740 924 l 707 765 q 610 824 656 806 q 506 842 565 842 q 324 753 394 842 q 253 481 253 664 q 309 204 253 289 q 481 119 365 119 q 633 157 568 119 l 633 407 l 489 407 l 469 543 l 814 543 l 814 74 q 483 -21 658 -21 q 169 107 278 -21 q 60 481 60 235 q 119 751 60 638 q 278 922 178 864 q 500 981 378 981 m 482 -100 q 550 -127 522 -100 q 578 -194 578 -154 q 570 -240 578 -217 q 540 -307 563 -262 l 479 -433 l 386 -433 l 425 -272 q 385 -194 385 -242 q 413 -127 385 -154 q 482 -100 440 -100 z "},"Ġ":{"ha":886,"x_min":60,"x_max":814,"o":"m 500 981 q 667 952 594 981 q 806 868 740 924 l 707 765 q 610 824 656 806 q 506 842 565 842 q 324 753 394 842 q 253 481 253 664 q 309 204 253 289 q 481 119 365 119 q 633 157 568 119 l 633 407 l 489 407 l 469 543 l 814 543 l 814 74 q 483 -21 658 -21 q 169 107 278 -21 q 60 481 60 235 q 119 751 60 638 q 278 922 178 864 q 500 981 378 981 m 489 1282 q 570 1251 539 1282 q 601 1174 601 1219 q 570 1097 601 1128 q 489 1067 539 1067 q 409 1097 440 1067 q 378 1174 378 1128 q 409 1251 378 1219 q 489 1282 440 1282 z "},"Ɠ":{"ha":836,"x_min":60,"x_max":1042,"o":"m 867 1171 q 1042 1118 961 1171 l 983 1006 q 935 1028 957 1021 q 886 1035 914 1035 q 806 942 806 1035 l 806 868 l 717 775 q 613 825 663 808 q 506 842 563 842 q 324 753 394 842 q 253 481 253 664 q 309 204 253 289 q 481 119 365 119 q 633 157 568 119 l 633 407 l 489 407 l 469 543 l 814 543 l 814 74 q 476 -21 664 -21 q 167 107 275 -21 q 60 481 60 235 q 118 749 60 636 q 272 922 176 863 q 478 981 368 981 q 643 947 576 981 q 701 1113 644 1054 q 867 1171 758 1171 z "},"Ɂ":{"ha":679,"x_min":10,"x_max":651,"o":"m 206 451 l 293 475 q 419 544 379 499 q 460 675 460 589 q 419 797 460 751 q 306 842 379 842 q 201 822 250 842 q 101 758 153 801 l 10 857 q 154 950 78 919 q 324 981 231 981 q 498 943 424 981 q 612 838 572 906 q 651 683 651 771 q 592 497 651 561 q 424 394 532 432 l 390 383 l 390 0 l 206 0 l 206 451 z "},"Ǥ":{"ha":908,"x_min":60,"x_max":904,"o":"m 904 240 l 814 240 l 814 74 q 481 -21 664 -21 q 168 107 276 -21 q 60 481 60 235 q 119 751 60 638 q 277 922 178 864 q 497 981 376 981 q 669 952 596 981 q 806 868 742 924 l 708 765 q 610 824 656 806 q 506 842 565 842 q 324 753 394 842 q 253 481 253 664 q 309 204 253 289 q 481 119 365 119 q 643 154 565 119 l 643 240 l 485 240 l 485 361 l 643 361 l 643 431 l 488 431 l 469 556 l 814 556 l 814 361 l 904 361 l 904 240 z "},"Ȝ":{"ha":713,"x_min":4,"x_max":664,"o":"m 322 981 q 491 947 421 981 q 597 856 561 914 q 633 724 633 799 q 581 576 633 633 q 432 497 529 518 q 601 431 539 486 q 664 271 664 375 q 525 13 664 124 q 94 -150 386 -97 l 79 -8 q 317 71 231 28 q 436 164 403 114 q 469 278 469 214 q 279 424 469 424 l 183 424 l 206 561 l 282 561 q 401 599 358 561 q 443 706 443 636 q 408 805 443 768 q 301 842 374 842 q 93 758 197 842 l 4 857 q 322 981 139 981 z "},"H":{"ha":933,"x_min":113,"x_max":822,"o":"m 638 0 l 638 429 l 296 429 l 296 0 l 113 0 l 113 960 l 296 960 l 296 575 l 638 575 l 638 960 l 822 960 l 822 0 l 638 0 z "},"Ħ":{"ha":947,"x_min":32,"x_max":915,"o":"m 915 813 l 915 700 l 829 700 l 829 0 l 644 0 l 644 429 l 303 429 l 303 0 l 119 0 l 119 700 l 32 700 l 32 813 l 119 813 l 119 960 l 303 960 l 303 813 l 644 813 l 644 960 l 829 960 l 829 813 l 915 813 m 644 575 l 644 700 l 303 700 l 303 575 l 644 575 z "},"Ȟ":{"ha":933,"x_min":113,"x_max":822,"o":"m 638 0 l 638 429 l 296 429 l 296 0 l 113 0 l 113 960 l 296 960 l 296 575 l 638 575 l 638 960 l 822 960 l 822 0 l 638 0 m 647 1289 l 715 1211 l 522 1044 l 411 1044 l 218 1211 l 286 1289 l 467 1174 l 647 1289 z "},"Ĥ":{"ha":933,"x_min":113,"x_max":822,"o":"m 638 0 l 638 429 l 296 429 l 296 0 l 113 0 l 113 960 l 296 960 l 296 575 l 638 575 l 638 960 l 822 960 l 822 0 l 638 0 m 285 1051 l 217 1128 l 410 1296 l 521 1296 l 714 1128 l 646 1051 l 465 1165 l 285 1051 z "},"Ḥ":{"ha":933,"x_min":113,"x_max":822,"o":"m 638 0 l 638 429 l 296 429 l 296 0 l 113 0 l 113 960 l 296 960 l 296 575 l 638 575 l 638 960 l 822 960 l 822 0 l 638 0 m 467 -307 q 385 -276 417 -307 q 354 -199 354 -244 q 385 -122 354 -153 q 467 -92 417 -92 q 547 -122 515 -92 q 578 -199 578 -153 q 547 -276 578 -244 q 467 -307 515 -307 z "},"Ɦ":{"ha":1093,"x_min":10,"x_max":982,"o":"m 982 960 l 982 0 l 797 0 l 797 429 l 456 429 l 456 0 l 272 0 l 272 824 l 231 824 q 161 761 161 824 q 167 717 161 738 q 185 665 172 696 l 68 611 q 25 690 40 653 q 10 769 10 726 q 71 908 10 857 q 240 960 132 960 l 456 960 l 456 575 l 797 575 l 797 960 l 982 960 z "},"Ɥ":{"ha":856,"x_min":42,"x_max":743,"o":"m 743 960 l 743 0 l 558 0 l 558 369 q 451 310 503 329 q 332 292 400 292 q 119 375 197 292 q 42 601 42 458 l 42 960 l 224 960 l 224 608 q 263 477 224 519 q 382 435 303 435 q 558 500 490 435 l 558 960 l 743 960 z "},"Ƕ":{"ha":1332,"x_min":113,"x_max":1256,"o":"m 1218 735 q 1246 543 1236 635 q 1256 349 1256 451 q 1207 141 1256 224 q 1080 19 1158 58 q 913 -21 1001 -21 q 716 47 794 -21 q 638 240 638 114 l 638 429 l 296 429 l 296 0 l 113 0 l 113 960 l 296 960 l 296 575 l 638 575 l 638 960 l 822 960 l 822 246 q 925 114 822 114 q 1032 174 986 114 q 1078 364 1078 233 q 1040 735 1078 535 l 1218 735 z "},"I":{"ha":408,"x_min":113,"x_max":296,"o":"m 296 960 l 296 0 l 113 0 l 113 960 l 296 960 z "},"Ĳ":{"ha":842,"x_min":113,"x_max":735,"o":"m 296 960 l 296 0 l 113 0 l 113 960 l 296 960 m 735 140 q 662 -92 735 -14 q 453 -215 589 -171 l 404 -83 q 497 -30 465 -60 q 539 41 528 0 q 550 147 550 82 l 550 960 l 735 960 l 735 140 z "},"Í":{"ha":408,"x_min":22,"x_max":386,"o":"m 296 960 l 296 0 l 113 0 l 113 960 l 296 960 m 317 1300 l 386 1161 l 68 1046 l 22 1138 l 317 1300 z "},"Ĭ":{"ha":408,"x_min":-22,"x_max":431,"o":"m 296 960 l 296 0 l 113 0 l 113 960 l 296 960 m 203 1047 q 47 1104 108 1047 q -22 1247 -14 1161 l 82 1268 q 126 1200 96 1225 q 203 1175 157 1175 q 281 1200 249 1175 q 325 1268 313 1225 l 431 1247 q 360 1104 422 1161 q 203 1047 299 1047 z "},"Ǐ":{"ha":408,"x_min":-44,"x_max":453,"o":"m 296 960 l 296 0 l 113 0 l 113 960 l 296 960 m 385 1289 l 453 1211 l 260 1044 l 149 1044 l -44 1211 l 24 1289 l 204 1174 l 385 1289 z "},"Î":{"ha":408,"x_min":-46,"x_max":451,"o":"m 296 960 l 296 0 l 113 0 l 113 960 l 296 960 m 22 1051 l -46 1128 l 147 1296 l 258 1296 l 451 1128 l 383 1051 l 203 1165 l 22 1051 z "},"Ȉ":{"ha":408,"x_min":-101,"x_max":372,"o":"m 296 960 l 296 0 l 113 0 l 113 960 l 296 960 m 28 1351 l 156 1093 l 57 1049 l -101 1285 l 28 1351 m 257 1351 l 372 1097 l 272 1056 l 126 1288 l 257 1351 z "},"Ï":{"ha":408,"x_min":-49,"x_max":454,"o":"m 296 960 l 296 0 l 113 0 l 113 960 l 296 960 m 50 1265 q 118 1238 90 1265 q 146 1169 146 1210 q 118 1101 146 1129 q 50 1074 90 1074 q -20 1101 8 1074 q -49 1169 -49 1129 q -20 1238 -49 1210 q 50 1265 8 1265 m 357 1265 q 426 1238 399 1265 q 454 1169 454 1210 q 426 1101 454 1129 q 357 1074 399 1074 q 288 1101 317 1074 q 260 1169 260 1129 q 288 1238 260 1210 q 357 1265 317 1265 z "},"Ḯ":{"ha":408,"x_min":-53,"x_max":460,"o":"m 296 960 l 296 0 l 113 0 l 113 960 l 296 960 m 308 1472 l 410 1375 l 204 1189 l 135 1251 l 308 1472 m 46 1229 q 114 1201 86 1229 q 142 1133 142 1174 q 114 1065 142 1093 q 46 1038 86 1038 q -25 1065 3 1038 q -53 1133 -53 1093 q -25 1201 -53 1174 q 46 1229 3 1229 m 363 1229 q 431 1201 403 1229 q 460 1133 460 1174 q 431 1065 460 1093 q 363 1038 403 1038 q 293 1065 321 1038 q 265 1133 265 1093 q 293 1201 265 1174 q 363 1229 321 1229 z "},"İ":{"ha":408,"x_min":92,"x_max":315,"o":"m 296 960 l 296 0 l 113 0 l 113 960 l 296 960 m 203 1282 q 284 1251 253 1282 q 315 1174 315 1219 q 284 1097 315 1128 q 203 1067 253 1067 q 123 1097 154 1067 q 92 1174 92 1128 q 123 1251 92 1219 q 203 1282 154 1282 z "},"Ị":{"ha":408,"x_min":92,"x_max":315,"o":"m 296 960 l 296 0 l 113 0 l 113 960 l 296 960 m 204 -307 q 123 -276 154 -307 q 92 -199 92 -244 q 123 -122 92 -153 q 204 -92 154 -92 q 284 -122 253 -92 q 315 -199 315 -153 q 284 -276 315 -244 q 204 -307 253 -307 z "},"Ì":{"ha":408,"x_min":14,"x_max":378,"o":"m 296 960 l 296 0 l 113 0 l 113 960 l 296 960 m 83 1300 l 378 1138 l 332 1046 l 14 1161 l 83 1300 z "},"Ỉ":{"ha":408,"x_min":72,"x_max":376,"o":"m 296 960 l 296 0 l 113 0 l 113 960 l 296 960 m 147 1181 q 223 1198 200 1186 q 246 1238 246 1210 q 230 1272 246 1260 q 188 1283 214 1283 q 106 1265 149 1283 l 72 1347 q 214 1382 132 1382 q 334 1345 292 1382 q 376 1246 376 1308 q 347 1163 376 1194 q 261 1122 317 1132 l 261 1060 l 147 1060 l 147 1181 z "},"Ȋ":{"ha":408,"x_min":-22,"x_max":431,"o":"m 296 960 l 296 0 l 113 0 l 113 960 l 296 960 m 203 1303 q 360 1243 299 1303 q 431 1088 422 1183 l 325 1068 q 281 1147 313 1119 q 203 1175 250 1175 q 82 1068 110 1175 l -22 1088 q 47 1243 -14 1183 q 203 1303 107 1303 z "},"Ī":{"ha":408,"x_min":1,"x_max":406,"o":"m 296 960 l 296 0 l 113 0 l 113 960 l 296 960 m 406 1093 l 1 1093 l 1 1219 l 406 1219 l 406 1093 z "},"Į":{"ha":408,"x_min":-29,"x_max":296,"o":"m 296 960 l 296 0 l 275 0 q 143 -75 179 -39 q 107 -150 107 -111 q 183 -214 107 -214 q 268 -204 221 -214 l 254 -322 q 161 -332 203 -332 q 24 -290 76 -332 q -29 -181 -29 -249 q 113 8 -29 -62 l 113 960 l 296 960 z "},"Ɩ":{"ha":528,"x_min":99,"x_max":525,"o":"m 525 36 q 346 -21 450 -21 q 165 41 231 -21 q 99 222 99 103 l 99 960 l 282 960 l 282 211 q 363 118 282 118 q 413 125 392 118 q 461 147 433 132 l 525 36 z "},"Ɨ":{"ha":447,"x_min":14,"x_max":433,"o":"m 433 568 l 433 431 l 315 431 l 315 0 l 132 0 l 132 431 l 14 431 l 14 568 l 132 568 l 132 960 l 315 960 l 315 568 l 433 568 z "},"Ĩ":{"ha":408,"x_min":-44,"x_max":451,"o":"m 296 960 l 296 0 l 113 0 l 113 960 l 296 960 m 285 1069 q 234 1080 256 1069 q 185 1108 213 1090 q 151 1128 164 1122 q 125 1135 139 1135 q 85 1120 101 1135 q 51 1072 69 1106 l -44 1119 q 25 1224 -17 1185 q 122 1264 67 1264 q 174 1254 153 1264 q 225 1226 196 1244 q 256 1206 243 1213 q 283 1200 269 1200 q 321 1214 304 1200 q 357 1260 338 1228 l 451 1213 q 381 1108 424 1146 q 285 1069 338 1069 z "},"J":{"ha":433,"x_min":-4,"x_max":326,"o":"m 326 140 q 253 -92 326 -14 q 44 -215 181 -171 l -4 -83 q 88 -30 57 -60 q 131 41 119 0 q 142 147 142 82 l 142 960 l 326 960 l 326 140 z "},"Ĵ":{"ha":433,"x_min":-15,"x_max":482,"o":"m 326 140 q 253 -92 326 -14 q 44 -215 181 -171 l -4 -83 q 88 -30 57 -60 q 131 41 119 0 q 142 147 142 82 l 142 960 l 326 960 l 326 140 m 53 1051 l -15 1128 l 178 1296 l 289 1296 l 482 1128 l 414 1051 l 233 1165 l 53 1051 z "},"Ʝ":{"ha":476,"x_min":-121,"x_max":517,"o":"m 482 -144 q 353 -100 410 -114 q 83 -303 307 -303 q -67 -260 -14 -303 q -121 -144 -121 -218 q -60 -18 -121 -62 q 111 26 0 26 q 179 24 161 26 l 179 960 l 364 960 l 364 17 l 364 -7 q 517 -64 428 -22 l 482 -144 m 78 -199 q 153 -169 131 -199 q 179 -72 176 -140 q 113 -67 143 -67 q 1 -139 1 -67 q 78 -199 1 -199 z "},"Ɉ":{"ha":453,"x_min":-4,"x_max":443,"o":"m 443 406 l 326 406 l 326 140 q 253 -92 326 -14 q 44 -215 181 -171 l -4 -83 q 88 -30 57 -60 q 131 41 119 0 q 142 147 142 82 l 142 406 l 24 406 l 24 547 l 142 547 l 142 960 l 326 960 l 326 547 l 443 547 l 443 406 z "},"K":{"ha":851,"x_min":113,"x_max":861,"o":"m 296 960 l 296 0 l 113 0 l 113 960 l 296 960 m 835 960 l 503 525 l 861 0 l 643 0 l 304 513 l 636 960 l 835 960 z "},"Ǩ":{"ha":851,"x_min":113,"x_max":861,"o":"m 296 960 l 296 0 l 113 0 l 113 960 l 296 960 m 835 960 l 503 525 l 861 0 l 643 0 l 304 513 l 636 960 l 835 960 m 638 1289 l 706 1211 l 513 1044 l 401 1044 l 208 1211 l 276 1289 l 457 1174 l 638 1289 z "},"Ķ":{"ha":851,"x_min":113,"x_max":861,"o":"m 296 960 l 296 0 l 113 0 l 113 960 l 296 960 m 835 960 l 503 525 l 861 0 l 643 0 l 304 513 l 636 960 l 835 960 m 447 -100 q 515 -127 488 -100 q 543 -194 543 -154 q 535 -240 543 -217 q 506 -307 528 -262 l 444 -433 l 351 -433 l 390 -272 q 350 -194 350 -242 q 378 -127 350 -154 q 447 -100 406 -100 z "},"Ƙ":{"ha":885,"x_min":113,"x_max":893,"o":"m 304 513 l 515 833 q 617 947 567 914 q 746 981 668 981 q 893 931 831 981 l 839 821 q 806 838 821 832 q 767 843 790 843 q 713 828 735 843 q 660 767 690 814 l 501 525 l 861 0 l 643 0 l 304 513 m 296 960 l 296 0 l 113 0 l 113 960 l 296 960 z "},"L":{"ha":703,"x_min":113,"x_max":681,"o":"m 296 960 l 296 150 l 681 150 l 660 0 l 113 0 l 113 960 l 296 960 z "},"Ǉ":{"ha":1107,"x_min":113,"x_max":1000,"o":"m 296 960 l 296 150 l 681 150 l 660 0 l 113 0 l 113 960 l 296 960 m 1000 140 q 927 -92 1000 -14 q 718 -215 854 -171 l 669 -83 q 762 -30 731 -60 q 804 41 793 0 q 815 147 815 82 l 815 960 l 1000 960 l 1000 140 z "},"Ĺ":{"ha":703,"x_min":22,"x_max":681,"o":"m 296 960 l 296 150 l 681 150 l 660 0 l 113 0 l 113 960 l 296 960 m 317 1300 l 386 1161 l 68 1046 l 22 1138 l 317 1300 z "},"Ƚ":{"ha":719,"x_min":14,"x_max":697,"o":"m 313 150 l 697 150 l 676 0 l 129 0 l 129 433 l 14 433 l 14 575 l 129 575 l 129 960 l 313 960 l 313 575 l 433 575 l 433 433 l 313 433 l 313 150 z "},"Ɬ":{"ha":813,"x_min":7,"x_max":789,"o":"m 789 150 l 768 0 l 221 0 l 221 354 q 61 403 115 357 q 7 526 7 449 q 53 641 7 600 q 172 682 100 682 q 221 676 204 682 l 221 960 l 404 960 l 404 468 q 574 489 488 469 l 590 385 q 404 360 514 367 l 404 150 l 789 150 m 133 528 q 221 465 133 465 l 221 576 q 185 579 199 579 q 147 566 161 579 q 133 528 133 553 z "},"Ľ":{"ha":703,"x_min":113,"x_max":681,"o":"m 296 960 l 296 150 l 681 150 l 660 0 l 113 0 l 113 960 l 296 960 m 463 681 l 536 960 l 393 979 l 364 696 l 463 681 z "},"Ḽ":{"ha":703,"x_min":113,"x_max":681,"o":"m 296 960 l 296 150 l 681 150 l 660 0 l 113 0 l 113 960 l 296 960 m 206 -343 l 138 -265 l 329 -90 l 442 -90 l 635 -265 l 567 -343 l 386 -221 l 206 -343 z "},"Ļ":{"ha":703,"x_min":113,"x_max":681,"o":"m 296 960 l 296 150 l 681 150 l 660 0 l 113 0 l 113 960 l 296 960 m 389 -100 q 457 -127 429 -100 q 485 -194 485 -154 q 477 -240 485 -217 q 447 -307 469 -262 l 386 -433 l 293 -433 l 332 -272 q 292 -194 292 -242 q 319 -127 292 -154 q 389 -100 347 -100 z "},"Ŀ":{"ha":703,"x_min":113,"x_max":681,"o":"m 296 960 l 296 150 l 681 150 l 660 0 l 113 0 l 113 960 l 296 960 m 549 656 q 630 624 599 656 q 661 547 661 593 q 630 471 661 501 q 549 440 599 440 q 469 471 500 440 q 438 547 438 501 q 469 624 438 593 q 549 656 500 656 z "},"Ḷ":{"ha":703,"x_min":113,"x_max":681,"o":"m 296 960 l 296 150 l 681 150 l 660 0 l 113 0 l 113 960 l 296 960 m 386 -307 q 305 -276 336 -307 q 274 -199 274 -244 q 305 -122 274 -153 q 386 -92 336 -92 q 466 -122 435 -92 q 497 -199 497 -153 q 466 -276 497 -244 q 386 -307 435 -307 z "},"ǈ":{"ha":1072,"x_min":113,"x_max":988,"o":"m 296 960 l 296 150 l 681 150 l 660 0 l 113 0 l 113 960 l 296 960 m 965 65 q 934 -112 965 -43 q 846 -222 903 -181 q 697 -301 789 -264 l 640 -172 q 725 -123 694 -147 q 772 -57 756 -99 q 788 54 788 -15 l 788 735 l 965 735 l 965 65 m 875 1107 q 956 1076 925 1107 q 988 999 988 1044 q 956 922 988 953 q 875 892 925 892 q 795 922 826 892 q 764 999 764 953 q 795 1076 764 1044 q 875 1107 826 1107 z "},"Ł":{"ha":743,"x_min":21,"x_max":721,"o":"m 336 150 l 721 150 l 700 0 l 153 0 l 153 332 l 85 290 l 21 394 l 153 475 l 153 960 l 336 960 l 336 589 l 535 713 l 599 608 l 336 446 l 336 150 z "},"M":{"ha":1086,"x_min":64,"x_max":1022,"o":"m 1022 0 l 843 0 l 818 401 q 806 743 806 617 l 806 793 l 631 104 l 457 104 l 271 794 q 274 656 274 703 q 265 396 274 529 l 242 0 l 64 0 l 140 960 l 376 960 l 547 288 l 708 960 l 947 960 l 1022 0 z "},"Ḿ":{"ha":1086,"x_min":64,"x_max":1022,"o":"m 1022 0 l 843 0 l 818 401 q 806 743 806 617 l 806 793 l 631 104 l 457 104 l 271 794 q 274 656 274 703 q 265 396 274 529 l 242 0 l 64 0 l 140 960 l 376 960 l 547 288 l 708 960 l 947 960 l 1022 0 m 656 1300 l 725 1161 l 407 1046 l 361 1138 l 656 1300 z "},"Ṁ":{"ha":1086,"x_min":64,"x_max":1022,"o":"m 1022 0 l 843 0 l 818 401 q 806 743 806 617 l 806 793 l 631 104 l 457 104 l 271 794 q 274 656 274 703 q 265 396 274 529 l 242 0 l 64 0 l 140 960 l 376 960 l 547 288 l 708 960 l 947 960 l 1022 0 m 542 1282 q 623 1251 592 1282 q 654 1174 654 1219 q 623 1097 654 1128 q 542 1067 592 1067 q 462 1097 493 1067 q 431 1174 431 1128 q 462 1251 431 1219 q 542 1282 493 1282 z "},"Ɯ":{"ha":1282,"x_min":99,"x_max":1171,"o":"m 1171 960 l 1171 0 l 1010 0 l 996 99 q 894 8 947 38 q 775 -21 842 -21 q 650 14 703 -21 q 569 111 597 49 q 457 11 514 43 q 331 -21 400 -21 q 160 55 221 -21 q 99 254 99 131 l 99 960 l 282 960 l 282 261 q 308 158 282 194 q 383 121 335 121 q 465 147 429 121 q 542 231 500 172 l 542 254 l 542 960 l 726 960 l 726 261 q 753 158 726 194 q 826 121 779 121 q 910 147 875 121 q 986 232 944 172 l 986 960 l 1171 960 z "},"N":{"ha":933,"x_min":113,"x_max":821,"o":"m 821 0 l 583 0 l 254 776 q 273 590 267 674 q 279 392 279 507 l 279 0 l 113 0 l 113 960 l 344 960 l 679 182 q 663 328 671 238 q 654 510 654 419 l 654 960 l 821 960 l 821 0 z "},"Ǌ":{"ha":1367,"x_min":113,"x_max":1260,"o":"m 821 0 l 583 0 l 254 776 q 273 590 267 674 q 279 392 279 507 l 279 0 l 113 0 l 113 960 l 344 960 l 679 182 q 663 328 671 238 q 654 510 654 419 l 654 960 l 821 960 l 821 0 m 1260 140 q 1187 -92 1260 -14 q 978 -215 1114 -171 l 929 -83 q 1022 -30 990 -60 q 1064 41 1053 0 q 1075 147 1075 82 l 1075 960 l 1260 960 l 1260 140 z "},"Ń":{"ha":933,"x_min":113,"x_max":821,"o":"m 821 0 l 583 0 l 254 776 q 273 590 267 674 q 279 392 279 507 l 279 0 l 113 0 l 113 960 l 344 960 l 679 182 q 663 328 671 238 q 654 510 654 419 l 654 960 l 821 960 l 821 0 m 590 1300 l 660 1161 l 342 1046 l 296 1138 l 590 1300 z "},"Ň":{"ha":933,"x_min":113,"x_max":821,"o":"m 821 0 l 583 0 l 254 776 q 273 590 267 674 q 279 392 279 507 l 279 0 l 113 0 l 113 960 l 344 960 l 679 182 q 663 328 671 238 q 654 510 654 419 l 654 960 l 821 960 l 821 0 m 658 1289 l 726 1211 l 533 1044 l 422 1044 l 229 1211 l 297 1289 l 478 1174 l 658 1289 z "},"Ṋ":{"ha":933,"x_min":113,"x_max":821,"o":"m 821 0 l 583 0 l 254 776 q 273 590 267 674 q 279 392 279 507 l 279 0 l 113 0 l 113 960 l 344 960 l 679 182 q 663 328 671 238 q 654 510 654 419 l 654 960 l 821 960 l 821 0 m 288 -343 l 219 -265 l 411 -90 l 524 -90 l 717 -265 l 649 -343 l 468 -221 l 288 -343 z "},"Ņ":{"ha":933,"x_min":113,"x_max":821,"o":"m 821 0 l 583 0 l 254 776 q 273 590 267 674 q 279 392 279 507 l 279 0 l 113 0 l 113 960 l 344 960 l 679 182 q 663 328 671 238 q 654 510 654 419 l 654 960 l 821 960 l 821 0 m 471 -100 q 539 -127 511 -100 q 567 -194 567 -154 q 559 -240 567 -217 q 529 -307 551 -262 l 468 -433 l 375 -433 l 414 -272 q 374 -194 374 -242 q 401 -127 374 -154 q 471 -100 429 -100 z "},"Ṅ":{"ha":933,"x_min":113,"x_max":821,"o":"m 821 0 l 583 0 l 254 776 q 273 590 267 674 q 279 392 279 507 l 279 0 l 113 0 l 113 960 l 344 960 l 679 182 q 663 328 671 238 q 654 510 654 419 l 654 960 l 821 960 l 821 0 m 476 1282 q 558 1251 526 1282 q 589 1174 589 1219 q 558 1097 589 1128 q 476 1067 526 1067 q 397 1097 428 1067 q 365 1174 365 1128 q 397 1251 365 1219 q 476 1282 428 1282 z "},"Ṇ":{"ha":933,"x_min":113,"x_max":821,"o":"m 821 0 l 583 0 l 254 776 q 273 590 267 674 q 279 392 279 507 l 279 0 l 113 0 l 113 960 l 344 960 l 679 182 q 663 328 671 238 q 654 510 654 419 l 654 960 l 821 960 l 821 0 m 468 -307 q 387 -276 418 -307 q 356 -199 356 -244 q 387 -122 356 -153 q 468 -92 418 -92 q 548 -122 517 -92 q 579 -199 579 -153 q 548 -276 579 -244 q 468 -307 517 -307 z "},"Ǹ":{"ha":933,"x_min":113,"x_max":821,"o":"m 821 0 l 583 0 l 254 776 q 273 590 267 674 q 279 392 279 507 l 279 0 l 113 0 l 113 960 l 344 960 l 679 182 q 663 328 671 238 q 654 510 654 419 l 654 960 l 821 960 l 821 0 m 357 1300 l 651 1138 l 606 1046 l 288 1161 l 357 1300 z "},"Ŋ":{"ha":933,"x_min":113,"x_max":821,"o":"m 821 960 l 821 -60 q 755 -241 821 -179 q 574 -303 689 -303 q 394 -246 469 -303 l 458 -135 q 507 -157 486 -150 q 557 -164 528 -164 q 638 -71 638 -164 l 638 0 l 583 0 l 254 776 q 273 590 267 674 q 279 392 279 507 l 279 0 l 113 0 l 113 960 l 344 960 l 679 182 q 663 328 671 238 q 654 510 654 419 l 654 960 l 821 960 z "},"Ɲ":{"ha":933,"x_min":-135,"x_max":821,"o":"m 821 960 l 821 0 l 583 0 l 254 776 q 273 590 267 674 q 279 392 279 507 l 279 -61 q 216 -241 279 -179 q 46 -303 153 -303 q -135 -246 -60 -303 l -71 -137 q -23 -161 -44 -154 q 29 -168 -1 -168 q 113 -75 113 -168 l 113 960 l 344 960 l 679 182 q 663 328 671 238 q 654 510 654 419 l 654 960 l 821 960 z "},"ǋ":{"ha":1324,"x_min":113,"x_max":1239,"o":"m 821 0 l 583 0 l 254 776 q 273 590 267 674 q 279 392 279 507 l 279 0 l 113 0 l 113 960 l 344 960 l 679 182 q 663 328 671 238 q 654 510 654 419 l 654 960 l 821 960 l 821 0 m 1217 65 q 1185 -112 1217 -43 q 1097 -222 1154 -181 q 949 -301 1040 -264 l 892 -172 q 976 -123 946 -147 q 1023 -57 1007 -99 q 1039 54 1039 -15 l 1039 735 l 1217 735 l 1217 65 m 1126 1107 q 1208 1076 1176 1107 q 1239 999 1239 1044 q 1208 922 1239 953 q 1126 892 1176 892 q 1047 922 1078 892 q 1015 999 1015 953 q 1047 1076 1015 1044 q 1126 1107 1078 1107 z "},"Ƞ":{"ha":919,"x_min":113,"x_max":817,"o":"m 564 981 q 752 908 688 981 q 817 718 817 835 l 817 -286 l 632 -286 l 632 686 q 603 801 632 764 q 508 839 574 839 q 398 813 444 839 q 296 729 351 786 l 296 0 l 113 0 l 113 960 l 272 960 l 288 857 q 413 949 347 918 q 564 981 478 981 z "},"Ñ":{"ha":933,"x_min":113,"x_max":821,"o":"m 821 0 l 583 0 l 254 776 q 273 590 267 674 q 279 392 279 507 l 279 0 l 113 0 l 113 960 l 344 960 l 679 182 q 663 328 671 238 q 654 510 654 419 l 654 960 l 821 960 l 821 0 m 558 1069 q 508 1080 529 1069 q 458 1108 486 1090 q 425 1128 438 1122 q 399 1135 413 1135 q 359 1120 375 1135 q 325 1072 343 1106 l 229 1119 q 299 1224 257 1185 q 396 1264 340 1264 q 448 1254 426 1264 q 499 1226 469 1244 q 530 1206 517 1213 q 557 1200 543 1200 q 594 1214 578 1200 q 631 1260 611 1228 l 725 1213 q 654 1108 697 1146 q 558 1069 611 1069 z "},"O":{"ha":960,"x_min":60,"x_max":900,"o":"m 481 981 q 704 922 610 981 q 849 751 799 864 q 900 481 900 639 q 849 211 900 324 q 703 39 797 99 q 481 -21 608 -21 q 257 38 351 -21 q 111 208 163 96 q 60 479 60 321 q 111 748 60 635 q 258 921 163 861 q 481 981 353 981 m 481 840 q 311 753 369 840 q 253 479 253 667 q 481 119 253 119 q 649 206 592 119 q 707 481 707 292 q 649 754 707 668 q 481 840 592 840 z "},"Ȣ":{"ha":904,"x_min":60,"x_max":844,"o":"m 661 550 q 797 452 750 517 q 844 297 844 388 q 797 140 844 213 q 661 23 750 67 q 453 -21 572 -21 q 244 22 333 -21 q 107 138 154 65 q 60 296 60 210 q 107 447 60 382 q 243 547 154 513 q 119 763 119 614 l 119 960 l 303 960 l 303 760 q 338 646 303 686 q 453 606 372 606 q 568 648 533 606 q 603 760 603 690 l 603 960 l 789 960 l 789 763 q 756 639 789 693 q 661 550 724 585 m 453 119 q 602 165 553 119 q 651 299 651 211 q 601 424 651 379 q 453 469 551 469 q 303 424 354 469 q 253 297 253 379 q 304 165 253 211 q 453 119 356 119 z "},"Ó":{"ha":960,"x_min":60,"x_max":900,"o":"m 481 981 q 704 922 610 981 q 849 751 799 864 q 900 481 900 639 q 849 211 900 324 q 703 39 797 99 q 481 -21 608 -21 q 257 38 351 -21 q 111 208 163 96 q 60 479 60 321 q 111 748 60 635 q 258 921 163 861 q 481 981 353 981 m 481 840 q 311 753 369 840 q 253 479 253 667 q 481 119 253 119 q 649 206 592 119 q 707 481 707 292 q 649 754 707 668 q 481 840 592 840 m 593 1300 l 663 1161 l 344 1046 l 299 1138 l 593 1300 z "},"Ŏ":{"ha":960,"x_min":60,"x_max":900,"o":"m 481 981 q 704 922 610 981 q 849 751 799 864 q 900 481 900 639 q 849 211 900 324 q 703 39 797 99 q 481 -21 608 -21 q 257 38 351 -21 q 111 208 163 96 q 60 479 60 321 q 111 748 60 635 q 258 921 163 861 q 481 981 353 981 m 481 840 q 311 753 369 840 q 253 479 253 667 q 481 119 253 119 q 649 206 592 119 q 707 481 707 292 q 649 754 707 668 q 481 840 592 840 m 479 1047 q 324 1104 385 1047 q 254 1247 263 1161 l 358 1268 q 403 1200 372 1225 q 479 1175 433 1175 q 557 1200 525 1175 q 601 1268 589 1225 l 707 1247 q 637 1104 699 1161 q 479 1047 575 1047 z "},"Ǒ":{"ha":960,"x_min":60,"x_max":900,"o":"m 481 981 q 704 922 610 981 q 849 751 799 864 q 900 481 900 639 q 849 211 900 324 q 703 39 797 99 q 481 -21 608 -21 q 257 38 351 -21 q 111 208 163 96 q 60 479 60 321 q 111 748 60 635 q 258 921 163 861 q 481 981 353 981 m 481 840 q 311 753 369 840 q 253 479 253 667 q 481 119 253 119 q 649 206 592 119 q 707 481 707 292 q 649 754 707 668 q 481 840 592 840 m 661 1289 l 729 1211 l 536 1044 l 425 1044 l 232 1211 l 300 1289 l 481 1174 l 661 1289 z "},"Ɵ":{"ha":960,"x_min":60,"x_max":900,"o":"m 481 981 q 704 922 610 981 q 849 751 799 864 q 900 481 900 639 q 849 211 900 324 q 703 39 797 99 q 481 -21 608 -21 q 257 38 351 -21 q 111 208 163 96 q 60 479 60 321 q 111 748 60 635 q 258 921 163 861 q 481 981 353 981 m 481 840 q 250 544 269 840 l 711 544 q 481 840 692 840 m 481 119 q 711 431 696 119 l 249 431 q 317 194 257 269 q 481 119 378 119 z "},"Ô":{"ha":960,"x_min":60,"x_max":900,"o":"m 481 981 q 704 922 610 981 q 849 751 799 864 q 900 481 900 639 q 849 211 900 324 q 703 39 797 99 q 481 -21 608 -21 q 257 38 351 -21 q 111 208 163 96 q 60 479 60 321 q 111 748 60 635 q 258 921 163 861 q 481 981 353 981 m 481 840 q 311 753 369 840 q 253 479 253 667 q 481 119 253 119 q 649 206 592 119 q 707 481 707 292 q 649 754 707 668 q 481 840 592 840 m 299 1051 l 231 1128 l 424 1296 l 535 1296 l 728 1128 l 660 1051 l 479 1165 l 299 1051 z "},"Ố":{"ha":960,"x_min":60,"x_max":900,"o":"m 481 981 q 704 922 610 981 q 849 751 799 864 q 900 481 900 639 q 849 211 900 324 q 703 39 797 99 q 481 -21 608 -21 q 257 38 351 -21 q 111 208 163 96 q 60 479 60 321 q 111 748 60 635 q 258 921 163 861 q 481 981 353 981 m 481 840 q 311 753 369 840 q 253 479 253 667 q 481 119 253 119 q 649 206 592 119 q 707 481 707 292 q 649 754 707 668 q 481 840 592 840 m 299 999 l 231 1075 l 424 1243 l 535 1243 l 728 1075 l 660 999 l 479 1113 l 299 999 m 789 1472 l 890 1375 l 685 1189 l 615 1251 l 789 1472 z "},"Ộ":{"ha":960,"x_min":60,"x_max":900,"o":"m 481 981 q 704 922 610 981 q 849 751 799 864 q 900 481 900 639 q 849 211 900 324 q 703 39 797 99 q 481 -21 608 -21 q 257 38 351 -21 q 111 208 163 96 q 60 479 60 321 q 111 748 60 635 q 258 921 163 861 q 481 981 353 981 m 481 840 q 311 753 369 840 q 253 479 253 667 q 481 119 253 119 q 649 206 592 119 q 707 481 707 292 q 649 754 707 668 q 481 840 592 840 m 299 1051 l 231 1128 l 424 1296 l 535 1296 l 728 1128 l 660 1051 l 479 1165 l 299 1051 m 481 -307 q 399 -276 431 -307 q 368 -199 368 -244 q 399 -122 368 -153 q 481 -92 431 -92 q 560 -122 529 -92 q 592 -199 592 -153 q 560 -276 592 -244 q 481 -307 529 -307 z "},"Ồ":{"ha":960,"x_min":60,"x_max":900,"o":"m 481 981 q 704 922 610 981 q 849 751 799 864 q 900 481 900 639 q 849 211 900 324 q 703 39 797 99 q 481 -21 608 -21 q 257 38 351 -21 q 111 208 163 96 q 60 479 60 321 q 111 748 60 635 q 258 921 163 861 q 481 981 353 981 m 481 840 q 311 753 369 840 q 253 479 253 667 q 481 119 253 119 q 649 206 592 119 q 707 481 707 292 q 649 754 707 668 q 481 840 592 840 m 297 999 l 229 1075 l 422 1243 l 533 1243 l 726 1075 l 658 999 l 478 1113 l 297 999 m 168 1472 l 343 1251 l 274 1189 l 68 1375 l 168 1472 z "},"Ổ":{"ha":960,"x_min":60,"x_max":900,"o":"m 481 981 q 704 922 610 981 q 849 751 799 864 q 900 481 900 639 q 849 211 900 324 q 703 39 797 99 q 481 -21 608 -21 q 257 38 351 -21 q 111 208 163 96 q 60 479 60 321 q 111 748 60 635 q 258 921 163 861 q 481 981 353 981 m 481 840 q 311 753 369 840 q 253 479 253 667 q 481 119 253 119 q 649 206 592 119 q 707 481 707 292 q 649 754 707 668 q 481 840 592 840 m 297 999 l 229 1075 l 422 1243 l 533 1243 l 726 1075 l 658 999 l 478 1113 l 297 999 m 646 1285 q 722 1302 699 1290 q 744 1342 744 1314 q 728 1376 744 1364 q 686 1388 713 1388 q 604 1369 647 1388 l 571 1451 q 713 1486 631 1486 q 833 1449 790 1486 q 875 1350 875 1413 q 845 1267 875 1299 q 760 1226 815 1236 l 760 1164 l 646 1164 l 646 1285 z "},"Ỗ":{"ha":960,"x_min":60,"x_max":900,"o":"m 481 981 q 704 922 610 981 q 849 751 799 864 q 900 481 900 639 q 849 211 900 324 q 703 39 797 99 q 481 -21 608 -21 q 257 38 351 -21 q 111 208 163 96 q 60 479 60 321 q 111 748 60 635 q 258 921 163 861 q 481 981 353 981 m 481 840 q 311 753 369 840 q 253 479 253 667 q 481 119 253 119 q 649 206 592 119 q 707 481 707 292 q 649 754 707 668 q 481 840 592 840 m 296 999 l 228 1075 l 421 1243 l 532 1243 l 725 1075 l 657 999 l 476 1113 l 296 999 m 558 1281 q 509 1290 531 1281 q 458 1318 488 1300 q 425 1338 438 1332 q 399 1344 413 1344 q 359 1330 375 1344 q 325 1283 343 1315 l 229 1329 q 299 1430 257 1392 q 396 1468 340 1468 q 449 1459 426 1468 q 499 1432 471 1450 q 557 1407 533 1407 q 594 1420 578 1407 q 631 1464 611 1433 l 725 1419 q 654 1318 697 1356 q 558 1281 611 1281 z "},"Ȍ":{"ha":960,"x_min":60,"x_max":900,"o":"m 481 981 q 704 922 610 981 q 849 751 799 864 q 900 481 900 639 q 849 211 900 324 q 703 39 797 99 q 481 -21 608 -21 q 257 38 351 -21 q 111 208 163 96 q 60 479 60 321 q 111 748 60 635 q 258 921 163 861 q 481 981 353 981 m 481 840 q 311 753 369 840 q 253 479 253 667 q 481 119 253 119 q 649 206 592 119 q 707 481 707 292 q 649 754 707 668 q 481 840 592 840 m 304 1351 l 432 1093 l 333 1049 l 175 1285 l 304 1351 m 533 1351 l 649 1097 l 549 1056 l 403 1288 l 533 1351 z "},"Ö":{"ha":960,"x_min":60,"x_max":900,"o":"m 481 981 q 704 922 610 981 q 849 751 799 864 q 900 481 900 639 q 849 211 900 324 q 703 39 797 99 q 481 -21 608 -21 q 257 38 351 -21 q 111 208 163 96 q 60 479 60 321 q 111 748 60 635 q 258 921 163 861 q 481 981 353 981 m 481 840 q 311 753 369 840 q 253 479 253 667 q 481 119 253 119 q 649 206 592 119 q 707 481 707 292 q 649 754 707 668 q 481 840 592 840 m 326 1265 q 394 1238 367 1265 q 422 1169 422 1210 q 394 1101 422 1129 q 326 1074 367 1074 q 256 1101 285 1074 q 228 1169 228 1129 q 256 1238 228 1210 q 326 1265 285 1265 m 633 1265 q 703 1238 675 1265 q 731 1169 731 1210 q 703 1101 731 1129 q 633 1074 675 1074 q 565 1101 593 1074 q 536 1169 536 1129 q 565 1238 536 1210 q 633 1265 593 1265 z "},"Ȫ":{"ha":960,"x_min":60,"x_max":900,"o":"m 481 981 q 704 922 610 981 q 849 751 799 864 q 900 481 900 639 q 849 211 900 324 q 703 39 797 99 q 481 -21 608 -21 q 257 38 351 -21 q 111 208 163 96 q 60 479 60 321 q 111 748 60 635 q 258 921 163 861 q 481 981 353 981 m 481 840 q 311 753 369 840 q 253 479 253 667 q 481 119 253 119 q 649 206 592 119 q 707 481 707 292 q 649 754 707 668 q 481 840 592 840 m 326 1228 q 394 1200 367 1228 q 422 1132 422 1172 q 394 1064 422 1092 q 326 1036 367 1036 q 256 1064 285 1036 q 228 1132 228 1092 q 256 1200 228 1172 q 326 1228 285 1228 m 633 1228 q 703 1200 675 1228 q 731 1132 731 1172 q 703 1064 731 1092 q 633 1036 675 1036 q 565 1064 593 1036 q 536 1132 536 1092 q 565 1200 536 1172 q 633 1228 593 1228 m 686 1283 l 282 1283 l 282 1410 l 686 1410 l 686 1283 z "},"Ȯ":{"ha":960,"x_min":60,"x_max":900,"o":"m 481 981 q 704 922 610 981 q 849 751 799 864 q 900 481 900 639 q 849 211 900 324 q 703 39 797 99 q 481 -21 608 -21 q 257 38 351 -21 q 111 208 163 96 q 60 479 60 321 q 111 748 60 635 q 258 921 163 861 q 481 981 353 981 m 481 840 q 311 753 369 840 q 253 479 253 667 q 481 119 253 119 q 649 206 592 119 q 707 481 707 292 q 649 754 707 668 q 481 840 592 840 m 479 1282 q 560 1251 529 1282 q 592 1174 592 1219 q 560 1097 592 1128 q 479 1067 529 1067 q 399 1097 431 1067 q 368 1174 368 1128 q 399 1251 368 1219 q 479 1282 431 1282 z "},"Ȱ":{"ha":960,"x_min":60,"x_max":900,"o":"m 481 981 q 704 922 610 981 q 849 751 799 864 q 900 481 900 639 q 849 211 900 324 q 703 39 797 99 q 481 -21 608 -21 q 257 38 351 -21 q 111 208 163 96 q 60 479 60 321 q 111 748 60 635 q 258 921 163 861 q 481 981 353 981 m 481 840 q 311 753 369 840 q 253 479 253 667 q 481 119 253 119 q 649 206 592 119 q 707 481 707 292 q 649 754 707 668 q 481 840 592 840 m 481 1240 q 562 1209 531 1240 q 593 1132 593 1178 q 562 1056 593 1086 q 481 1025 531 1025 q 401 1056 432 1025 q 369 1132 369 1086 q 401 1209 369 1178 q 481 1240 432 1240 m 686 1283 l 282 1283 l 282 1410 l 686 1410 l 686 1283 z "},"Ọ":{"ha":960,"x_min":60,"x_max":900,"o":"m 481 981 q 704 922 610 981 q 849 751 799 864 q 900 481 900 639 q 849 211 900 324 q 703 39 797 99 q 481 -21 608 -21 q 257 38 351 -21 q 111 208 163 96 q 60 479 60 321 q 111 748 60 635 q 258 921 163 861 q 481 981 353 981 m 481 840 q 311 753 369 840 q 253 479 253 667 q 481 119 253 119 q 649 206 592 119 q 707 481 707 292 q 649 754 707 668 q 481 840 592 840 m 481 -307 q 399 -276 431 -307 q 368 -199 368 -244 q 399 -122 368 -153 q 481 -92 431 -92 q 560 -122 529 -92 q 592 -199 592 -153 q 560 -276 592 -244 q 481 -307 529 -307 z "},"Ò":{"ha":960,"x_min":60,"x_max":900,"o":"m 481 981 q 704 922 610 981 q 849 751 799 864 q 900 481 900 639 q 849 211 900 324 q 703 39 797 99 q 481 -21 608 -21 q 257 38 351 -21 q 111 208 163 96 q 60 479 60 321 q 111 748 60 635 q 258 921 163 861 q 481 981 353 981 m 481 840 q 311 753 369 840 q 253 479 253 667 q 481 119 253 119 q 649 206 592 119 q 707 481 707 292 q 649 754 707 668 q 481 840 592 840 m 360 1300 l 654 1138 l 608 1046 l 290 1161 l 360 1300 z "},"Ỏ":{"ha":960,"x_min":60,"x_max":900,"o":"m 481 981 q 704 922 610 981 q 849 751 799 864 q 900 481 900 639 q 849 211 900 324 q 703 39 797 99 q 481 -21 608 -21 q 257 38 351 -21 q 111 208 163 96 q 60 479 60 321 q 111 748 60 635 q 258 921 163 861 q 481 981 353 981 m 481 840 q 311 753 369 840 q 253 479 253 667 q 481 119 253 119 q 649 206 592 119 q 707 481 707 292 q 649 754 707 668 q 481 840 592 840 m 424 1181 q 499 1198 476 1186 q 522 1238 522 1210 q 506 1272 522 1260 q 464 1283 490 1283 q 382 1265 425 1283 l 349 1347 q 490 1382 408 1382 q 610 1345 568 1382 q 653 1246 653 1308 q 623 1163 653 1194 q 538 1122 593 1132 l 538 1060 l 424 1060 l 424 1181 z "},"Ơ":{"ha":986,"x_min":60,"x_max":960,"o":"m 960 956 q 826 796 960 824 q 900 481 900 671 q 849 211 900 324 q 703 39 797 99 q 481 -21 608 -21 q 257 38 351 -21 q 111 208 163 96 q 60 479 60 321 q 111 748 60 635 q 258 921 163 861 q 481 981 353 981 q 758 881 650 981 q 813 904 796 886 q 829 956 829 922 q 824 1007 829 986 q 810 1053 819 1028 l 933 1074 q 960 956 960 1024 m 481 119 q 649 206 592 119 q 707 481 707 292 q 649 754 707 668 q 481 840 592 840 q 311 753 369 840 q 253 479 253 667 q 481 119 253 119 z "},"Ớ":{"ha":986,"x_min":60,"x_max":960,"o":"m 663 1161 l 344 1046 l 299 1138 l 593 1300 l 663 1161 m 960 956 q 826 796 960 824 q 900 481 900 671 q 849 211 900 324 q 703 39 797 99 q 481 -21 608 -21 q 257 38 351 -21 q 111 208 163 96 q 60 479 60 321 q 111 748 60 635 q 258 921 163 861 q 481 981 353 981 q 758 881 650 981 q 813 904 796 886 q 829 956 829 922 q 824 1007 829 986 q 810 1053 819 1028 l 933 1074 q 960 956 960 1024 m 481 119 q 649 206 592 119 q 707 481 707 292 q 649 754 707 668 q 481 840 592 840 q 311 753 369 840 q 253 479 253 667 q 481 119 253 119 z "},"Ợ":{"ha":986,"x_min":60,"x_max":960,"o":"m 960 956 q 826 796 960 824 q 900 481 900 671 q 849 211 900 324 q 703 39 797 99 q 481 -21 608 -21 q 257 38 351 -21 q 111 208 163 96 q 60 479 60 321 q 111 748 60 635 q 258 921 163 861 q 481 981 353 981 q 758 881 650 981 q 813 904 796 886 q 829 956 829 922 q 824 1007 829 986 q 810 1053 819 1028 l 933 1074 q 960 956 960 1024 m 481 119 q 649 206 592 119 q 707 481 707 292 q 649 754 707 668 q 481 840 592 840 q 311 753 369 840 q 253 479 253 667 q 481 119 253 119 m 481 -92 q 560 -122 529 -92 q 592 -199 592 -153 q 560 -276 592 -244 q 481 -307 529 -307 q 399 -276 431 -307 q 368 -199 368 -244 q 399 -122 368 -153 q 481 -92 431 -92 z "},"Ờ":{"ha":986,"x_min":60,"x_max":960,"o":"m 654 1138 l 608 1046 l 290 1161 l 360 1300 l 654 1138 m 960 956 q 826 796 960 824 q 900 481 900 671 q 849 211 900 324 q 703 39 797 99 q 481 -21 608 -21 q 257 38 351 -21 q 111 208 163 96 q 60 479 60 321 q 111 748 60 635 q 258 921 163 861 q 481 981 353 981 q 758 881 650 981 q 813 904 796 886 q 829 956 829 922 q 824 1007 829 986 q 810 1053 819 1028 l 933 1074 q 960 956 960 1024 m 481 119 q 649 206 592 119 q 707 481 707 292 q 649 754 707 668 q 481 840 592 840 q 311 753 369 840 q 253 479 253 667 q 481 119 253 119 z "},"Ở":{"ha":986,"x_min":60,"x_max":960,"o":"m 464 1283 q 382 1265 425 1283 l 349 1347 q 490 1382 408 1382 q 610 1345 568 1382 q 653 1246 653 1308 q 623 1163 653 1194 q 538 1122 593 1132 l 538 1060 l 424 1060 l 424 1181 q 499 1198 476 1186 q 522 1238 522 1210 q 506 1272 522 1260 q 464 1283 490 1283 m 960 956 q 826 796 960 824 q 900 481 900 671 q 849 211 900 324 q 703 39 797 99 q 481 -21 608 -21 q 257 38 351 -21 q 111 208 163 96 q 60 479 60 321 q 111 748 60 635 q 258 921 163 861 q 481 981 353 981 q 758 881 650 981 q 813 904 796 886 q 829 956 829 922 q 824 1007 829 986 q 810 1053 819 1028 l 933 1074 q 960 956 960 1024 m 481 119 q 649 206 592 119 q 707 481 707 292 q 649 754 707 668 q 481 840 592 840 q 311 753 369 840 q 253 479 253 667 q 481 119 253 119 z "},"Ỡ":{"ha":986,"x_min":60,"x_max":960,"o":"m 401 1135 q 362 1120 378 1135 q 328 1072 346 1106 l 232 1119 q 301 1224 260 1185 q 399 1264 343 1264 q 451 1254 429 1264 q 501 1226 472 1244 q 533 1206 519 1213 q 560 1200 546 1200 q 597 1214 581 1200 q 633 1260 614 1228 l 728 1213 q 657 1108 700 1146 q 561 1069 614 1069 q 510 1080 532 1069 q 461 1108 489 1090 q 428 1128 440 1122 q 401 1135 415 1135 m 960 956 q 826 796 960 824 q 900 481 900 671 q 849 211 900 324 q 703 39 797 99 q 481 -21 608 -21 q 257 38 351 -21 q 111 208 163 96 q 60 479 60 321 q 111 748 60 635 q 258 921 163 861 q 481 981 353 981 q 758 881 650 981 q 813 904 796 886 q 829 956 829 922 q 824 1007 829 986 q 810 1053 819 1028 l 933 1074 q 960 956 960 1024 m 481 119 q 649 206 592 119 q 707 481 707 292 q 649 754 707 668 q 481 840 592 840 q 311 753 369 840 q 253 479 253 667 q 481 119 253 119 z "},"Ő":{"ha":960,"x_min":60,"x_max":900,"o":"m 481 981 q 704 922 610 981 q 849 751 799 864 q 900 481 900 639 q 849 211 900 324 q 703 39 797 99 q 481 -21 608 -21 q 257 38 351 -21 q 111 208 163 96 q 60 479 60 321 q 111 748 60 635 q 258 921 163 861 q 481 981 353 981 m 481 840 q 311 753 369 840 q 253 479 253 667 q 481 119 253 119 q 649 206 592 119 q 707 481 707 292 q 649 754 707 668 q 481 840 592 840 m 424 1351 l 554 1288 l 408 1056 l 308 1097 l 424 1351 m 653 1351 l 782 1285 l 622 1049 l 525 1093 l 653 1351 z "},"Ƣ":{"ha":1313,"x_min":60,"x_max":1200,"o":"m 943 982 q 1133 919 1067 982 q 1200 736 1200 856 l 1200 -286 l 1015 -286 l 1015 743 q 924 849 1015 849 q 865 842 892 849 q 807 819 838 835 q 900 481 900 690 q 849 211 900 324 q 703 39 797 99 q 481 -21 608 -21 q 257 38 351 -21 q 111 208 163 96 q 60 479 60 321 q 111 748 60 635 q 258 921 163 861 q 481 981 353 981 q 719 908 618 981 q 827 964 774 946 q 943 982 881 982 m 481 119 q 649 206 592 119 q 707 481 707 292 q 649 754 707 668 q 481 840 592 840 q 311 753 369 840 q 253 479 253 667 q 481 119 253 119 z "},"Ȏ":{"ha":960,"x_min":60,"x_max":900,"o":"m 481 981 q 704 922 610 981 q 849 751 799 864 q 900 481 900 639 q 849 211 900 324 q 703 39 797 99 q 481 -21 608 -21 q 257 38 351 -21 q 111 208 163 96 q 60 479 60 321 q 111 748 60 635 q 258 921 163 861 q 481 981 353 981 m 481 840 q 311 753 369 840 q 253 479 253 667 q 481 119 253 119 q 649 206 592 119 q 707 481 707 292 q 649 754 707 668 q 481 840 592 840 m 479 1303 q 637 1243 575 1303 q 707 1088 699 1183 l 601 1068 q 558 1147 589 1119 q 479 1175 526 1175 q 358 1068 386 1175 l 254 1088 q 323 1243 263 1183 q 479 1303 383 1303 z "},"Ō":{"ha":960,"x_min":60,"x_max":900,"o":"m 481 981 q 704 922 610 981 q 849 751 799 864 q 900 481 900 639 q 849 211 900 324 q 703 39 797 99 q 481 -21 608 -21 q 257 38 351 -21 q 111 208 163 96 q 60 479 60 321 q 111 748 60 635 q 258 921 163 861 q 481 981 353 981 m 481 840 q 311 753 369 840 q 253 479 253 667 q 481 119 253 119 q 649 206 592 119 q 707 481 707 292 q 649 754 707 668 q 481 840 592 840 m 682 1093 l 278 1093 l 278 1219 l 682 1219 l 682 1093 z "},"Ṓ":{"ha":960,"x_min":60,"x_max":900,"o":"m 481 981 q 704 922 610 981 q 849 751 799 864 q 900 481 900 639 q 849 211 900 324 q 703 39 797 99 q 481 -21 608 -21 q 257 38 351 -21 q 111 208 163 96 q 60 479 60 321 q 111 748 60 635 q 258 921 163 861 q 481 981 353 981 m 481 840 q 311 753 369 840 q 253 479 253 667 q 481 119 253 119 q 649 206 592 119 q 707 481 707 292 q 649 754 707 668 q 481 840 592 840 m 682 1056 l 278 1056 l 278 1182 l 682 1182 l 682 1056 m 594 1489 l 664 1350 l 346 1235 l 300 1326 l 594 1489 z "},"Ṑ":{"ha":960,"x_min":60,"x_max":900,"o":"m 361 1507 l 656 1344 l 610 1253 l 292 1368 l 361 1507 m 682 1056 l 278 1056 l 278 1182 l 682 1182 l 682 1056 m 481 981 q 704 922 610 981 q 849 751 799 864 q 900 481 900 639 q 849 211 900 324 q 703 39 797 99 q 481 -21 608 -21 q 257 38 351 -21 q 111 208 163 96 q 60 479 60 321 q 111 748 60 635 q 258 921 163 861 q 481 981 353 981 m 481 840 q 311 753 369 840 q 253 479 253 667 q 481 119 253 119 q 649 206 592 119 q 707 481 707 292 q 649 754 707 668 q 481 840 592 840 z "},"Ꞷ":{"ha":1200,"x_min":74,"x_max":1126,"o":"m 1018 960 q 1097 724 1067 851 q 1126 418 1126 596 q 821 -21 1126 -21 q 597 147 643 -21 q 519 22 575 64 q 378 -21 464 -21 q 151 83 228 -21 q 74 418 74 188 q 103 722 74 596 q 182 960 133 849 l 356 960 q 283 710 307 832 q 258 426 258 589 q 272 246 258 313 q 316 149 286 179 q 397 119 346 119 q 507 260 507 119 l 507 553 l 688 553 l 688 260 q 717 152 688 185 q 803 119 746 119 q 908 185 872 119 q 943 424 943 251 q 917 708 943 586 q 840 960 892 831 l 1018 960 z "},"Ǫ":{"ha":960,"x_min":60,"x_max":900,"o":"m 900 481 q 826 167 900 292 q 621 0 753 43 q 489 -75 525 -39 q 453 -150 453 -111 q 529 -214 453 -214 q 614 -204 567 -214 l 600 -322 q 507 -332 549 -332 q 369 -290 422 -332 q 317 -181 317 -249 q 414 -17 317 -83 q 153 134 247 6 q 60 479 60 263 q 111 748 60 635 q 258 921 163 861 q 481 981 353 981 q 704 922 610 981 q 849 751 799 864 q 900 481 900 639 m 481 119 q 649 206 592 119 q 707 481 707 292 q 649 754 707 668 q 481 840 592 840 q 311 753 369 840 q 253 479 253 667 q 481 119 253 119 z "},"Ǭ":{"ha":960,"x_min":60,"x_max":900,"o":"m 682 1219 l 682 1093 l 278 1093 l 278 1219 l 682 1219 m 900 481 q 826 167 900 292 q 621 0 753 43 q 489 -75 525 -39 q 453 -150 453 -111 q 529 -214 453 -214 q 614 -204 567 -214 l 600 -322 q 507 -332 549 -332 q 369 -290 422 -332 q 317 -181 317 -249 q 414 -17 317 -83 q 153 134 247 6 q 60 479 60 263 q 111 748 60 635 q 258 921 163 861 q 481 981 353 981 q 704 922 610 981 q 849 751 799 864 q 900 481 900 639 m 481 119 q 649 206 592 119 q 707 481 707 292 q 649 754 707 668 q 481 840 592 840 q 311 753 369 840 q 253 479 253 667 q 481 119 253 119 z "},"Ɔ":{"ha":789,"x_min":18,"x_max":729,"o":"m 335 981 q 543 923 454 981 q 681 753 632 865 q 729 482 729 640 q 676 209 729 322 q 529 38 624 96 q 310 -21 435 -21 q 18 96 143 -21 l 106 203 q 201 146 157 165 q 301 126 244 126 q 473 213 410 126 q 536 482 536 299 q 478 754 536 669 q 324 839 421 839 q 119 771 217 839 l 29 879 q 167 956 94 931 q 335 981 240 981 z "},"Ø":{"ha":960,"x_min":60,"x_max":900,"o":"m 697 926 q 847 756 794 869 q 900 481 900 642 q 849 211 900 324 q 703 39 797 99 q 481 -21 608 -21 q 400 -14 444 -21 l 350 -182 l 207 -144 l 264 33 q 113 205 165 92 q 60 479 60 318 q 111 748 60 635 q 258 921 163 861 q 481 981 353 981 q 558 975 525 981 l 610 1144 l 754 1106 l 697 926 m 481 840 q 311 753 369 840 q 253 479 253 667 q 333 171 253 249 l 533 836 q 481 840 508 840 m 481 119 q 649 206 592 119 q 707 481 707 292 q 687 678 707 603 q 625 792 667 754 l 426 124 q 481 119 451 119 z "},"Ǿ":{"ha":960,"x_min":60,"x_max":900,"o":"m 697 926 q 847 756 794 869 q 900 481 900 642 q 849 211 900 324 q 703 39 797 99 q 481 -21 608 -21 q 400 -14 444 -21 l 350 -182 l 207 -144 l 264 33 q 113 205 165 92 q 60 479 60 318 q 111 748 60 635 q 258 921 163 861 q 481 981 353 981 q 558 975 525 981 l 610 1144 l 754 1106 l 697 926 m 481 840 q 311 753 369 840 q 253 479 253 667 q 333 171 253 249 l 533 836 q 481 840 508 840 m 481 119 q 649 206 592 119 q 707 481 707 292 q 687 678 707 603 q 625 792 667 754 l 426 124 q 481 119 451 119 m 588 1336 l 657 1197 l 339 1082 l 293 1174 l 588 1336 z "},"Õ":{"ha":960,"x_min":60,"x_max":900,"o":"m 481 981 q 704 922 610 981 q 849 751 799 864 q 900 481 900 639 q 849 211 900 324 q 703 39 797 99 q 481 -21 608 -21 q 257 38 351 -21 q 111 208 163 96 q 60 479 60 321 q 111 748 60 635 q 258 921 163 861 q 481 981 353 981 m 481 840 q 311 753 369 840 q 253 479 253 667 q 481 119 253 119 q 649 206 592 119 q 707 481 707 292 q 649 754 707 668 q 481 840 592 840 m 561 1069 q 510 1080 532 1069 q 461 1108 489 1090 q 428 1128 440 1122 q 401 1135 415 1135 q 362 1120 378 1135 q 328 1072 346 1106 l 232 1119 q 301 1224 260 1185 q 399 1264 343 1264 q 451 1254 429 1264 q 501 1226 472 1244 q 533 1206 519 1213 q 560 1200 546 1200 q 597 1214 581 1200 q 633 1260 614 1228 l 728 1213 q 657 1108 700 1146 q 561 1069 614 1069 z "},"Ṍ":{"ha":960,"x_min":60,"x_max":900,"o":"m 481 981 q 704 922 610 981 q 849 751 799 864 q 900 481 900 639 q 849 211 900 324 q 703 39 797 99 q 481 -21 608 -21 q 257 38 351 -21 q 111 208 163 96 q 60 479 60 321 q 111 748 60 635 q 258 921 163 861 q 481 981 353 981 m 481 840 q 311 753 369 840 q 253 479 253 667 q 481 119 253 119 q 649 206 592 119 q 707 481 707 292 q 649 754 707 668 q 481 840 592 840 m 561 1050 q 510 1060 532 1050 q 461 1089 489 1071 q 428 1109 440 1103 q 401 1115 415 1115 q 362 1101 378 1115 q 328 1053 346 1086 l 232 1100 q 301 1205 260 1165 q 399 1244 343 1244 q 451 1235 429 1244 q 501 1207 472 1225 q 533 1187 519 1193 q 560 1181 546 1181 q 597 1194 581 1181 q 633 1240 614 1208 l 728 1193 q 657 1088 700 1126 q 561 1050 614 1050 m 593 1524 l 663 1385 l 344 1269 l 299 1361 l 593 1524 z "},"Ȭ":{"ha":960,"x_min":60,"x_max":900,"o":"m 481 981 q 704 922 610 981 q 849 751 799 864 q 900 481 900 639 q 849 211 900 324 q 703 39 797 99 q 481 -21 608 -21 q 257 38 351 -21 q 111 208 163 96 q 60 479 60 321 q 111 748 60 635 q 258 921 163 861 q 481 981 353 981 m 481 840 q 311 753 369 840 q 253 479 253 667 q 481 119 253 119 q 649 206 592 119 q 707 481 707 292 q 649 754 707 668 q 481 840 592 840 m 561 1050 q 510 1060 532 1050 q 461 1089 489 1071 q 428 1109 440 1103 q 401 1115 415 1115 q 362 1101 378 1115 q 328 1053 346 1086 l 232 1100 q 301 1205 260 1165 q 399 1244 343 1244 q 451 1235 429 1244 q 501 1207 472 1225 q 533 1187 519 1193 q 560 1181 546 1181 q 597 1194 581 1181 q 633 1240 614 1208 l 728 1193 q 657 1088 700 1126 q 561 1050 614 1050 m 682 1290 l 278 1290 l 278 1417 l 682 1417 l 682 1290 z "},"Œ":{"ha":1251,"x_min":60,"x_max":1190,"o":"m 1190 0 l 578 0 q 460 -21 524 -21 q 251 38 342 -21 q 110 209 160 96 q 60 479 60 322 q 110 748 60 635 q 251 921 161 861 q 460 981 342 981 q 583 960 528 981 l 1186 960 l 1165 824 l 765 824 q 868 556 853 721 l 1121 556 l 1121 419 l 869 419 q 758 138 854 246 l 1190 138 l 1190 0 m 253 479 q 310 206 253 293 q 467 119 367 119 q 679 481 679 119 q 467 840 679 840 q 309 753 365 840 q 253 479 253 665 z "},"P":{"ha":821,"x_min":113,"x_max":785,"o":"m 396 960 q 683 883 581 960 q 785 654 785 807 q 682 415 785 494 q 408 335 579 335 l 296 335 l 296 0 l 113 0 l 113 960 l 396 960 m 394 472 q 543 513 493 472 q 593 654 593 554 q 394 825 593 825 l 296 825 l 296 472 l 394 472 z "},"Ṕ":{"ha":821,"x_min":113,"x_max":785,"o":"m 396 960 q 683 883 581 960 q 785 654 785 807 q 682 415 785 494 q 408 335 579 335 l 296 335 l 296 0 l 113 0 l 113 960 l 396 960 m 394 472 q 543 513 493 472 q 593 654 593 554 q 394 825 593 825 l 296 825 l 296 472 l 394 472 m 524 1300 l 593 1161 l 275 1046 l 229 1138 l 524 1300 z "},"Ṗ":{"ha":821,"x_min":113,"x_max":785,"o":"m 396 960 q 683 883 581 960 q 785 654 785 807 q 682 415 785 494 q 408 335 579 335 l 296 335 l 296 0 l 113 0 l 113 960 l 396 960 m 394 472 q 543 513 493 472 q 593 654 593 554 q 394 825 593 825 l 296 825 l 296 472 l 394 472 m 410 1282 q 491 1251 460 1282 q 522 1174 522 1219 q 491 1097 522 1128 q 410 1067 460 1067 q 330 1097 361 1067 q 299 1174 299 1128 q 330 1251 299 1219 q 410 1282 361 1282 z "},"Ƥ":{"ha":981,"x_min":10,"x_max":944,"o":"m 556 960 q 842 883 740 960 q 944 654 944 807 q 842 415 944 494 q 568 335 739 335 l 456 335 l 456 0 l 272 0 l 272 824 l 231 824 q 161 761 161 824 q 167 717 161 738 q 185 665 172 696 l 68 611 q 25 690 40 653 q 10 769 10 726 q 71 908 10 857 q 240 960 132 960 l 556 960 m 554 472 q 703 513 653 472 q 753 654 753 554 q 554 825 753 825 l 456 825 l 456 472 l 554 472 z "},"Þ":{"ha":821,"x_min":113,"x_max":785,"o":"m 396 803 q 683 726 582 803 q 785 493 785 649 q 682 248 785 329 q 408 167 579 167 l 296 167 l 296 0 l 113 0 l 113 960 l 296 960 l 296 803 l 396 803 m 394 304 q 543 347 493 304 q 593 493 593 389 q 542 626 593 585 q 394 668 492 668 l 296 668 l 296 304 l 394 304 z "},"Q":{"ha":960,"x_min":60,"x_max":950,"o":"m 676 58 q 826 36 761 58 q 950 -28 892 14 l 836 -176 q 676 -56 756 -94 q 471 -17 596 -17 q 254 41 347 -17 q 110 210 161 99 q 60 479 60 321 q 111 748 60 635 q 258 921 163 861 q 481 981 353 981 q 704 922 610 981 q 849 751 799 864 q 900 481 900 639 q 841 215 900 315 q 676 58 782 114 m 253 479 q 481 119 253 119 q 649 206 592 119 q 707 481 707 292 q 649 754 707 668 q 481 840 592 840 q 311 753 369 840 q 253 479 253 667 z "},"Ɋ":{"ha":932,"x_min":60,"x_max":1063,"o":"m 1063 -246 q 883 -303 988 -303 q 702 -241 768 -303 q 636 -60 636 -179 l 636 60 q 436 -21 556 -21 q 242 35 328 -21 q 108 199 157 90 q 60 461 60 308 q 109 740 60 622 q 244 919 158 857 q 442 981 331 981 q 647 900 560 981 l 656 960 l 819 960 l 819 -71 q 900 -164 819 -164 q 950 -157 929 -164 q 999 -135 971 -150 l 1063 -246 m 467 118 q 636 188 567 118 l 636 775 q 474 840 567 840 q 253 461 253 840 q 467 118 253 118 z "},"R":{"ha":849,"x_min":113,"x_max":836,"o":"m 413 385 l 296 385 l 296 0 l 113 0 l 113 960 l 399 960 q 779 678 779 960 q 732 519 779 582 q 585 418 685 457 l 836 0 l 625 0 l 413 385 m 296 517 l 410 517 q 542 555 497 517 q 588 678 588 593 q 541 791 588 756 q 394 826 494 826 l 296 826 l 296 517 z "},"Ŕ":{"ha":849,"x_min":113,"x_max":836,"o":"m 413 385 l 296 385 l 296 0 l 113 0 l 113 960 l 399 960 q 779 678 779 960 q 732 519 779 582 q 585 418 685 457 l 836 0 l 625 0 l 413 385 m 296 517 l 410 517 q 542 555 497 517 q 588 678 588 593 q 541 791 588 756 q 394 826 494 826 l 296 826 l 296 517 m 529 1300 l 599 1161 l 281 1046 l 235 1138 l 529 1300 z "},"Ř":{"ha":849,"x_min":113,"x_max":836,"o":"m 413 385 l 296 385 l 296 0 l 113 0 l 113 960 l 399 960 q 779 678 779 960 q 732 519 779 582 q 585 418 685 457 l 836 0 l 625 0 l 413 385 m 296 517 l 410 517 q 542 555 497 517 q 588 678 588 593 q 541 791 588 756 q 394 826 494 826 l 296 826 l 296 517 m 597 1289 l 665 1211 l 472 1044 l 361 1044 l 168 1211 l 236 1289 l 417 1174 l 597 1289 z "},"Ŗ":{"ha":849,"x_min":113,"x_max":836,"o":"m 413 385 l 296 385 l 296 0 l 113 0 l 113 960 l 399 960 q 779 678 779 960 q 732 519 779 582 q 585 418 685 457 l 836 0 l 625 0 l 413 385 m 296 517 l 410 517 q 542 555 497 517 q 588 678 588 593 q 541 791 588 756 q 394 826 494 826 l 296 826 l 296 517 m 433 -100 q 501 -127 474 -100 q 529 -194 529 -154 q 522 -240 529 -217 q 492 -307 514 -262 l 431 -433 l 338 -433 l 376 -272 q 336 -194 336 -242 q 364 -127 336 -154 q 433 -100 392 -100 z "},"Ȑ":{"ha":849,"x_min":111,"x_max":836,"o":"m 413 385 l 296 385 l 296 0 l 113 0 l 113 960 l 399 960 q 779 678 779 960 q 732 519 779 582 q 585 418 685 457 l 836 0 l 625 0 l 413 385 m 296 517 l 410 517 q 542 555 497 517 q 588 678 588 593 q 541 791 588 756 q 394 826 494 826 l 296 826 l 296 517 m 240 1351 l 368 1093 l 269 1049 l 111 1285 l 240 1351 m 469 1351 l 585 1097 l 485 1056 l 339 1288 l 469 1351 z "},"Ṛ":{"ha":849,"x_min":113,"x_max":836,"o":"m 413 385 l 296 385 l 296 0 l 113 0 l 113 960 l 399 960 q 779 678 779 960 q 732 519 779 582 q 585 418 685 457 l 836 0 l 625 0 l 413 385 m 296 517 l 410 517 q 542 555 497 517 q 588 678 588 593 q 541 791 588 756 q 394 826 494 826 l 296 826 l 296 517 m 431 -307 q 349 -276 381 -307 q 318 -199 318 -244 q 349 -122 318 -153 q 431 -92 381 -92 q 510 -122 479 -92 q 542 -199 542 -153 q 510 -276 542 -244 q 431 -307 479 -307 z "},"Ȓ":{"ha":849,"x_min":113,"x_max":836,"o":"m 413 385 l 296 385 l 296 0 l 113 0 l 113 960 l 399 960 q 779 678 779 960 q 732 519 779 582 q 585 418 685 457 l 836 0 l 625 0 l 413 385 m 296 517 l 410 517 q 542 555 497 517 q 588 678 588 593 q 541 791 588 756 q 394 826 494 826 l 296 826 l 296 517 m 415 1303 q 573 1243 511 1303 q 643 1088 635 1183 l 538 1068 q 494 1147 525 1119 q 415 1175 463 1175 q 294 1068 322 1175 l 190 1088 q 259 1243 199 1183 q 415 1303 319 1303 z "},"Ɍ":{"ha":867,"x_min":24,"x_max":854,"o":"m 643 0 l 431 385 l 314 385 l 314 0 l 131 0 l 131 385 l 24 385 l 24 517 l 131 517 l 131 960 l 417 960 q 797 678 797 960 q 750 519 797 582 q 603 418 703 457 l 854 0 l 643 0 m 428 517 q 560 555 515 517 q 606 678 606 593 q 559 791 606 756 q 413 826 513 826 l 314 826 l 314 517 l 428 517 z "},"Ɽ":{"ha":849,"x_min":113,"x_max":836,"o":"m 296 -71 q 376 -164 296 -164 q 426 -157 406 -164 q 475 -135 447 -150 l 539 -246 q 360 -303 464 -303 q 178 -241 244 -303 q 113 -60 113 -179 l 113 960 l 399 960 q 779 678 779 960 q 732 519 779 582 q 585 418 685 457 l 836 0 l 625 0 l 413 385 l 296 385 l 296 -71 m 296 826 l 296 517 l 410 517 q 542 555 497 517 q 588 678 588 593 q 541 791 588 756 q 394 826 494 826 l 296 826 z "},"S":{"ha":778,"x_min":24,"x_max":733,"o":"m 389 981 q 565 951 490 981 q 706 863 640 922 l 615 758 q 512 821 564 801 q 400 840 460 840 q 292 810 333 840 q 251 726 251 781 q 267 667 251 690 q 325 622 283 643 q 449 576 367 601 q 662 466 590 532 q 733 274 733 400 q 690 121 733 188 q 564 17 646 54 q 369 -21 482 -21 q 173 15 260 -21 q 24 111 86 50 l 118 217 q 233 145 174 169 q 365 121 293 121 q 493 158 444 121 q 542 264 542 196 q 525 333 542 306 q 468 381 508 360 q 351 426 428 403 q 131 540 199 474 q 63 715 63 607 q 104 854 63 794 q 220 947 146 914 q 389 981 294 981 z "},"Ś":{"ha":778,"x_min":24,"x_max":733,"o":"m 389 981 q 565 951 490 981 q 706 863 640 922 l 615 758 q 512 821 564 801 q 400 840 460 840 q 292 810 333 840 q 251 726 251 781 q 267 667 251 690 q 325 622 283 643 q 449 576 367 601 q 662 466 590 532 q 733 274 733 400 q 690 121 733 188 q 564 17 646 54 q 369 -21 482 -21 q 173 15 260 -21 q 24 111 86 50 l 118 217 q 233 145 174 169 q 365 121 293 121 q 493 158 444 121 q 542 264 542 196 q 525 333 542 306 q 468 381 508 360 q 351 426 428 403 q 131 540 199 474 q 63 715 63 607 q 104 854 63 794 q 220 947 146 914 q 389 981 294 981 m 511 1300 l 581 1161 l 263 1046 l 217 1138 l 511 1300 z "},"Ꞌ":{"ha":332,"x_min":74,"x_max":257,"o":"m 97 472 l 74 960 l 257 960 l 233 472 l 97 472 z "},"Š":{"ha":778,"x_min":24,"x_max":733,"o":"m 389 981 q 565 951 490 981 q 706 863 640 922 l 615 758 q 512 821 564 801 q 400 840 460 840 q 292 810 333 840 q 251 726 251 781 q 267 667 251 690 q 325 622 283 643 q 449 576 367 601 q 662 466 590 532 q 733 274 733 400 q 690 121 733 188 q 564 17 646 54 q 369 -21 482 -21 q 173 15 260 -21 q 24 111 86 50 l 118 217 q 233 145 174 169 q 365 121 293 121 q 493 158 444 121 q 542 264 542 196 q 525 333 542 306 q 468 381 508 360 q 351 426 428 403 q 131 540 199 474 q 63 715 63 607 q 104 854 63 794 q 220 947 146 914 q 389 981 294 981 m 579 1289 l 647 1211 l 454 1044 l 343 1044 l 150 1211 l 218 1289 l 399 1174 l 579 1289 z "},"Ş":{"ha":778,"x_min":24,"x_max":733,"o":"m 733 274 q 653 76 733 156 q 433 -18 574 -3 l 433 -72 q 537 -113 503 -79 q 571 -200 571 -147 q 518 -310 571 -269 q 381 -351 465 -351 q 300 -341 338 -351 q 238 -312 263 -331 l 281 -225 q 368 -247 322 -247 q 436 -200 436 -247 q 406 -160 436 -172 q 310 -147 376 -147 l 325 -19 q 24 111 143 -6 l 118 217 q 233 145 174 169 q 365 121 293 121 q 493 158 444 121 q 542 264 542 196 q 525 333 542 306 q 468 381 508 360 q 351 426 428 403 q 131 540 199 474 q 63 715 63 607 q 104 854 63 794 q 220 947 146 914 q 389 981 294 981 q 565 951 490 981 q 706 863 640 922 l 615 758 q 512 821 564 801 q 400 840 460 840 q 292 810 333 840 q 251 726 251 781 q 267 667 251 690 q 325 622 283 643 q 449 576 367 601 q 662 466 590 532 q 733 274 733 400 z "},"Ŝ":{"ha":778,"x_min":24,"x_max":733,"o":"m 389 981 q 565 951 490 981 q 706 863 640 922 l 615 758 q 512 821 564 801 q 400 840 460 840 q 292 810 333 840 q 251 726 251 781 q 267 667 251 690 q 325 622 283 643 q 449 576 367 601 q 662 466 590 532 q 733 274 733 400 q 690 121 733 188 q 564 17 646 54 q 369 -21 482 -21 q 173 15 260 -21 q 24 111 86 50 l 118 217 q 233 145 174 169 q 365 121 293 121 q 493 158 444 121 q 542 264 542 196 q 525 333 542 306 q 468 381 508 360 q 351 426 428 403 q 131 540 199 474 q 63 715 63 607 q 104 854 63 794 q 220 947 146 914 q 389 981 294 981 m 217 1051 l 149 1128 l 342 1296 l 453 1296 l 646 1128 l 578 1051 l 397 1165 l 217 1051 z "},"Ș":{"ha":778,"x_min":24,"x_max":733,"o":"m 389 981 q 565 951 490 981 q 706 863 640 922 l 615 758 q 512 821 564 801 q 400 840 460 840 q 292 810 333 840 q 251 726 251 781 q 267 667 251 690 q 325 622 283 643 q 449 576 367 601 q 662 466 590 532 q 733 274 733 400 q 690 121 733 188 q 564 17 646 54 q 369 -21 482 -21 q 173 15 260 -21 q 24 111 86 50 l 118 217 q 233 145 174 169 q 365 121 293 121 q 493 158 444 121 q 542 264 542 196 q 525 333 542 306 q 468 381 508 360 q 351 426 428 403 q 131 540 199 474 q 63 715 63 607 q 104 854 63 794 q 220 947 146 914 q 389 981 294 981 m 386 -100 q 454 -127 426 -100 q 482 -194 482 -154 q 474 -240 482 -217 q 444 -307 467 -262 l 383 -433 l 290 -433 l 329 -272 q 289 -194 289 -242 q 317 -127 289 -154 q 386 -100 344 -100 z "},"Ṡ":{"ha":778,"x_min":24,"x_max":733,"o":"m 389 981 q 565 951 490 981 q 706 863 640 922 l 615 758 q 512 821 564 801 q 400 840 460 840 q 292 810 333 840 q 251 726 251 781 q 267 667 251 690 q 325 622 283 643 q 449 576 367 601 q 662 466 590 532 q 733 274 733 400 q 690 121 733 188 q 564 17 646 54 q 369 -21 482 -21 q 173 15 260 -21 q 24 111 86 50 l 118 217 q 233 145 174 169 q 365 121 293 121 q 493 158 444 121 q 542 264 542 196 q 525 333 542 306 q 468 381 508 360 q 351 426 428 403 q 131 540 199 474 q 63 715 63 607 q 104 854 63 794 q 220 947 146 914 q 389 981 294 981 m 397 1282 q 478 1251 447 1282 q 510 1174 510 1219 q 478 1097 510 1128 q 397 1067 447 1067 q 317 1097 349 1067 q 286 1174 286 1128 q 317 1251 286 1219 q 397 1282 349 1282 z "},"Ṣ":{"ha":778,"x_min":24,"x_max":733,"o":"m 389 981 q 565 951 490 981 q 706 863 640 922 l 615 758 q 512 821 564 801 q 400 840 460 840 q 292 810 333 840 q 251 726 251 781 q 267 667 251 690 q 325 622 283 643 q 449 576 367 601 q 662 466 590 532 q 733 274 733 400 q 690 121 733 188 q 564 17 646 54 q 369 -21 482 -21 q 173 15 260 -21 q 24 111 86 50 l 118 217 q 233 145 174 169 q 365 121 293 121 q 493 158 444 121 q 542 264 542 196 q 525 333 542 306 q 468 381 508 360 q 351 426 428 403 q 131 540 199 474 q 63 715 63 607 q 104 854 63 794 q 220 947 146 914 q 389 981 294 981 m 383 -307 q 302 -276 333 -307 q 271 -199 271 -244 q 302 -122 271 -153 q 383 -92 333 -92 q 463 -122 432 -92 q 494 -199 494 -153 q 463 -276 494 -244 q 383 -307 432 -307 z "},"ẞ":{"ha":922,"x_min":113,"x_max":874,"o":"m 433 981 q 626 954 536 981 q 808 882 717 928 l 808 786 l 588 543 q 799 458 725 526 q 874 271 874 390 q 831 113 874 179 q 715 13 789 47 q 547 -21 642 -21 q 375 14 440 -21 l 429 140 q 528 122 475 122 q 640 160 600 122 q 681 272 681 197 q 617 397 681 356 q 424 443 554 438 l 424 556 l 639 801 q 442 840 539 840 q 332 801 368 840 q 296 679 296 761 l 296 0 l 113 0 l 113 676 q 195 901 113 821 q 433 981 278 981 z "},"Ə":{"ha":894,"x_min":46,"x_max":835,"o":"m 433 981 q 729 857 624 981 q 835 492 835 733 q 785 208 835 322 q 647 36 736 93 q 438 -21 557 -21 q 144 106 243 -21 q 46 468 46 233 q 51 550 46 497 l 646 550 q 583 770 640 700 q 419 840 525 840 q 295 818 351 840 q 186 756 239 796 l 100 860 q 252 951 171 921 q 433 981 333 981 m 433 118 q 585 189 531 118 q 646 417 639 260 l 225 417 q 433 118 229 118 z "},"T":{"ha":736,"x_min":17,"x_max":729,"o":"m 729 960 l 710 814 l 460 814 l 460 0 l 275 0 l 275 814 l 17 814 l 17 960 l 729 960 z "},"Ŧ":{"ha":736,"x_min":17,"x_max":729,"o":"m 710 813 l 460 813 l 460 539 l 626 539 l 626 425 l 460 425 l 460 -1 l 275 -1 l 275 425 l 111 425 l 111 539 l 275 539 l 275 813 l 17 813 l 17 958 l 729 958 l 710 813 z "},"Ť":{"ha":736,"x_min":17,"x_max":729,"o":"m 729 960 l 710 814 l 460 814 l 460 0 l 275 0 l 275 814 l 17 814 l 17 960 l 729 960 m 549 1289 l 617 1211 l 424 1044 l 313 1044 l 119 1211 l 188 1289 l 368 1174 l 549 1289 z "},"Ţ":{"ha":736,"x_min":17,"x_max":729,"o":"m 460 -72 q 565 -113 531 -79 q 600 -200 600 -147 q 546 -310 600 -269 q 406 -351 492 -351 q 327 -341 364 -351 q 267 -312 290 -331 l 310 -225 q 393 -247 351 -247 q 465 -199 465 -247 q 435 -160 465 -172 q 339 -147 406 -147 l 357 0 l 275 0 l 275 814 l 17 814 l 17 960 l 729 960 l 710 814 l 460 814 l 460 -72 z "},"Ṱ":{"ha":736,"x_min":17,"x_max":729,"o":"m 729 960 l 710 814 l 460 814 l 460 0 l 275 0 l 275 814 l 17 814 l 17 960 l 729 960 m 188 -343 l 119 -265 l 311 -90 l 424 -90 l 617 -265 l 549 -343 l 368 -221 l 188 -343 z "},"Ț":{"ha":736,"x_min":17,"x_max":729,"o":"m 729 960 l 710 814 l 460 814 l 460 0 l 275 0 l 275 814 l 17 814 l 17 960 l 729 960 m 371 -100 q 439 -127 411 -100 q 467 -194 467 -154 q 459 -240 467 -217 q 429 -307 451 -262 l 368 -433 l 275 -433 l 314 -272 q 274 -194 274 -242 q 301 -127 274 -154 q 371 -100 329 -100 z "},"Ⱦ":{"ha":736,"x_min":17,"x_max":729,"o":"m 710 818 l 581 818 l 451 519 l 451 0 l 283 0 l 283 129 l 185 -100 l 119 -72 l 283 308 l 283 818 l 17 818 l 17 960 l 564 960 l 603 1051 l 668 1022 l 642 960 l 729 960 l 710 818 m 451 700 l 503 818 l 451 818 l 451 700 z "},"Ṫ":{"ha":736,"x_min":17,"x_max":729,"o":"m 729 960 l 710 814 l 460 814 l 460 0 l 275 0 l 275 814 l 17 814 l 17 960 l 729 960 m 367 1282 q 448 1251 417 1282 q 479 1174 479 1219 q 448 1097 479 1128 q 367 1067 417 1067 q 287 1097 318 1067 q 256 1174 256 1128 q 287 1251 256 1219 q 367 1282 318 1282 z "},"Ṭ":{"ha":736,"x_min":17,"x_max":729,"o":"m 729 960 l 710 814 l 460 814 l 460 0 l 275 0 l 275 814 l 17 814 l 17 960 l 729 960 m 368 -307 q 287 -276 318 -307 q 256 -199 256 -244 q 287 -122 256 -153 q 368 -92 318 -92 q 448 -122 417 -92 q 479 -199 479 -153 q 448 -276 479 -244 q 368 -307 417 -307 z "},"Ƭ":{"ha":801,"x_min":10,"x_max":794,"o":"m 775 814 l 525 814 l 525 0 l 342 0 l 342 814 l 232 814 q 181 798 199 814 q 164 754 164 782 q 169 715 164 732 q 188 668 175 699 l 61 610 q 10 768 10 693 q 73 908 10 857 q 247 960 136 960 l 794 960 l 775 814 z "},"Ṯ":{"ha":736,"x_min":17,"x_max":729,"o":"m 729 960 l 710 814 l 460 814 l 460 0 l 275 0 l 275 814 l 17 814 l 17 960 l 729 960 m 569 -253 l 165 -253 l 165 -126 l 569 -126 l 569 -253 z "},"Ƽ":{"ha":733,"x_min":26,"x_max":681,"o":"m 619 829 l 260 829 l 260 583 q 414 619 333 619 q 552 583 492 619 q 647 477 613 547 q 681 311 681 407 q 637 138 681 213 q 513 21 593 63 q 326 -21 433 -21 q 26 111 147 -21 l 126 206 q 322 117 211 117 q 451 167 406 117 q 497 313 497 217 q 349 492 497 492 q 285 484 315 492 q 217 460 256 476 l 89 460 l 89 960 l 642 960 l 619 829 z "},"Ƅ":{"ha":828,"x_min":28,"x_max":800,"o":"m 425 621 q 702 545 604 621 q 800 318 800 469 q 699 78 800 157 q 425 0 597 0 l 128 0 l 128 703 l 28 768 q 154 960 101 846 l 313 960 l 313 621 l 425 621 m 421 138 q 559 178 511 138 q 607 315 607 218 q 559 447 607 406 q 415 488 511 488 l 313 488 l 313 138 l 421 138 z "},"Ƨ":{"ha":765,"x_min":44,"x_max":742,"o":"m 397 981 q 565 949 492 981 q 677 858 638 917 q 717 722 717 800 q 647 548 717 614 q 425 435 578 482 q 276 362 317 401 q 236 261 236 322 q 282 158 236 194 q 403 122 328 122 q 647 215 533 122 l 742 111 q 590 15 678 50 q 392 -21 501 -21 q 209 17 288 -21 q 88 119 131 54 q 44 268 44 185 q 116 456 44 390 q 329 567 188 522 q 451 615 408 592 q 510 664 493 638 q 526 729 526 690 q 489 813 526 785 q 386 840 451 840 q 271 821 324 840 q 165 760 218 801 l 75 863 q 222 951 143 921 q 397 981 300 981 z "},"Ʈ":{"ha":738,"x_min":17,"x_max":729,"o":"m 460 -71 q 540 -164 460 -164 q 590 -157 569 -164 q 639 -135 611 -150 l 703 -246 q 524 -303 628 -303 q 342 -241 408 -303 q 276 -60 276 -179 l 276 0 l 275 0 l 275 814 l 17 814 l 17 960 l 729 960 l 710 814 l 460 814 l 460 -71 z "},"U":{"ha":911,"x_min":99,"x_max":813,"o":"m 813 314 q 772 141 813 217 q 649 22 731 65 q 454 -21 568 -21 q 190 70 282 -21 q 99 314 99 161 l 99 960 l 282 960 l 282 324 q 324 172 282 222 q 454 122 367 122 q 585 172 543 122 q 628 324 628 222 l 628 960 l 813 960 l 813 314 z "},"Ú":{"ha":911,"x_min":99,"x_max":813,"o":"m 813 314 q 772 141 813 217 q 649 22 731 65 q 454 -21 568 -21 q 190 70 282 -21 q 99 314 99 161 l 99 960 l 282 960 l 282 324 q 324 172 282 222 q 454 122 367 122 q 585 172 543 122 q 628 324 628 222 l 628 960 l 813 960 l 813 314 m 568 1300 l 638 1161 l 319 1046 l 274 1138 l 568 1300 z "},"Ʉ":{"ha":951,"x_min":32,"x_max":919,"o":"m 919 700 l 833 700 l 833 314 q 792 141 833 217 q 670 22 751 65 q 475 -21 589 -21 q 211 70 303 -21 q 119 314 119 161 l 119 700 l 32 700 l 32 813 l 119 813 l 119 960 l 303 960 l 303 813 l 649 813 l 649 960 l 833 960 l 833 813 l 919 813 l 919 700 m 649 700 l 303 700 l 303 324 q 345 172 303 222 q 475 122 388 122 q 606 172 564 122 q 649 324 649 222 l 649 700 z "},"Ŭ":{"ha":911,"x_min":99,"x_max":813,"o":"m 813 314 q 772 141 813 217 q 649 22 731 65 q 454 -21 568 -21 q 190 70 282 -21 q 99 314 99 161 l 99 960 l 282 960 l 282 324 q 324 172 282 222 q 454 122 367 122 q 585 172 543 122 q 628 324 628 222 l 628 960 l 813 960 l 813 314 m 454 1047 q 299 1104 360 1047 q 229 1247 238 1161 l 333 1268 q 378 1200 347 1225 q 454 1175 408 1175 q 532 1200 500 1175 q 576 1268 564 1225 l 682 1247 q 612 1104 674 1161 q 454 1047 550 1047 z "},"Ǔ":{"ha":911,"x_min":99,"x_max":813,"o":"m 813 314 q 772 141 813 217 q 649 22 731 65 q 454 -21 568 -21 q 190 70 282 -21 q 99 314 99 161 l 99 960 l 282 960 l 282 324 q 324 172 282 222 q 454 122 367 122 q 585 172 543 122 q 628 324 628 222 l 628 960 l 813 960 l 813 314 m 636 1289 l 704 1211 l 511 1044 l 400 1044 l 207 1211 l 275 1289 l 456 1174 l 636 1289 z "},"Û":{"ha":911,"x_min":99,"x_max":813,"o":"m 813 314 q 772 141 813 217 q 649 22 731 65 q 454 -21 568 -21 q 190 70 282 -21 q 99 314 99 161 l 99 960 l 282 960 l 282 324 q 324 172 282 222 q 454 122 367 122 q 585 172 543 122 q 628 324 628 222 l 628 960 l 813 960 l 813 314 m 274 1051 l 206 1128 l 399 1296 l 510 1296 l 703 1128 l 635 1051 l 454 1165 l 274 1051 z "},"Ȕ":{"ha":911,"x_min":99,"x_max":813,"o":"m 813 314 q 772 141 813 217 q 649 22 731 65 q 454 -21 568 -21 q 190 70 282 -21 q 99 314 99 161 l 99 960 l 282 960 l 282 324 q 324 172 282 222 q 454 122 367 122 q 585 172 543 122 q 628 324 628 222 l 628 960 l 813 960 l 813 314 m 279 1351 l 407 1093 l 308 1049 l 150 1285 l 279 1351 m 508 1351 l 624 1097 l 524 1056 l 378 1288 l 508 1351 z "},"Ü":{"ha":911,"x_min":99,"x_max":813,"o":"m 813 314 q 772 141 813 217 q 649 22 731 65 q 454 -21 568 -21 q 190 70 282 -21 q 99 314 99 161 l 99 960 l 282 960 l 282 324 q 324 172 282 222 q 454 122 367 122 q 585 172 543 122 q 628 324 628 222 l 628 960 l 813 960 l 813 314 m 301 1265 q 369 1238 342 1265 q 397 1169 397 1210 q 369 1101 397 1129 q 301 1074 342 1074 q 231 1101 260 1074 q 203 1169 203 1129 q 231 1238 203 1210 q 301 1265 260 1265 m 608 1265 q 678 1238 650 1265 q 706 1169 706 1210 q 678 1101 706 1129 q 608 1074 650 1074 q 540 1101 568 1074 q 511 1169 511 1129 q 540 1238 511 1210 q 608 1265 568 1265 z "},"Ǘ":{"ha":911,"x_min":99,"x_max":813,"o":"m 813 314 q 772 141 813 217 q 649 22 731 65 q 454 -21 568 -21 q 190 70 282 -21 q 99 314 99 161 l 99 960 l 282 960 l 282 324 q 324 172 282 222 q 454 122 367 122 q 585 172 543 122 q 628 324 628 222 l 628 960 l 813 960 l 813 314 m 560 1472 l 661 1375 l 456 1189 l 386 1251 l 560 1472 m 297 1229 q 365 1201 338 1229 q 393 1133 393 1174 q 365 1065 393 1093 q 297 1038 338 1038 q 226 1065 254 1038 q 199 1133 199 1093 q 226 1201 199 1174 q 297 1229 254 1229 m 614 1229 q 683 1201 654 1229 q 711 1133 711 1174 q 683 1065 711 1093 q 614 1038 654 1038 q 544 1065 572 1038 q 517 1133 517 1093 q 544 1201 517 1174 q 614 1229 572 1229 z "},"Ǚ":{"ha":911,"x_min":99,"x_max":813,"o":"m 813 314 q 772 141 813 217 q 649 22 731 65 q 454 -21 568 -21 q 190 70 282 -21 q 99 314 99 161 l 99 960 l 282 960 l 282 324 q 324 172 282 222 q 454 122 367 122 q 585 172 543 122 q 628 324 628 222 l 628 960 l 813 960 l 813 314 m 632 1478 l 700 1400 l 507 1233 l 396 1233 l 203 1400 l 271 1478 l 451 1363 l 632 1478 m 297 1229 q 365 1201 338 1229 q 393 1133 393 1174 q 365 1065 393 1093 q 297 1038 338 1038 q 226 1065 254 1038 q 199 1133 199 1093 q 226 1201 199 1174 q 297 1229 254 1229 m 614 1229 q 683 1201 654 1229 q 711 1133 711 1174 q 683 1065 711 1093 q 614 1038 654 1038 q 544 1065 572 1038 q 517 1133 517 1093 q 544 1201 517 1174 q 614 1229 572 1229 z "},"Ǜ":{"ha":911,"x_min":99,"x_max":813,"o":"m 813 314 q 772 141 813 217 q 649 22 731 65 q 454 -21 568 -21 q 190 70 282 -21 q 99 314 99 161 l 99 960 l 282 960 l 282 324 q 324 172 282 222 q 454 122 367 122 q 585 172 543 122 q 628 324 628 222 l 628 960 l 813 960 l 813 314 m 353 1472 l 528 1251 l 458 1189 l 253 1375 l 353 1472 m 297 1229 q 365 1201 338 1229 q 393 1133 393 1174 q 365 1065 393 1093 q 297 1038 338 1038 q 227 1065 256 1038 q 199 1133 199 1093 q 227 1201 199 1174 q 297 1229 256 1229 m 614 1229 q 683 1201 656 1229 q 711 1133 711 1174 q 683 1065 711 1093 q 614 1038 656 1038 q 545 1065 574 1038 q 517 1133 517 1093 q 545 1201 517 1174 q 614 1229 574 1229 z "},"Ǖ":{"ha":911,"x_min":99,"x_max":813,"o":"m 813 314 q 772 141 813 217 q 649 22 731 65 q 454 -21 568 -21 q 190 70 282 -21 q 99 314 99 161 l 99 960 l 282 960 l 282 324 q 324 172 282 222 q 454 122 367 122 q 585 172 543 122 q 628 324 628 222 l 628 960 l 813 960 l 813 314 m 301 1228 q 369 1200 342 1228 q 397 1132 397 1172 q 369 1064 397 1092 q 301 1036 342 1036 q 231 1064 260 1036 q 203 1132 203 1092 q 231 1200 203 1172 q 301 1228 260 1228 m 608 1228 q 678 1200 650 1228 q 706 1132 706 1172 q 678 1064 706 1092 q 608 1036 650 1036 q 540 1064 568 1036 q 511 1132 511 1092 q 540 1200 511 1172 q 608 1228 568 1228 m 661 1283 l 257 1283 l 257 1410 l 661 1410 l 661 1283 z "},"Ụ":{"ha":911,"x_min":99,"x_max":813,"o":"m 813 314 q 772 141 813 217 q 649 22 731 65 q 454 -21 568 -21 q 190 70 282 -21 q 99 314 99 161 l 99 960 l 282 960 l 282 324 q 324 172 282 222 q 454 122 367 122 q 585 172 543 122 q 628 324 628 222 l 628 960 l 813 960 l 813 314 m 456 -307 q 374 -276 406 -307 q 343 -199 343 -244 q 374 -122 343 -153 q 456 -92 406 -92 q 535 -122 504 -92 q 567 -199 567 -153 q 535 -276 567 -244 q 456 -307 504 -307 z "},"Ù":{"ha":911,"x_min":99,"x_max":813,"o":"m 813 314 q 772 141 813 217 q 649 22 731 65 q 454 -21 568 -21 q 190 70 282 -21 q 99 314 99 161 l 99 960 l 282 960 l 282 324 q 324 172 282 222 q 454 122 367 122 q 585 172 543 122 q 628 324 628 222 l 628 960 l 813 960 l 813 314 m 335 1300 l 629 1138 l 583 1046 l 265 1161 l 335 1300 z "},"Ủ":{"ha":911,"x_min":99,"x_max":813,"o":"m 813 314 q 772 141 813 217 q 649 22 731 65 q 454 -21 568 -21 q 190 70 282 -21 q 99 314 99 161 l 99 960 l 282 960 l 282 324 q 324 172 282 222 q 454 122 367 122 q 585 172 543 122 q 628 324 628 222 l 628 960 l 813 960 l 813 314 m 399 1181 q 474 1198 451 1186 q 497 1238 497 1210 q 481 1272 497 1260 q 439 1283 465 1283 q 357 1265 400 1283 l 324 1347 q 465 1382 383 1382 q 585 1345 543 1382 q 628 1246 628 1308 q 598 1163 628 1194 q 513 1122 568 1132 l 513 1060 l 399 1060 l 399 1181 z "},"Ư":{"ha":976,"x_min":99,"x_max":1004,"o":"m 978 1074 q 1004 956 1004 1024 q 954 834 1004 875 q 813 790 904 793 l 813 314 q 772 141 813 217 q 649 22 731 65 q 454 -21 568 -21 q 190 70 282 -21 q 99 314 99 161 l 99 960 l 282 960 l 282 324 q 324 172 282 222 q 454 122 367 122 q 585 172 543 122 q 628 324 628 222 l 628 960 l 813 960 l 813 882 q 874 956 874 894 q 869 1007 874 986 q 854 1053 864 1028 l 978 1074 z "},"Ứ":{"ha":976,"x_min":99,"x_max":1004,"o":"m 638 1161 l 319 1046 l 274 1138 l 568 1300 l 638 1161 m 978 1074 q 1004 956 1004 1024 q 954 834 1004 875 q 813 790 904 793 l 813 314 q 772 141 813 217 q 649 22 731 65 q 454 -21 568 -21 q 190 70 282 -21 q 99 314 99 161 l 99 960 l 282 960 l 282 324 q 324 172 282 222 q 454 122 367 122 q 585 172 543 122 q 628 324 628 222 l 628 960 l 813 960 l 813 882 q 874 956 874 894 q 869 1007 874 986 q 854 1053 864 1028 l 978 1074 z "},"Ự":{"ha":976,"x_min":99,"x_max":1004,"o":"m 978 1074 q 1004 956 1004 1024 q 954 834 1004 875 q 813 790 904 793 l 813 314 q 772 141 813 217 q 649 22 731 65 q 454 -21 568 -21 q 190 70 282 -21 q 99 314 99 161 l 99 960 l 282 960 l 282 324 q 324 172 282 222 q 454 122 367 122 q 585 172 543 122 q 628 324 628 222 l 628 960 l 813 960 l 813 882 q 874 956 874 894 q 869 1007 874 986 q 854 1053 864 1028 l 978 1074 m 456 -92 q 535 -122 504 -92 q 567 -199 567 -153 q 535 -276 567 -244 q 456 -307 504 -307 q 374 -276 406 -307 q 343 -199 343 -244 q 374 -122 343 -153 q 456 -92 406 -92 z "},"Ừ":{"ha":976,"x_min":99,"x_max":1004,"o":"m 629 1138 l 583 1046 l 265 1161 l 335 1300 l 629 1138 m 978 1074 q 1004 956 1004 1024 q 954 834 1004 875 q 813 790 904 793 l 813 314 q 772 141 813 217 q 649 22 731 65 q 454 -21 568 -21 q 190 70 282 -21 q 99 314 99 161 l 99 960 l 282 960 l 282 324 q 324 172 282 222 q 454 122 367 122 q 585 172 543 122 q 628 324 628 222 l 628 960 l 813 960 l 813 882 q 874 956 874 894 q 869 1007 874 986 q 854 1053 864 1028 l 978 1074 z "},"Ử":{"ha":976,"x_min":99,"x_max":1004,"o":"m 439 1283 q 357 1265 400 1283 l 324 1347 q 465 1382 383 1382 q 585 1345 543 1382 q 628 1246 628 1308 q 598 1163 628 1194 q 513 1122 568 1132 l 513 1060 l 399 1060 l 399 1181 q 474 1198 451 1186 q 497 1238 497 1210 q 481 1272 497 1260 q 439 1283 465 1283 m 978 1074 q 1004 956 1004 1024 q 954 834 1004 875 q 813 790 904 793 l 813 314 q 772 141 813 217 q 649 22 731 65 q 454 -21 568 -21 q 190 70 282 -21 q 99 314 99 161 l 99 960 l 282 960 l 282 324 q 324 172 282 222 q 454 122 367 122 q 585 172 543 122 q 628 324 628 222 l 628 960 l 813 960 l 813 882 q 874 956 874 894 q 869 1007 874 986 q 854 1053 864 1028 l 978 1074 z "},"Ữ":{"ha":976,"x_min":99,"x_max":1004,"o":"m 376 1135 q 337 1120 353 1135 q 303 1072 321 1106 l 207 1119 q 276 1224 235 1185 q 374 1264 318 1264 q 426 1254 404 1264 q 476 1226 447 1244 q 508 1206 494 1213 q 535 1200 521 1200 q 572 1214 556 1200 q 608 1260 589 1228 l 703 1213 q 632 1108 675 1146 q 536 1069 589 1069 q 485 1080 507 1069 q 436 1108 464 1090 q 403 1128 415 1122 q 376 1135 390 1135 m 978 1074 q 1004 956 1004 1024 q 954 834 1004 875 q 813 790 904 793 l 813 314 q 772 141 813 217 q 649 22 731 65 q 454 -21 568 -21 q 190 70 282 -21 q 99 314 99 161 l 99 960 l 282 960 l 282 324 q 324 172 282 222 q 454 122 367 122 q 585 172 543 122 q 628 324 628 222 l 628 960 l 813 960 l 813 882 q 874 956 874 894 q 869 1007 874 986 q 854 1053 864 1028 l 978 1074 z "},"Ű":{"ha":911,"x_min":99,"x_max":813,"o":"m 813 314 q 772 141 813 217 q 649 22 731 65 q 454 -21 568 -21 q 190 70 282 -21 q 99 314 99 161 l 99 960 l 282 960 l 282 324 q 324 172 282 222 q 454 122 367 122 q 585 172 543 122 q 628 324 628 222 l 628 960 l 813 960 l 813 314 m 399 1351 l 529 1288 l 383 1056 l 283 1097 l 399 1351 m 628 1351 l 757 1285 l 597 1049 l 500 1093 l 628 1351 z "},"Ȗ":{"ha":911,"x_min":99,"x_max":813,"o":"m 813 314 q 772 141 813 217 q 649 22 731 65 q 454 -21 568 -21 q 190 70 282 -21 q 99 314 99 161 l 99 960 l 282 960 l 282 324 q 324 172 282 222 q 454 122 367 122 q 585 172 543 122 q 628 324 628 222 l 628 960 l 813 960 l 813 314 m 454 1303 q 612 1243 550 1303 q 682 1088 674 1183 l 576 1068 q 533 1147 564 1119 q 454 1175 501 1175 q 333 1068 361 1175 l 229 1088 q 298 1243 238 1183 q 454 1303 358 1303 z "},"Ū":{"ha":911,"x_min":99,"x_max":813,"o":"m 813 314 q 772 141 813 217 q 649 22 731 65 q 454 -21 568 -21 q 190 70 282 -21 q 99 314 99 161 l 99 960 l 282 960 l 282 324 q 324 172 282 222 q 454 122 367 122 q 585 172 543 122 q 628 324 628 222 l 628 960 l 813 960 l 813 314 m 657 1093 l 253 1093 l 253 1219 l 657 1219 l 657 1093 z "},"Ų":{"ha":911,"x_min":99,"x_max":813,"o":"m 813 960 l 813 314 q 756 115 813 199 q 593 -1 700 32 q 464 -76 499 -40 q 429 -150 429 -111 q 504 -214 429 -214 q 589 -204 544 -214 l 575 -322 q 482 -332 524 -332 q 344 -290 397 -332 q 292 -181 292 -249 q 415 -19 292 -78 q 180 81 261 -10 q 99 314 99 171 l 99 960 l 282 960 l 282 324 q 324 172 282 222 q 454 122 367 122 q 585 172 543 122 q 628 324 628 222 l 628 960 l 813 960 z "},"Ʊ":{"ha":960,"x_min":60,"x_max":900,"o":"m 481 -21 q 257 35 353 -21 q 110 194 161 92 q 60 428 60 296 q 108 663 60 571 q 240 822 156 756 l 90 822 l 90 960 l 396 960 l 396 826 q 288 666 322 756 q 253 428 253 576 q 311 197 253 275 q 481 119 369 119 q 648 198 589 119 q 707 429 707 276 q 672 665 707 575 q 565 826 636 754 l 565 960 l 871 960 l 871 822 l 721 822 q 853 669 806 763 q 900 429 900 576 q 848 197 900 299 q 701 37 796 94 q 481 -21 606 -21 z "},"Ů":{"ha":911,"x_min":99,"x_max":813,"o":"m 813 314 q 772 141 813 217 q 649 22 731 65 q 454 -21 568 -21 q 190 70 282 -21 q 99 314 99 161 l 99 960 l 282 960 l 282 324 q 324 172 282 222 q 454 122 367 122 q 585 172 543 122 q 628 324 628 222 l 628 960 l 813 960 l 813 314 m 456 1360 q 583 1312 535 1360 q 632 1193 632 1264 q 583 1075 632 1124 q 456 1026 533 1026 q 327 1075 376 1026 q 278 1193 278 1124 q 327 1312 278 1264 q 456 1360 376 1360 m 456 1267 q 406 1247 424 1267 q 388 1193 388 1228 q 406 1140 388 1158 q 456 1121 424 1121 q 504 1140 486 1121 q 522 1193 522 1158 q 504 1247 522 1228 q 456 1267 486 1267 z "},"Ũ":{"ha":911,"x_min":99,"x_max":813,"o":"m 813 314 q 772 141 813 217 q 649 22 731 65 q 454 -21 568 -21 q 190 70 282 -21 q 99 314 99 161 l 99 960 l 282 960 l 282 324 q 324 172 282 222 q 454 122 367 122 q 585 172 543 122 q 628 324 628 222 l 628 960 l 813 960 l 813 314 m 536 1069 q 485 1080 507 1069 q 436 1108 464 1090 q 403 1128 415 1122 q 376 1135 390 1135 q 337 1120 353 1135 q 303 1072 321 1106 l 207 1119 q 276 1224 235 1185 q 374 1264 318 1264 q 426 1254 404 1264 q 476 1226 447 1244 q 508 1206 494 1213 q 535 1200 521 1200 q 572 1214 556 1200 q 608 1260 589 1228 l 703 1213 q 632 1108 675 1146 q 536 1069 589 1069 z "},"Ṹ":{"ha":911,"x_min":99,"x_max":813,"o":"m 813 314 q 772 141 813 217 q 649 22 731 65 q 454 -21 568 -21 q 190 70 282 -21 q 99 314 99 161 l 99 960 l 282 960 l 282 324 q 324 172 282 222 q 454 122 367 122 q 585 172 543 122 q 628 324 628 222 l 628 960 l 813 960 l 813 314 m 536 1050 q 485 1060 507 1050 q 436 1089 464 1071 q 403 1109 415 1103 q 376 1115 390 1115 q 337 1101 353 1115 q 303 1053 321 1086 l 207 1100 q 276 1205 235 1165 q 374 1244 318 1244 q 426 1235 404 1244 q 476 1207 447 1225 q 508 1187 494 1193 q 535 1181 521 1181 q 572 1194 556 1181 q 608 1240 589 1208 l 703 1193 q 632 1088 675 1126 q 536 1050 589 1050 m 568 1524 l 638 1385 l 319 1269 l 274 1361 l 568 1524 z "},"V":{"ha":783,"x_min":-7,"x_max":789,"o":"m 789 960 l 504 0 l 286 0 l -7 960 l 190 960 l 399 163 l 601 960 l 789 960 z "},"Ʋ":{"ha":911,"x_min":99,"x_max":813,"o":"m 622 981 q 763 929 714 981 q 813 775 813 878 l 813 411 q 765 181 813 279 q 630 31 717 83 q 428 -21 543 -21 q 252 20 326 -21 q 138 133 178 61 q 99 296 99 204 l 99 960 l 282 960 l 282 299 q 321 169 282 215 q 431 122 360 122 q 576 195 525 122 q 628 414 628 268 l 628 779 q 617 828 628 814 q 581 842 607 842 q 536 833 556 842 l 501 956 q 622 981 556 981 z "},"Ʌ":{"ha":810,"x_min":-7,"x_max":815,"o":"m 518 960 l 815 0 l 621 0 l 403 819 l 183 0 l -7 0 l 292 960 l 518 960 z "},"W":{"ha":1163,"x_min":24,"x_max":1140,"o":"m 1140 960 l 964 0 l 725 0 l 579 765 l 429 0 l 197 0 l 24 960 l 206 960 l 328 146 l 485 960 l 679 960 l 833 146 l 967 960 l 1140 960 z "},"Ẃ":{"ha":1163,"x_min":24,"x_max":1140,"o":"m 1140 960 l 964 0 l 725 0 l 579 765 l 429 0 l 197 0 l 24 960 l 206 960 l 328 146 l 485 960 l 679 960 l 833 146 l 967 960 l 1140 960 m 694 1300 l 764 1161 l 446 1046 l 400 1138 l 694 1300 z "},"Ŵ":{"ha":1163,"x_min":24,"x_max":1140,"o":"m 1140 960 l 964 0 l 725 0 l 579 765 l 429 0 l 197 0 l 24 960 l 206 960 l 328 146 l 485 960 l 679 960 l 833 146 l 967 960 l 1140 960 m 400 1051 l 332 1128 l 525 1296 l 636 1296 l 829 1128 l 761 1051 l 581 1165 l 400 1051 z "},"Ẅ":{"ha":1163,"x_min":24,"x_max":1140,"o":"m 1140 960 l 964 0 l 725 0 l 579 765 l 429 0 l 197 0 l 24 960 l 206 960 l 328 146 l 485 960 l 679 960 l 833 146 l 967 960 l 1140 960 m 428 1265 q 496 1238 468 1265 q 524 1169 524 1210 q 496 1101 524 1129 q 428 1074 468 1074 q 358 1101 386 1074 q 329 1169 329 1129 q 358 1238 329 1210 q 428 1265 386 1265 m 735 1265 q 804 1238 776 1265 q 832 1169 832 1210 q 804 1101 832 1129 q 735 1074 776 1074 q 666 1101 694 1074 q 638 1169 638 1129 q 666 1238 638 1210 q 735 1265 694 1265 z "},"Ẁ":{"ha":1163,"x_min":24,"x_max":1140,"o":"m 1140 960 l 964 0 l 725 0 l 579 765 l 429 0 l 197 0 l 24 960 l 206 960 l 328 146 l 485 960 l 679 960 l 833 146 l 967 960 l 1140 960 m 461 1300 l 756 1138 l 710 1046 l 392 1161 l 461 1300 z "},"Ⱳ":{"ha":1235,"x_min":24,"x_max":1300,"o":"m 197 0 l 429 0 l 579 765 l 725 0 l 961 0 l 1083 761 q 1110 828 1092 808 q 1164 847 1128 847 q 1206 841 1188 847 q 1243 822 1224 835 l 1300 926 q 1227 967 1264 953 q 1140 981 1190 981 q 995 931 1050 981 q 926 769 940 881 l 833 146 l 679 960 l 485 960 l 328 146 l 206 960 l 24 960 l 197 0 z "},"Ƿ":{"ha":821,"x_min":113,"x_max":785,"o":"m 517 981 q 651 949 590 981 q 749 856 713 917 q 785 714 785 796 q 736 537 785 610 q 607 415 688 464 q 408 322 526 367 l 296 281 l 296 0 l 113 0 l 113 960 l 296 960 l 296 893 q 517 981 383 981 m 381 451 q 593 707 593 540 q 558 808 593 774 q 463 842 524 842 q 296 774 368 842 l 296 417 l 381 451 z "},"X":{"ha":781,"x_min":0,"x_max":782,"o":"m 497 518 l 782 0 l 578 0 l 386 393 l 196 0 l 0 0 l 278 511 l 22 960 l 226 960 l 389 628 l 558 960 l 754 960 l 497 518 z "},"Y":{"ha":797,"x_min":-3,"x_max":800,"o":"m 800 960 l 492 364 l 492 0 l 306 0 l 306 363 l -3 960 l 200 960 l 403 514 l 606 960 l 800 960 z "},"Ý":{"ha":797,"x_min":-3,"x_max":800,"o":"m 800 960 l 492 364 l 492 0 l 306 0 l 306 363 l -3 960 l 200 960 l 403 514 l 606 960 l 800 960 m 511 1300 l 581 1161 l 263 1046 l 217 1138 l 511 1300 z "},"Ŷ":{"ha":797,"x_min":-3,"x_max":800,"o":"m 800 960 l 492 364 l 492 0 l 306 0 l 306 363 l -3 960 l 200 960 l 403 514 l 606 960 l 800 960 m 217 1051 l 149 1128 l 342 1296 l 453 1296 l 646 1128 l 578 1051 l 397 1165 l 217 1051 z "},"Ÿ":{"ha":797,"x_min":-3,"x_max":800,"o":"m 800 960 l 492 364 l 492 0 l 306 0 l 306 363 l -3 960 l 200 960 l 403 514 l 606 960 l 800 960 m 244 1265 q 313 1238 285 1265 q 340 1169 340 1210 q 313 1101 340 1129 q 244 1074 285 1074 q 174 1101 203 1074 q 146 1169 146 1129 q 174 1238 146 1210 q 244 1265 203 1265 m 551 1265 q 621 1238 593 1265 q 649 1169 649 1210 q 621 1101 649 1129 q 551 1074 593 1074 q 483 1101 511 1074 q 454 1169 454 1129 q 483 1238 454 1210 q 551 1265 511 1265 z "},"Ỵ":{"ha":797,"x_min":-3,"x_max":800,"o":"m 800 960 l 492 364 l 492 0 l 306 0 l 306 363 l -3 960 l 200 960 l 403 514 l 606 960 l 800 960 m 399 -307 q 317 -276 349 -307 q 286 -199 286 -244 q 317 -122 286 -153 q 399 -92 349 -92 q 478 -122 447 -92 q 510 -199 510 -153 q 478 -276 510 -244 q 399 -307 447 -307 z "},"Ỳ":{"ha":797,"x_min":-3,"x_max":800,"o":"m 800 960 l 492 364 l 492 0 l 306 0 l 306 363 l -3 960 l 200 960 l 403 514 l 606 960 l 800 960 m 278 1300 l 572 1138 l 526 1046 l 208 1161 l 278 1300 z "},"Ƴ":{"ha":849,"x_min":-3,"x_max":914,"o":"m 306 363 l -3 960 l 200 960 l 403 514 l 525 799 q 617 939 564 897 q 756 981 669 981 q 840 967 803 981 q 914 928 878 953 l 857 822 q 776 847 819 847 q 723 829 744 847 q 679 763 701 811 l 492 364 l 492 0 l 306 0 l 306 363 z "},"Ỷ":{"ha":797,"x_min":-3,"x_max":800,"o":"m 800 960 l 492 364 l 492 0 l 306 0 l 306 363 l -3 960 l 200 960 l 403 514 l 606 960 l 800 960 m 342 1181 q 417 1198 394 1186 q 440 1238 440 1210 q 424 1272 440 1260 q 382 1283 408 1283 q 300 1265 343 1283 l 267 1347 q 408 1382 326 1382 q 528 1345 486 1382 q 571 1246 571 1308 q 541 1163 571 1194 q 456 1122 511 1132 l 456 1060 l 342 1060 l 342 1181 z "},"Ȳ":{"ha":797,"x_min":-3,"x_max":800,"o":"m 800 960 l 492 364 l 492 0 l 306 0 l 306 363 l -3 960 l 200 960 l 403 514 l 606 960 l 800 960 m 600 1093 l 196 1093 l 196 1219 l 600 1219 l 600 1093 z "},"Ʀ":{"ha":849,"x_min":113,"x_max":836,"o":"m 413 221 l 296 221 l 296 0 l 113 0 l 113 960 l 296 960 l 296 796 l 399 796 q 779 514 779 796 q 732 356 779 418 q 585 254 685 293 l 836 -164 l 625 -164 l 413 221 m 296 353 l 410 353 q 542 391 497 353 q 588 514 588 429 q 541 627 588 592 q 394 663 494 663 l 296 663 l 296 353 z "},"Ɏ":{"ha":797,"x_min":-1,"x_max":800,"o":"m 800 960 l 742 847 l 800 847 l 800 733 l 683 733 l 492 364 l 492 0 l 307 0 l 307 363 l 115 733 l 3 733 l 3 847 l 57 847 l -1 960 l 196 960 l 247 847 l 560 847 l 611 960 l 800 960 m 403 504 l 507 733 l 299 733 l 403 504 z "},"Ỹ":{"ha":797,"x_min":-3,"x_max":800,"o":"m 800 960 l 492 364 l 492 0 l 306 0 l 306 363 l -3 960 l 200 960 l 403 514 l 606 960 l 800 960 m 479 1069 q 428 1080 450 1069 q 379 1108 407 1090 q 346 1128 358 1122 q 319 1135 333 1135 q 280 1120 296 1135 q 246 1072 264 1106 l 150 1119 q 219 1224 178 1185 q 317 1264 261 1264 q 369 1254 347 1264 q 419 1226 390 1244 q 451 1206 438 1213 q 478 1200 464 1200 q 515 1214 499 1200 q 551 1260 532 1228 l 646 1213 q 575 1108 618 1146 q 479 1069 532 1069 z "},"Z":{"ha":742,"x_min":32,"x_max":693,"o":"m 689 960 l 689 818 l 246 150 l 693 150 l 674 0 l 32 0 l 32 140 l 483 814 l 78 814 l 78 960 l 689 960 z "},"Ź":{"ha":742,"x_min":32,"x_max":693,"o":"m 689 960 l 689 818 l 246 150 l 693 150 l 674 0 l 32 0 l 32 140 l 483 814 l 78 814 l 78 960 l 689 960 m 493 1300 l 563 1161 l 244 1046 l 199 1138 l 493 1300 z "},"Ž":{"ha":742,"x_min":32,"x_max":693,"o":"m 689 960 l 689 818 l 246 150 l 693 150 l 674 0 l 32 0 l 32 140 l 483 814 l 78 814 l 78 960 l 689 960 m 561 1289 l 629 1211 l 436 1044 l 325 1044 l 132 1211 l 200 1289 l 381 1174 l 561 1289 z "},"Ż":{"ha":742,"x_min":32,"x_max":693,"o":"m 689 960 l 689 818 l 246 150 l 693 150 l 674 0 l 32 0 l 32 140 l 483 814 l 78 814 l 78 960 l 689 960 m 379 1282 q 460 1251 429 1282 q 492 1174 492 1219 q 460 1097 492 1128 q 379 1067 429 1067 q 299 1097 331 1067 q 268 1174 268 1128 q 299 1251 268 1219 q 379 1282 331 1282 z "},"Ẓ":{"ha":742,"x_min":32,"x_max":693,"o":"m 689 960 l 689 818 l 246 150 l 693 150 l 674 0 l 32 0 l 32 140 l 483 814 l 78 814 l 78 960 l 689 960 m 363 -307 q 281 -276 313 -307 q 250 -199 250 -244 q 281 -122 250 -153 q 363 -92 313 -92 q 442 -122 411 -92 q 474 -199 474 -153 q 442 -276 474 -244 q 363 -307 411 -307 z "},"Ȥ":{"ha":738,"x_min":32,"x_max":689,"o":"m 689 818 l 246 150 l 683 150 l 683 -60 q 617 -241 683 -179 q 436 -303 551 -303 q 257 -246 329 -303 l 319 -133 q 368 -157 346 -150 q 424 -164 390 -164 q 507 -71 507 -164 l 507 0 l 32 0 l 32 140 l 483 814 l 78 814 l 78 960 l 689 960 l 689 818 z "},"Ƶ":{"ha":742,"x_min":32,"x_max":693,"o":"m 232 150 l 693 150 l 674 0 l 32 0 l 32 136 l 226 419 l 110 419 l 110 546 l 313 546 l 496 814 l 78 814 l 78 960 l 689 960 l 689 822 l 501 546 l 628 546 l 628 419 l 415 419 l 232 150 z "},"ʙ":{"ha":778,"x_min":107,"x_max":718,"o":"m 529 401 q 718 225 718 381 q 631 56 718 111 q 397 0 544 0 l 107 0 l 107 726 q 375 756 256 756 q 600 704 518 756 q 682 556 682 653 q 643 454 682 493 q 529 401 604 415 m 374 635 q 285 628 336 635 l 285 442 l 390 442 q 506 540 506 442 q 374 635 506 635 m 393 124 q 533 236 533 124 q 501 312 533 288 q 396 336 469 336 l 285 336 l 285 124 l 393 124 z "},"ɢ":{"ha":778,"x_min":60,"x_max":700,"o":"m 424 756 q 574 731 511 756 q 694 660 638 707 l 606 561 q 522 608 563 593 q 432 622 482 622 q 297 558 349 622 q 246 371 246 494 q 288 172 246 232 q 410 113 329 113 q 531 138 475 113 l 531 300 l 418 300 l 400 424 l 700 424 l 700 63 q 407 -18 563 -18 q 149 80 238 -18 q 60 371 60 178 q 108 574 60 488 q 240 708 157 661 q 424 756 324 756 z "},"ʛ":{"ha":778,"x_min":60,"x_max":929,"o":"m 756 1049 q 929 996 851 1049 l 872 885 q 824 907 846 900 q 774 914 803 914 q 694 819 694 914 l 694 660 l 614 571 q 526 610 567 597 q 433 622 486 622 q 297 558 347 622 q 246 371 246 494 q 288 172 246 232 q 410 113 329 113 q 531 138 475 113 l 531 300 l 418 300 l 400 424 l 700 424 l 700 63 q 408 -18 569 -18 q 149 81 239 -18 q 60 371 60 179 q 108 574 60 486 q 237 708 156 661 q 414 756 318 756 q 531 735 478 756 l 531 821 q 589 990 531 931 q 756 1049 647 1049 z "},"ʜ":{"ha":818,"x_min":107,"x_max":711,"o":"m 533 0 l 533 307 l 285 307 l 285 0 l 107 0 l 107 735 l 285 735 l 285 442 l 533 442 l 533 735 l 711 735 l 711 0 l 533 0 z "},"ɪ":{"ha":465,"x_min":28,"x_max":438,"o":"m 438 604 l 321 604 l 321 132 l 438 132 l 438 0 l 28 0 l 28 132 l 143 132 l 143 604 l 28 604 l 28 735 l 438 735 l 438 604 z "},"ʟ":{"ha":617,"x_min":107,"x_max":600,"o":"m 285 735 l 285 142 l 600 142 l 581 0 l 107 0 l 107 735 l 285 735 z "},"ɴ":{"ha":821,"x_min":107,"x_max":714,"o":"m 714 0 l 496 0 l 242 574 q 260 419 254 493 q 267 246 267 344 l 267 0 l 107 0 l 107 735 l 324 735 l 579 161 q 560 288 567 233 q 554 422 554 342 l 554 735 l 714 735 l 714 0 z "},"ɶ":{"ha":1057,"x_min":60,"x_max":1019,"o":"m 1019 0 l 525 0 q 406 -21 463 -21 q 151 83 243 -21 q 60 368 60 186 q 101 571 60 483 q 222 707 143 658 q 407 756 300 756 q 533 735 475 756 l 1018 735 l 1000 608 l 667 608 q 743 436 726 535 l 961 436 l 961 310 l 744 310 q 660 128 731 199 l 1019 128 l 1019 0 m 247 368 q 288 176 247 238 q 407 114 328 114 q 523 177 481 114 q 565 368 565 240 q 523 558 565 496 q 407 621 481 621 q 247 368 247 621 z "},"ʀ":{"ha":735,"x_min":107,"x_max":710,"o":"m 358 267 l 281 267 l 281 0 l 107 0 l 107 735 l 342 735 q 577 676 496 735 q 658 501 658 617 q 623 376 658 429 q 519 293 588 322 l 710 0 l 518 0 l 358 267 m 281 383 l 353 383 q 449 410 418 383 q 481 501 481 438 q 446 588 481 561 q 339 614 411 614 l 281 614 l 281 383 z "},"ʁ":{"ha":735,"x_min":107,"x_max":710,"o":"m 521 444 q 624 365 589 418 q 658 240 658 313 q 577 60 658 119 q 342 0 496 0 l 107 0 l 107 735 l 281 735 l 281 469 l 360 469 l 518 735 l 710 735 l 521 444 m 339 122 q 447 149 413 122 q 481 240 481 175 q 449 326 481 300 q 353 353 417 353 l 281 353 l 281 122 l 339 122 z "},"ʏ":{"ha":667,"x_min":-10,"x_max":676,"o":"m 676 735 l 422 271 l 422 0 l 244 0 l 244 269 l -10 735 l 181 735 l 336 389 l 492 735 l 676 735 z "},"a":{"ha":758,"x_min":49,"x_max":706,"o":"m 650 194 q 663 131 650 151 q 706 100 676 111 l 668 -18 q 566 13 606 -12 q 506 89 526 38 q 412 6 468 33 q 286 -21 356 -21 q 113 42 176 -21 q 49 206 49 104 q 135 388 49 325 q 383 451 222 451 l 475 451 l 475 493 q 442 592 475 564 q 338 621 410 621 q 143 582 257 621 l 101 703 q 368 756 239 756 q 650 503 650 756 l 650 194 m 333 108 q 475 199 424 108 l 475 347 l 401 347 q 229 219 229 347 q 256 138 229 167 q 333 108 282 108 z "},"á":{"ha":758,"x_min":49,"x_max":706,"o":"m 650 194 q 663 131 650 151 q 706 100 676 111 l 668 -18 q 566 13 606 -12 q 506 89 526 38 q 412 6 468 33 q 286 -21 356 -21 q 113 42 176 -21 q 49 206 49 104 q 135 388 49 325 q 383 451 222 451 l 475 451 l 475 493 q 442 592 475 564 q 338 621 410 621 q 143 582 257 621 l 101 703 q 368 756 239 756 q 650 503 650 756 l 650 194 m 333 108 q 475 199 424 108 l 475 347 l 401 347 q 229 219 229 347 q 256 138 229 167 q 333 108 282 108 m 475 1139 l 547 1000 l 233 875 l 183 965 l 475 1139 z "},"ă":{"ha":758,"x_min":49,"x_max":706,"o":"m 650 194 q 663 131 650 151 q 706 100 676 111 l 668 -18 q 566 13 606 -12 q 506 89 526 38 q 412 6 468 33 q 286 -21 356 -21 q 113 42 176 -21 q 49 206 49 104 q 135 388 49 325 q 383 451 222 451 l 475 451 l 475 493 q 442 592 475 564 q 338 621 410 621 q 143 582 257 621 l 101 703 q 368 756 239 756 q 650 503 650 756 l 650 194 m 333 108 q 475 199 424 108 l 475 347 l 401 347 q 229 219 229 347 q 256 138 229 167 q 333 108 282 108 m 368 885 q 212 944 272 885 q 143 1100 151 1004 l 247 1119 q 368 1013 275 1013 q 447 1040 415 1013 q 490 1119 478 1068 l 596 1100 q 526 944 588 1004 q 368 885 464 885 z "},"ắ":{"ha":758,"x_min":49,"x_max":706,"o":"m 650 194 q 663 131 650 151 q 706 100 676 111 l 668 -18 q 566 13 606 -12 q 506 89 526 38 q 412 6 468 33 q 286 -21 356 -21 q 113 42 176 -21 q 49 206 49 104 q 135 388 49 325 q 383 451 222 451 l 475 451 l 475 493 q 442 592 475 564 q 338 621 410 621 q 143 582 257 621 l 101 703 q 368 756 239 756 q 650 503 650 756 l 650 194 m 333 108 q 475 199 424 108 l 475 347 l 401 347 q 229 219 229 347 q 256 138 229 167 q 333 108 282 108 m 368 833 q 213 890 274 833 q 143 1033 151 947 l 247 1054 q 292 986 261 1011 q 368 961 322 961 q 446 986 414 961 q 490 1054 478 1011 l 596 1033 q 526 890 588 947 q 368 833 464 833 m 476 1324 l 578 1226 l 372 1040 l 303 1103 l 476 1324 z "},"ặ":{"ha":758,"x_min":49,"x_max":706,"o":"m 650 194 q 663 131 650 151 q 706 100 676 111 l 668 -18 q 566 13 606 -12 q 506 89 526 38 q 412 6 468 33 q 286 -21 356 -21 q 113 42 176 -21 q 49 206 49 104 q 135 388 49 325 q 383 451 222 451 l 475 451 l 475 493 q 442 592 475 564 q 338 621 410 621 q 143 582 257 621 l 101 703 q 368 756 239 756 q 650 503 650 756 l 650 194 m 333 108 q 475 199 424 108 l 475 347 l 401 347 q 229 219 229 347 q 256 138 229 167 q 333 108 282 108 m 368 885 q 212 944 272 885 q 143 1100 151 1004 l 247 1119 q 368 1013 275 1013 q 447 1040 415 1013 q 490 1119 478 1068 l 596 1100 q 526 944 588 1004 q 368 885 464 885 m 369 -307 q 288 -276 319 -307 q 257 -199 257 -244 q 288 -122 257 -153 q 369 -92 319 -92 q 449 -122 418 -92 q 481 -199 481 -153 q 449 -276 481 -244 q 369 -307 418 -307 z "},"ằ":{"ha":758,"x_min":49,"x_max":706,"o":"m 650 194 q 663 131 650 151 q 706 100 676 111 l 668 -18 q 566 13 606 -12 q 506 89 526 38 q 412 6 468 33 q 286 -21 356 -21 q 113 42 176 -21 q 49 206 49 104 q 135 388 49 325 q 383 451 222 451 l 475 451 l 475 493 q 442 592 475 564 q 338 621 410 621 q 143 582 257 621 l 101 703 q 368 756 239 756 q 650 503 650 756 l 650 194 m 333 108 q 475 199 424 108 l 475 347 l 401 347 q 229 219 229 347 q 256 138 229 167 q 333 108 282 108 m 368 833 q 213 890 274 833 q 143 1033 151 947 l 247 1054 q 292 986 261 1011 q 368 961 322 961 q 446 986 414 961 q 490 1054 478 1011 l 596 1033 q 526 890 588 947 q 368 833 464 833 m 264 1324 l 439 1103 l 369 1040 l 164 1226 l 264 1324 z "},"ẳ":{"ha":758,"x_min":49,"x_max":706,"o":"m 650 194 q 663 131 650 151 q 706 100 676 111 l 668 -18 q 566 13 606 -12 q 506 89 526 38 q 412 6 468 33 q 286 -21 356 -21 q 113 42 176 -21 q 49 206 49 104 q 135 388 49 325 q 383 451 222 451 l 475 451 l 475 493 q 442 592 475 564 q 338 621 410 621 q 143 582 257 621 l 101 703 q 368 756 239 756 q 650 503 650 756 l 650 194 m 333 108 q 475 199 424 108 l 475 347 l 401 347 q 229 219 229 347 q 256 138 229 167 q 333 108 282 108 m 368 833 q 213 890 274 833 q 143 1033 151 947 l 247 1054 q 292 986 261 1011 q 368 961 322 961 q 446 986 414 961 q 490 1054 478 1011 l 596 1033 q 526 890 588 947 q 368 833 464 833 m 311 1168 q 387 1183 364 1172 q 410 1224 410 1194 q 394 1258 410 1247 q 351 1269 379 1269 q 269 1251 313 1269 l 236 1333 q 378 1368 296 1368 q 498 1332 456 1368 q 540 1235 540 1296 q 510 1151 540 1182 q 425 1110 481 1119 l 425 1033 l 311 1033 l 311 1168 z "},"ẵ":{"ha":758,"x_min":49,"x_max":706,"o":"m 650 194 q 663 131 650 151 q 706 100 676 111 l 668 -18 q 566 13 606 -12 q 506 89 526 38 q 412 6 468 33 q 286 -21 356 -21 q 113 42 176 -21 q 49 206 49 104 q 135 388 49 325 q 383 451 222 451 l 475 451 l 475 493 q 442 592 475 564 q 338 621 410 621 q 143 582 257 621 l 101 703 q 368 756 239 756 q 650 503 650 756 l 650 194 m 333 108 q 475 199 424 108 l 475 347 l 401 347 q 229 219 229 347 q 256 138 229 167 q 333 108 282 108 m 371 833 q 215 890 276 833 q 146 1033 154 947 l 250 1054 q 294 986 264 1011 q 371 961 325 961 q 449 986 417 961 q 493 1054 481 1011 l 599 1033 q 528 890 590 947 q 371 833 467 833 m 453 1090 q 403 1100 425 1090 q 353 1128 382 1110 q 319 1148 332 1142 q 293 1154 307 1154 q 253 1140 269 1154 q 219 1093 238 1125 l 124 1139 q 193 1240 151 1201 q 290 1278 235 1278 q 343 1269 321 1278 q 393 1242 365 1260 q 451 1217 428 1217 q 489 1230 472 1217 q 525 1274 506 1243 l 619 1229 q 549 1128 592 1165 q 453 1090 506 1090 z "},"ǎ":{"ha":758,"x_min":49,"x_max":706,"o":"m 650 194 q 663 131 650 151 q 706 100 676 111 l 668 -18 q 566 13 606 -12 q 506 89 526 38 q 412 6 468 33 q 286 -21 356 -21 q 113 42 176 -21 q 49 206 49 104 q 135 388 49 325 q 383 451 222 451 l 475 451 l 475 493 q 442 592 475 564 q 338 621 410 621 q 143 582 257 621 l 101 703 q 368 756 239 756 q 650 503 650 756 l 650 194 m 333 108 q 475 199 424 108 l 475 347 l 401 347 q 229 219 229 347 q 256 138 229 167 q 333 108 282 108 m 550 1111 l 618 1033 l 425 860 l 314 860 l 121 1033 l 189 1111 l 369 989 l 550 1111 z "},"â":{"ha":758,"x_min":49,"x_max":706,"o":"m 650 194 q 663 131 650 151 q 706 100 676 111 l 668 -18 q 566 13 606 -12 q 506 89 526 38 q 412 6 468 33 q 286 -21 356 -21 q 113 42 176 -21 q 49 206 49 104 q 135 388 49 325 q 383 451 222 451 l 475 451 l 475 493 q 442 592 475 564 q 338 621 410 621 q 143 582 257 621 l 101 703 q 368 756 239 756 q 650 503 650 756 l 650 194 m 333 108 q 475 199 424 108 l 475 347 l 401 347 q 229 219 229 347 q 256 138 229 167 q 333 108 282 108 m 189 871 l 121 947 l 313 1122 l 425 1122 l 618 947 l 550 871 l 369 993 l 189 871 z "},"ấ":{"ha":758,"x_min":49,"x_max":776,"o":"m 650 194 q 663 131 650 151 q 706 100 676 111 l 668 -18 q 566 13 606 -12 q 506 89 526 38 q 412 6 468 33 q 286 -21 356 -21 q 113 42 176 -21 q 49 206 49 104 q 135 388 49 325 q 383 451 222 451 l 475 451 l 475 493 q 442 592 475 564 q 338 621 410 621 q 143 582 257 621 l 101 703 q 368 756 239 756 q 650 503 650 756 l 650 194 m 333 108 q 475 199 424 108 l 475 347 l 401 347 q 229 219 229 347 q 256 138 229 167 q 333 108 282 108 m 185 815 l 117 892 l 310 1060 l 421 1060 l 614 892 l 546 815 l 365 929 l 185 815 m 675 1289 l 776 1192 l 571 1006 l 501 1068 l 675 1289 z "},"ậ":{"ha":758,"x_min":49,"x_max":706,"o":"m 650 194 q 663 131 650 151 q 706 100 676 111 l 668 -18 q 566 13 606 -12 q 506 89 526 38 q 412 6 468 33 q 286 -21 356 -21 q 113 42 176 -21 q 49 206 49 104 q 135 388 49 325 q 383 451 222 451 l 475 451 l 475 493 q 442 592 475 564 q 338 621 410 621 q 143 582 257 621 l 101 703 q 368 756 239 756 q 650 503 650 756 l 650 194 m 333 108 q 475 199 424 108 l 475 347 l 401 347 q 229 219 229 347 q 256 138 229 167 q 333 108 282 108 m 189 871 l 121 947 l 313 1122 l 425 1122 l 618 947 l 550 871 l 369 993 l 189 871 m 369 -307 q 288 -276 319 -307 q 257 -199 257 -244 q 288 -122 257 -153 q 369 -92 319 -92 q 449 -122 418 -92 q 481 -199 481 -153 q 449 -276 481 -244 q 369 -307 418 -307 z "},"ầ":{"ha":758,"x_min":-44,"x_max":706,"o":"m 650 194 q 663 131 650 151 q 706 100 676 111 l 668 -18 q 566 13 606 -12 q 506 89 526 38 q 412 6 468 33 q 286 -21 356 -21 q 113 42 176 -21 q 49 206 49 104 q 135 388 49 325 q 383 451 222 451 l 475 451 l 475 493 q 442 592 475 564 q 338 621 410 621 q 143 582 257 621 l 101 703 q 368 756 239 756 q 650 503 650 756 l 650 194 m 333 108 q 475 199 424 108 l 475 347 l 401 347 q 229 219 229 347 q 256 138 229 167 q 333 108 282 108 m 185 815 l 117 892 l 310 1060 l 421 1060 l 614 892 l 546 815 l 365 929 l 185 815 m 56 1289 l 231 1068 l 161 1006 l -44 1192 l 56 1289 z "},"ẩ":{"ha":758,"x_min":49,"x_max":747,"o":"m 650 194 q 663 131 650 151 q 706 100 676 111 l 668 -18 q 566 13 606 -12 q 506 89 526 38 q 412 6 468 33 q 286 -21 356 -21 q 113 42 176 -21 q 49 206 49 104 q 135 388 49 325 q 383 451 222 451 l 475 451 l 475 493 q 442 592 475 564 q 338 621 410 621 q 143 582 257 621 l 101 703 q 368 756 239 756 q 650 503 650 756 l 650 194 m 333 108 q 475 199 424 108 l 475 347 l 401 347 q 229 219 229 347 q 256 138 229 167 q 333 108 282 108 m 185 815 l 117 892 l 310 1060 l 421 1060 l 614 892 l 546 815 l 365 929 l 185 815 m 518 1158 q 594 1174 571 1163 q 617 1214 617 1185 q 601 1249 617 1238 q 558 1260 586 1260 q 476 1242 519 1260 l 443 1324 q 585 1358 503 1358 q 705 1322 663 1358 q 747 1225 747 1286 q 717 1141 747 1172 q 632 1100 688 1110 l 632 1024 l 518 1024 l 518 1158 z "},"ẫ":{"ha":758,"x_min":49,"x_max":706,"o":"m 650 194 q 663 131 650 151 q 706 100 676 111 l 668 -18 q 566 13 606 -12 q 506 89 526 38 q 412 6 468 33 q 286 -21 356 -21 q 113 42 176 -21 q 49 206 49 104 q 135 388 49 325 q 383 451 222 451 l 475 451 l 475 493 q 442 592 475 564 q 338 621 410 621 q 143 582 257 621 l 101 703 q 368 756 239 756 q 650 503 650 756 l 650 194 m 333 108 q 475 199 424 108 l 475 347 l 401 347 q 229 219 229 347 q 256 138 229 167 q 333 108 282 108 m 185 806 l 117 882 l 310 1050 l 421 1050 l 614 882 l 546 806 l 365 919 l 185 806 m 447 1088 q 398 1097 419 1088 q 347 1125 376 1107 q 314 1145 326 1139 q 288 1151 301 1151 q 248 1137 264 1151 q 214 1090 232 1122 l 118 1136 q 188 1237 146 1199 q 285 1275 229 1275 q 338 1266 315 1275 q 388 1239 360 1257 q 446 1214 422 1214 q 483 1227 467 1214 q 519 1271 500 1240 l 614 1226 q 543 1125 586 1163 q 447 1088 500 1088 z "},"ȁ":{"ha":758,"x_min":49,"x_max":706,"o":"m 650 194 q 663 131 650 151 q 706 100 676 111 l 668 -18 q 566 13 606 -12 q 506 89 526 38 q 412 6 468 33 q 286 -21 356 -21 q 113 42 176 -21 q 49 206 49 104 q 135 388 49 325 q 383 451 222 451 l 475 451 l 475 493 q 442 592 475 564 q 338 621 410 621 q 143 582 257 621 l 101 703 q 368 756 239 756 q 650 503 650 756 l 650 194 m 333 108 q 475 199 424 108 l 475 347 l 401 347 q 229 219 229 347 q 256 138 229 167 q 333 108 282 108 m 206 1176 l 333 918 l 235 874 l 76 1110 l 206 1176 m 435 1176 l 550 922 l 450 881 l 304 1113 l 435 1176 z "},"ä":{"ha":758,"x_min":49,"x_max":706,"o":"m 650 194 q 663 131 650 151 q 706 100 676 111 l 668 -18 q 566 13 606 -12 q 506 89 526 38 q 412 6 468 33 q 286 -21 356 -21 q 113 42 176 -21 q 49 206 49 104 q 135 388 49 325 q 383 451 222 451 l 475 451 l 475 493 q 442 592 475 564 q 338 621 410 621 q 143 582 257 621 l 101 703 q 368 756 239 756 q 650 503 650 756 l 650 194 m 333 108 q 475 199 424 108 l 475 347 l 401 347 q 229 219 229 347 q 256 138 229 167 q 333 108 282 108 m 215 1090 q 283 1063 256 1090 q 311 994 311 1035 q 283 926 311 954 q 215 899 256 899 q 145 926 174 899 q 117 994 117 954 q 145 1063 117 1035 q 215 1090 174 1090 m 522 1090 q 592 1063 564 1090 q 619 994 619 1035 q 592 926 619 954 q 522 899 564 899 q 453 926 482 899 q 425 994 425 954 q 453 1063 425 1035 q 522 1090 482 1090 z "},"ǟ":{"ha":758,"x_min":49,"x_max":706,"o":"m 650 194 q 663 131 650 151 q 706 100 676 111 l 668 -18 q 566 13 606 -12 q 506 89 526 38 q 412 6 468 33 q 286 -21 356 -21 q 113 42 176 -21 q 49 206 49 104 q 135 388 49 325 q 383 451 222 451 l 475 451 l 475 493 q 442 592 475 564 q 338 621 410 621 q 143 582 257 621 l 101 703 q 368 756 239 756 q 650 503 650 756 l 650 194 m 333 108 q 475 199 424 108 l 475 347 l 401 347 q 229 219 229 347 q 256 138 229 167 q 333 108 282 108 m 215 1042 q 283 1014 256 1042 q 311 946 311 986 q 283 878 311 906 q 215 850 256 850 q 145 878 174 850 q 117 946 117 906 q 145 1014 117 986 q 215 1042 174 1042 m 522 1042 q 592 1014 564 1042 q 619 946 619 986 q 592 878 619 906 q 522 850 564 850 q 453 878 482 850 q 425 946 425 906 q 453 1014 425 986 q 522 1042 482 1042 m 571 1107 l 167 1107 l 167 1233 l 571 1233 l 571 1107 z "},"ȧ":{"ha":758,"x_min":49,"x_max":706,"o":"m 650 194 q 663 131 650 151 q 706 100 676 111 l 668 -18 q 566 13 606 -12 q 506 89 526 38 q 412 6 468 33 q 286 -21 356 -21 q 113 42 176 -21 q 49 206 49 104 q 135 388 49 325 q 383 451 222 451 l 475 451 l 475 493 q 442 592 475 564 q 338 621 410 621 q 143 582 257 621 l 101 703 q 368 756 239 756 q 650 503 650 756 l 650 194 m 333 108 q 475 199 424 108 l 475 347 l 401 347 q 229 219 229 347 q 256 138 229 167 q 333 108 282 108 m 368 1107 q 449 1076 418 1107 q 481 999 481 1044 q 449 922 481 953 q 368 892 418 892 q 288 922 319 892 q 257 999 257 953 q 288 1076 257 1044 q 368 1107 319 1107 z "},"ạ":{"ha":758,"x_min":49,"x_max":706,"o":"m 650 194 q 663 131 650 151 q 706 100 676 111 l 668 -18 q 566 13 606 -12 q 506 89 526 38 q 412 6 468 33 q 286 -21 356 -21 q 113 42 176 -21 q 49 206 49 104 q 135 388 49 325 q 383 451 222 451 l 475 451 l 475 493 q 442 592 475 564 q 338 621 410 621 q 143 582 257 621 l 101 703 q 368 756 239 756 q 650 503 650 756 l 650 194 m 333 108 q 475 199 424 108 l 475 347 l 401 347 q 229 219 229 347 q 256 138 229 167 q 333 108 282 108 m 369 -307 q 288 -276 319 -307 q 257 -199 257 -244 q 288 -122 257 -153 q 369 -92 319 -92 q 449 -122 418 -92 q 481 -199 481 -153 q 449 -276 481 -244 q 369 -307 418 -307 z "},"ǡ":{"ha":758,"x_min":49,"x_max":706,"o":"m 650 194 q 663 131 650 151 q 706 100 676 111 l 668 -18 q 566 13 606 -12 q 506 89 526 38 q 412 6 468 33 q 286 -21 356 -21 q 113 42 176 -21 q 49 206 49 104 q 135 388 49 325 q 383 451 222 451 l 475 451 l 475 493 q 442 592 475 564 q 338 621 410 621 q 143 582 257 621 l 101 703 q 368 756 239 756 q 650 503 650 756 l 650 194 m 333 108 q 475 199 424 108 l 475 347 l 401 347 q 229 219 229 347 q 256 138 229 167 q 333 108 282 108 m 368 1047 q 449 1016 418 1047 q 481 939 481 985 q 449 863 481 893 q 368 832 418 832 q 288 863 319 832 q 257 939 257 893 q 288 1016 257 985 q 368 1047 319 1047 m 572 1094 l 168 1094 l 168 1221 l 572 1221 l 572 1094 z "},"à":{"ha":758,"x_min":49,"x_max":706,"o":"m 650 194 q 663 131 650 151 q 706 100 676 111 l 668 -18 q 566 13 606 -12 q 506 89 526 38 q 412 6 468 33 q 286 -21 356 -21 q 113 42 176 -21 q 49 206 49 104 q 135 388 49 325 q 383 451 222 451 l 475 451 l 475 493 q 442 592 475 564 q 338 621 410 621 q 143 582 257 621 l 101 703 q 368 756 239 756 q 650 503 650 756 l 650 194 m 333 108 q 475 199 424 108 l 475 347 l 401 347 q 229 219 229 347 q 256 138 229 167 q 333 108 282 108 m 274 1139 l 565 965 l 514 875 l 201 1000 l 274 1139 z "},"ả":{"ha":758,"x_min":49,"x_max":706,"o":"m 650 194 q 663 131 650 151 q 706 100 676 111 l 668 -18 q 566 13 606 -12 q 506 89 526 38 q 412 6 468 33 q 286 -21 356 -21 q 113 42 176 -21 q 49 206 49 104 q 135 388 49 325 q 383 451 222 451 l 475 451 l 475 493 q 442 592 475 564 q 338 621 410 621 q 143 582 257 621 l 101 703 q 368 756 239 756 q 650 503 650 756 l 650 194 m 333 108 q 475 199 424 108 l 475 347 l 401 347 q 229 219 229 347 q 256 138 229 167 q 333 108 282 108 m 313 979 q 388 994 365 983 q 411 1035 411 1006 q 396 1069 411 1058 q 353 1081 381 1081 q 271 1063 314 1081 l 238 1144 q 379 1179 297 1179 q 499 1143 457 1179 q 542 1046 542 1107 q 512 962 542 993 q 426 921 482 931 l 426 844 l 313 844 l 313 979 z "},"ȃ":{"ha":758,"x_min":49,"x_max":706,"o":"m 650 194 q 663 131 650 151 q 706 100 676 111 l 668 -18 q 566 13 606 -12 q 506 89 526 38 q 412 6 468 33 q 286 -21 356 -21 q 113 42 176 -21 q 49 206 49 104 q 135 388 49 325 q 383 451 222 451 l 475 451 l 475 493 q 442 592 475 564 q 338 621 410 621 q 143 582 257 621 l 101 703 q 368 756 239 756 q 650 503 650 756 l 650 194 m 333 108 q 475 199 424 108 l 475 347 l 401 347 q 229 219 229 347 q 256 138 229 167 q 333 108 282 108 m 368 1078 q 526 1018 464 1078 q 596 863 588 958 l 490 843 q 447 922 478 894 q 368 950 415 950 q 247 843 275 950 l 143 863 q 212 1018 151 958 q 368 1078 272 1078 z "},"ɑ":{"ha":831,"x_min":60,"x_max":778,"o":"m 717 222 q 730 149 717 172 q 778 110 743 126 l 725 -21 q 617 20 656 -7 q 558 92 578 47 q 464 9 519 39 q 344 -21 408 -21 q 135 84 210 -21 q 60 367 60 189 q 97 569 60 481 q 201 706 133 657 q 363 756 269 756 q 553 664 475 756 l 563 735 l 717 735 l 717 222 m 386 114 q 470 138 435 114 q 539 210 506 161 l 539 544 q 474 603 507 583 q 397 622 440 622 q 287 560 326 622 q 247 368 247 497 q 283 173 247 232 q 386 114 319 114 z "},"ɒ":{"ha":831,"x_min":53,"x_max":771,"o":"m 486 756 q 696 651 621 756 q 771 368 771 546 q 734 166 771 254 q 629 28 697 78 q 468 -21 561 -21 q 278 71 356 -21 l 268 0 l 114 0 l 114 513 q 101 585 114 563 q 53 625 88 608 l 106 756 q 214 715 175 742 q 272 643 253 688 q 367 726 311 696 q 486 756 422 756 m 433 113 q 544 175 504 113 q 583 367 583 238 q 547 562 583 503 q 444 621 511 621 q 360 597 396 621 q 292 525 325 574 l 292 190 q 357 132 324 151 q 433 113 390 113 z "},"ā":{"ha":758,"x_min":49,"x_max":706,"o":"m 650 194 q 663 131 650 151 q 706 100 676 111 l 668 -18 q 566 13 606 -12 q 506 89 526 38 q 412 6 468 33 q 286 -21 356 -21 q 113 42 176 -21 q 49 206 49 104 q 135 388 49 325 q 383 451 222 451 l 475 451 l 475 493 q 442 592 475 564 q 338 621 410 621 q 143 582 257 621 l 101 703 q 368 756 239 756 q 650 503 650 756 l 650 194 m 333 108 q 475 199 424 108 l 475 347 l 401 347 q 229 219 229 347 q 256 138 229 167 q 333 108 282 108 m 571 918 l 167 918 l 167 1044 l 571 1044 l 571 918 z "},"ą":{"ha":758,"x_min":49,"x_max":706,"o":"m 668 -18 q 536 -93 572 -57 q 500 -168 500 -129 q 576 -232 500 -232 q 661 -222 614 -232 l 647 -340 q 554 -350 596 -350 q 417 -308 469 -350 q 364 -199 364 -267 q 561 15 364 -61 q 506 89 524 42 q 412 6 468 33 q 286 -21 356 -21 q 113 42 176 -21 q 49 206 49 104 q 135 388 49 325 q 383 451 222 451 l 475 451 l 475 493 q 442 592 475 564 q 338 621 410 621 q 143 582 257 621 l 101 703 q 368 756 239 756 q 650 503 650 756 l 650 194 q 663 131 650 151 q 706 100 676 111 l 668 -18 m 333 108 q 475 199 424 108 l 475 347 l 401 347 q 229 219 229 347 q 256 138 229 167 q 333 108 282 108 z "},"å":{"ha":758,"x_min":49,"x_max":706,"o":"m 650 194 q 663 131 650 151 q 706 100 676 111 l 668 -18 q 566 13 606 -12 q 506 89 526 38 q 412 6 468 33 q 286 -21 356 -21 q 113 42 176 -21 q 49 206 49 104 q 135 388 49 325 q 383 451 222 451 l 475 451 l 475 493 q 442 592 475 564 q 338 621 410 621 q 143 582 257 621 l 101 703 q 368 756 239 756 q 650 503 650 756 l 650 194 m 333 108 q 475 199 424 108 l 475 347 l 401 347 q 229 219 229 347 q 256 138 229 167 q 333 108 282 108 m 369 1185 q 497 1137 449 1185 q 546 1018 546 1089 q 497 900 546 949 q 369 851 447 851 q 241 900 290 851 q 192 1018 192 949 q 241 1137 192 1089 q 369 1185 290 1185 m 369 1092 q 319 1072 338 1092 q 301 1018 301 1053 q 319 965 301 983 q 369 946 338 946 q 418 965 400 946 q 436 1018 436 983 q 418 1072 436 1053 q 369 1092 400 1092 z "},"ǻ":{"ha":758,"x_min":49,"x_max":706,"o":"m 551 1261 l 233 1146 l 188 1238 l 482 1400 l 551 1261 m 192 972 q 241 1091 192 1043 q 369 1139 290 1139 q 497 1091 449 1139 q 546 972 546 1043 q 497 854 546 903 q 369 806 447 806 q 241 854 290 806 q 192 972 192 903 m 436 972 q 418 1026 436 1007 q 369 1046 400 1046 q 319 1026 338 1046 q 301 972 301 1007 q 319 919 301 938 q 369 900 338 900 q 418 919 400 900 q 436 972 436 938 m 650 194 q 663 131 650 151 q 706 100 676 111 l 668 -18 q 566 13 606 -12 q 506 89 526 38 q 412 6 468 33 q 286 -21 356 -21 q 113 42 176 -21 q 49 206 49 104 q 135 388 49 325 q 383 451 222 451 l 475 451 l 475 493 q 442 592 475 564 q 338 621 410 621 q 143 582 257 621 l 101 703 q 368 756 239 756 q 650 503 650 756 l 650 194 m 333 108 q 475 199 424 108 l 475 347 l 401 347 q 229 219 229 347 q 256 138 229 167 q 333 108 282 108 z "},"ⱥ":{"ha":758,"x_min":49,"x_max":706,"o":"m 650 194 q 663 131 650 151 q 706 100 676 111 l 668 -18 q 566 13 606 -12 q 506 89 526 38 q 307 -21 440 -11 l 286 -100 l 218 -85 l 236 -17 q 99 57 149 -3 q 49 206 49 117 q 129 379 49 317 q 357 447 210 442 l 403 624 q 351 628 381 628 q 253 617 310 628 q 143 589 197 607 l 101 703 q 368 756 239 756 q 436 751 406 756 l 457 831 l 524 814 l 503 736 q 650 503 650 686 l 650 194 m 489 500 q 465 590 489 561 l 428 447 l 489 447 l 489 500 m 339 104 q 489 197 429 108 l 489 347 l 403 347 l 339 104 m 219 217 q 271 117 219 142 l 329 342 q 219 217 219 321 z "},"ã":{"ha":758,"x_min":49,"x_max":706,"o":"m 650 194 q 663 131 650 151 q 706 100 676 111 l 668 -18 q 566 13 606 -12 q 506 89 526 38 q 412 6 468 33 q 286 -21 356 -21 q 113 42 176 -21 q 49 206 49 104 q 135 388 49 325 q 383 451 222 451 l 475 451 l 475 493 q 442 592 475 564 q 338 621 410 621 q 143 582 257 621 l 101 703 q 368 756 239 756 q 650 503 650 756 l 650 194 m 333 108 q 475 199 424 108 l 475 347 l 401 347 q 229 219 229 347 q 256 138 229 167 q 333 108 282 108 m 450 894 q 399 905 421 894 q 350 933 378 915 q 317 953 329 947 q 290 960 304 960 q 251 945 267 960 q 217 897 235 931 l 121 944 q 190 1049 149 1010 q 288 1089 232 1089 q 340 1079 318 1089 q 390 1051 361 1069 q 422 1031 408 1038 q 449 1025 435 1025 q 486 1039 469 1025 q 522 1085 503 1053 l 617 1038 q 546 933 589 971 q 450 894 503 894 z "},"ɐ":{"ha":758,"x_min":53,"x_max":710,"o":"m 421 114 q 615 153 501 114 l 657 32 q 390 -21 519 -21 q 108 232 108 -21 l 108 540 q 95 603 108 583 q 53 635 82 624 l 90 753 q 192 722 153 747 q 253 646 232 697 q 347 728 290 701 q 472 756 403 756 q 646 693 582 756 q 710 529 710 631 q 623 347 710 410 q 375 283 536 283 l 283 283 l 283 242 q 316 142 283 171 q 421 114 349 114 m 425 626 q 283 536 335 626 l 283 388 l 357 388 q 529 515 529 388 q 503 597 529 568 q 425 626 476 626 z "},"æ":{"ha":1183,"x_min":49,"x_max":1131,"o":"m 1131 385 q 1126 313 1131 342 l 667 313 q 722 160 675 206 q 846 114 768 114 q 938 129 894 114 q 1029 179 981 144 l 1104 78 q 831 -21 979 -21 q 667 13 738 -21 q 551 108 596 46 q 438 9 503 39 q 290 -21 374 -21 q 114 42 179 -21 q 49 206 49 104 q 137 388 49 325 q 389 451 225 451 l 482 451 l 482 493 q 449 591 482 563 q 344 619 417 619 q 149 581 265 619 l 108 703 q 374 756 246 756 q 597 653 529 756 q 819 756 681 756 q 1047 657 964 756 q 1131 385 1131 558 m 956 436 q 811 629 953 629 q 710 581 746 629 q 665 428 674 533 l 956 428 l 956 436 m 342 108 q 428 135 390 108 q 501 215 467 161 q 483 339 486 271 l 483 344 l 410 344 q 238 217 238 344 q 264 136 238 164 q 342 108 290 108 z "},"ǽ":{"ha":1183,"x_min":49,"x_max":1131,"o":"m 1131 385 q 1126 313 1131 342 l 667 313 q 722 160 675 206 q 846 114 768 114 q 938 129 894 114 q 1029 179 981 144 l 1104 78 q 831 -21 979 -21 q 667 13 738 -21 q 551 108 596 46 q 438 9 503 39 q 290 -21 374 -21 q 114 42 179 -21 q 49 206 49 104 q 137 388 49 325 q 389 451 225 451 l 482 451 l 482 493 q 449 591 482 563 q 344 619 417 619 q 149 581 265 619 l 108 703 q 374 756 246 756 q 597 653 529 756 q 819 756 681 756 q 1047 657 964 756 q 1131 385 1131 558 m 956 436 q 811 629 953 629 q 710 581 746 629 q 665 428 674 533 l 956 428 l 956 436 m 342 108 q 428 135 390 108 q 501 215 467 161 q 483 339 486 271 l 483 344 l 410 344 q 238 217 238 344 q 264 136 238 164 q 342 108 290 108 m 700 1139 l 772 1000 l 458 875 l 408 965 l 700 1139 z "},"ǣ":{"ha":1183,"x_min":49,"x_max":1131,"o":"m 1131 385 q 1126 313 1131 342 l 667 313 q 722 160 675 206 q 846 114 768 114 q 938 129 894 114 q 1029 179 981 144 l 1104 78 q 831 -21 979 -21 q 667 13 738 -21 q 551 108 596 46 q 438 9 503 39 q 290 -21 374 -21 q 114 42 179 -21 q 49 206 49 104 q 137 388 49 325 q 389 451 225 451 l 482 451 l 482 493 q 449 591 482 563 q 344 619 417 619 q 149 581 265 619 l 108 703 q 374 756 246 756 q 597 653 529 756 q 819 756 681 756 q 1047 657 964 756 q 1131 385 1131 558 m 956 436 q 811 629 953 629 q 710 581 746 629 q 665 428 674 533 l 956 428 l 956 436 m 342 108 q 428 135 390 108 q 501 215 467 161 q 483 339 486 271 l 483 344 l 410 344 q 238 217 238 344 q 264 136 238 164 q 342 108 290 108 m 796 918 l 392 918 l 392 1044 l 796 1044 l 796 918 z "},"b":{"ha":828,"x_min":107,"x_max":760,"o":"m 488 756 q 688 653 615 756 q 760 368 760 551 q 724 166 760 254 q 624 28 689 78 q 469 -21 558 -21 q 360 4 410 -21 q 275 75 311 29 l 264 0 l 107 0 l 107 1029 l 285 1049 l 285 651 q 373 728 321 701 q 488 756 425 756 m 421 113 q 533 174 493 113 q 574 368 574 236 q 536 565 574 507 q 431 622 499 622 q 285 522 346 622 l 285 197 q 344 135 308 157 q 421 113 379 113 z "},"ḃ":{"ha":828,"x_min":107,"x_max":760,"o":"m 488 756 q 688 653 615 756 q 760 368 760 551 q 724 166 760 254 q 624 28 689 78 q 469 -21 558 -21 q 360 4 410 -21 q 275 75 311 29 l 264 0 l 107 0 l 107 1029 l 285 1049 l 285 651 q 373 728 321 701 q 488 756 425 756 m 421 113 q 533 174 493 113 q 574 368 574 236 q 536 565 574 507 q 431 622 499 622 q 285 522 346 622 l 285 197 q 344 135 308 157 q 421 113 379 113 m 438 1351 q 519 1320 488 1351 q 550 1243 550 1289 q 519 1167 550 1197 q 438 1136 488 1136 q 358 1167 389 1136 q 326 1243 326 1197 q 358 1320 326 1289 q 438 1351 389 1351 z "},"ḅ":{"ha":828,"x_min":107,"x_max":760,"o":"m 488 756 q 688 653 615 756 q 760 368 760 551 q 724 166 760 254 q 624 28 689 78 q 469 -21 558 -21 q 360 4 410 -21 q 275 75 311 29 l 264 0 l 107 0 l 107 1029 l 285 1049 l 285 651 q 373 728 321 701 q 488 756 425 756 m 421 113 q 533 174 493 113 q 574 368 574 236 q 536 565 574 507 q 431 622 499 622 q 285 522 346 622 l 285 197 q 344 135 308 157 q 421 113 379 113 m 428 -307 q 347 -276 378 -307 q 315 -199 315 -244 q 347 -122 315 -153 q 428 -92 378 -92 q 508 -122 476 -92 q 539 -199 539 -153 q 508 -276 539 -244 q 428 -307 476 -307 z "},"ꞵ":{"ha":840,"x_min":107,"x_max":792,"o":"m 517 563 q 713 490 633 551 q 792 285 792 428 q 750 125 792 194 q 638 17 708 56 q 481 -21 567 -21 q 281 46 374 -21 l 281 -279 l 107 -303 l 107 756 q 191 971 107 893 q 415 1049 275 1049 q 572 1016 504 1049 q 678 924 640 983 q 715 789 715 865 q 662 638 715 696 q 517 563 608 579 m 444 118 q 565 164 518 118 q 613 296 613 210 q 406 490 613 490 l 343 490 l 357 615 l 407 615 q 507 656 469 615 q 544 776 544 696 q 510 883 544 847 q 414 918 475 918 q 281 756 281 918 l 281 164 q 444 118 346 118 z "},"ɓ":{"ha":828,"x_min":107,"x_max":760,"o":"m 485 756 q 688 654 615 756 q 760 368 760 553 q 724 166 760 254 q 624 28 689 78 q 469 -21 558 -21 q 360 4 410 -21 q 275 75 311 29 l 264 0 l 107 0 l 107 815 q 174 984 107 919 q 365 1049 242 1049 q 554 1006 464 1049 l 503 886 q 382 914 443 914 q 307 890 329 914 q 285 813 285 865 l 285 651 q 372 728 321 701 q 485 756 424 756 m 422 113 q 533 174 493 113 q 574 368 574 236 q 536 565 574 507 q 431 622 499 622 q 285 522 346 622 l 285 197 q 345 135 310 157 q 422 113 381 113 z "},"ʭ":{"ha":492,"x_min":42,"x_max":450,"o":"m 42 556 l 42 774 l 450 774 l 450 556 l 339 556 l 339 675 l 153 675 l 153 556 l 42 556 m 42 0 l 42 218 l 450 218 l 450 0 l 339 0 l 339 119 l 153 119 l 153 0 l 42 0 z "},"ʘ":{"ha":1104,"x_min":60,"x_max":1044,"o":"m 553 981 q 808 920 697 981 q 982 747 919 860 q 1044 481 1044 635 q 982 217 1044 331 q 808 41 919 103 q 553 -21 696 -21 q 297 40 408 -21 q 122 213 185 100 q 60 481 60 326 q 122 743 60 629 q 297 919 185 857 q 553 981 410 981 m 553 850 q 319 758 404 850 q 233 481 233 665 q 319 202 233 294 q 553 110 406 110 q 787 201 703 110 q 871 481 871 293 q 785 758 871 665 q 553 850 700 850 m 556 582 q 631 553 601 582 q 660 481 660 524 q 631 410 660 439 q 556 381 601 381 q 481 410 510 381 q 451 481 451 439 q 481 553 451 524 q 556 582 510 582 z "},"ʬ":{"ha":650,"x_min":42,"x_max":608,"o":"m 608 925 l 519 556 l 386 556 l 329 825 l 269 556 l 133 556 l 42 925 l 154 925 l 207 643 l 271 925 l 392 925 l 450 642 l 504 925 l 608 925 m 608 369 l 519 0 l 386 0 l 329 269 l 269 0 l 133 0 l 42 369 l 154 369 l 207 88 l 271 369 l 392 369 l 450 86 l 504 369 l 608 369 z "},"ƀ":{"ha":838,"x_min":21,"x_max":769,"o":"m 497 756 q 697 653 625 756 q 769 368 769 551 q 734 166 769 254 q 633 28 699 78 q 479 -21 568 -21 q 370 4 419 -21 q 285 75 321 29 l 274 0 l 117 0 l 117 835 l 21 835 l 21 949 l 117 949 l 117 1029 l 294 1049 l 294 949 l 489 949 l 489 835 l 294 835 l 294 651 q 383 728 331 701 q 497 756 435 756 m 431 113 q 543 174 503 113 q 583 368 583 236 q 546 565 583 507 q 440 622 508 622 q 294 522 356 622 l 294 197 q 353 135 318 157 q 431 113 389 113 z "},"ƃ":{"ha":828,"x_min":107,"x_max":760,"o":"m 485 746 q 688 645 615 746 q 760 363 760 544 q 724 164 760 251 q 624 28 689 76 q 469 -21 558 -21 q 360 4 410 -21 q 275 75 311 29 l 264 0 l 107 0 l 107 1029 l 592 1029 l 571 899 l 285 899 l 285 642 q 372 719 321 692 q 485 746 424 746 m 422 113 q 533 173 493 113 q 574 363 574 233 q 536 556 574 499 q 431 613 499 613 q 285 514 346 613 l 285 197 q 345 135 310 157 q 422 113 381 113 z "},"c":{"ha":664,"x_min":60,"x_max":642,"o":"m 403 756 q 533 735 475 756 q 642 669 590 714 l 563 563 q 490 603 525 590 q 414 615 456 615 q 249 364 249 615 q 292 180 249 236 q 414 124 335 124 q 485 136 453 124 q 563 176 518 149 l 642 64 q 404 -21 538 -21 q 221 26 299 -21 q 101 158 143 72 q 60 361 60 244 q 101 567 60 478 q 221 706 143 657 q 403 756 299 756 z "},"ć":{"ha":664,"x_min":60,"x_max":642,"o":"m 403 756 q 533 735 475 756 q 642 669 590 714 l 563 563 q 490 603 525 590 q 414 615 456 615 q 249 364 249 615 q 292 180 249 236 q 414 124 335 124 q 485 136 453 124 q 563 176 518 149 l 642 64 q 404 -21 538 -21 q 221 26 299 -21 q 101 158 143 72 q 60 361 60 244 q 101 567 60 478 q 221 706 143 657 q 403 756 299 756 m 508 1139 l 581 1000 l 267 875 l 217 965 l 508 1139 z "},"č":{"ha":664,"x_min":60,"x_max":651,"o":"m 403 756 q 533 735 475 756 q 642 669 590 714 l 563 563 q 490 603 525 590 q 414 615 456 615 q 249 364 249 615 q 292 180 249 236 q 414 124 335 124 q 485 136 453 124 q 563 176 518 149 l 642 64 q 404 -21 538 -21 q 221 26 299 -21 q 101 158 143 72 q 60 361 60 244 q 101 567 60 478 q 221 706 143 657 q 403 756 299 756 m 583 1111 l 651 1033 l 458 860 l 347 860 l 154 1033 l 222 1111 l 403 989 l 583 1111 z "},"ç":{"ha":664,"x_min":60,"x_max":642,"o":"m 642 64 q 440 -19 551 -10 l 440 -72 q 544 -113 510 -79 q 578 -200 578 -147 q 525 -310 578 -269 q 388 -351 472 -351 q 307 -341 344 -351 q 244 -312 269 -331 l 288 -225 q 375 -247 329 -247 q 443 -200 443 -247 q 413 -160 443 -172 q 317 -147 383 -147 l 333 -15 q 132 108 204 8 q 60 361 60 207 q 101 567 60 478 q 221 706 143 657 q 403 756 299 756 q 533 735 475 756 q 642 669 590 714 l 563 563 q 490 603 525 590 q 414 615 456 615 q 249 364 249 615 q 292 180 249 236 q 414 124 335 124 q 485 136 453 124 q 563 176 518 149 l 642 64 z "},"ĉ":{"ha":664,"x_min":60,"x_max":651,"o":"m 403 756 q 533 735 475 756 q 642 669 590 714 l 563 563 q 490 603 525 590 q 414 615 456 615 q 249 364 249 615 q 292 180 249 236 q 414 124 335 124 q 485 136 453 124 q 563 176 518 149 l 642 64 q 404 -21 538 -21 q 221 26 299 -21 q 101 158 143 72 q 60 361 60 244 q 101 567 60 478 q 221 706 143 657 q 403 756 299 756 m 222 871 l 154 947 l 346 1122 l 458 1122 l 651 947 l 583 871 l 403 993 l 222 871 z "},"ɕ":{"ha":688,"x_min":60,"x_max":667,"o":"m 496 340 q 619 298 571 340 q 667 182 667 256 q 595 32 667 85 q 413 -21 524 -21 q 313 -10 357 -21 l 268 -111 l 171 -72 l 218 31 q 101 162 143 76 q 60 361 60 247 q 101 567 60 478 q 221 706 143 657 q 403 756 299 756 q 533 735 475 756 q 642 669 590 714 l 561 561 q 490 602 525 589 q 414 615 456 615 q 249 364 249 615 q 290 178 249 240 q 374 302 326 264 q 496 340 421 340 m 433 115 q 506 133 481 115 q 532 185 532 150 q 519 221 532 208 q 483 233 507 233 q 425 210 449 233 q 372 124 401 186 q 433 115 399 115 z "},"ċ":{"ha":664,"x_min":60,"x_max":642,"o":"m 403 756 q 533 735 475 756 q 642 669 590 714 l 563 563 q 490 603 525 590 q 414 615 456 615 q 249 364 249 615 q 292 180 249 236 q 414 124 335 124 q 485 136 453 124 q 563 176 518 149 l 642 64 q 404 -21 538 -21 q 221 26 299 -21 q 101 158 143 72 q 60 361 60 244 q 101 567 60 478 q 221 706 143 657 q 403 756 299 756 m 401 1107 q 483 1076 451 1107 q 514 999 514 1044 q 483 922 514 953 q 401 892 451 892 q 322 922 353 892 q 290 999 290 953 q 322 1076 290 1044 q 401 1107 353 1107 z "},"ƈ":{"ha":664,"x_min":60,"x_max":876,"o":"m 701 1049 q 876 996 799 1049 l 819 885 q 771 907 793 900 q 721 914 749 914 q 642 819 642 914 l 642 669 l 574 576 q 501 606 538 596 q 417 615 465 615 q 249 364 249 615 q 292 180 249 236 q 414 124 335 124 q 485 136 453 124 q 563 176 518 149 l 642 64 q 404 -21 538 -21 q 221 26 299 -21 q 101 158 143 72 q 60 361 60 244 q 101 567 60 478 q 217 706 143 657 q 389 756 292 756 q 478 742 442 756 l 478 821 q 536 990 478 931 q 701 1049 594 1049 z "},"ʗ":{"ha":682,"x_min":78,"x_max":660,"o":"m 436 756 q 660 669 564 756 l 583 565 q 513 603 547 592 q 440 615 479 615 q 311 522 356 615 q 267 224 267 429 q 310 -69 267 19 q 436 -157 353 -157 q 507 -144 474 -157 q 581 -104 540 -132 l 660 -217 q 432 -300 554 -300 q 170 -167 263 -300 q 78 221 78 -33 q 172 616 78 476 q 436 756 265 756 z "},"ȼ":{"ha":664,"x_min":60,"x_max":642,"o":"m 414 124 q 485 136 453 124 q 563 176 518 149 l 642 64 q 404 -21 538 -21 q 329 -14 368 -21 l 306 -100 l 236 -83 l 260 6 q 112 138 164 46 q 60 361 60 229 q 101 567 60 478 q 221 706 143 657 q 403 756 299 756 q 463 751 433 756 l 483 831 l 553 814 l 532 735 q 642 669 592 714 l 563 563 q 494 601 531 586 l 368 129 q 414 124 386 124 m 249 364 q 303 165 249 224 l 425 615 l 414 615 q 249 364 249 615 z "},"d":{"ha":832,"x_min":67,"x_max":725,"o":"m 725 1029 l 725 0 l 568 0 l 556 93 q 467 10 521 40 q 346 -21 414 -21 q 139 83 211 -21 q 67 367 67 188 q 103 567 67 479 q 206 706 139 656 q 363 756 274 756 q 547 676 468 756 l 547 1049 l 725 1029 m 396 114 q 479 137 443 114 q 547 208 515 160 l 547 544 q 483 603 515 583 q 407 622 450 622 q 295 559 336 622 q 254 368 254 496 q 290 173 254 232 q 396 114 326 114 z "},"ð":{"ha":799,"x_min":60,"x_max":731,"o":"m 485 928 q 674 698 618 831 q 731 376 731 565 q 690 171 731 261 q 572 30 649 81 q 390 -21 494 -21 q 222 20 297 -21 q 103 140 147 61 q 60 325 60 218 q 94 493 60 415 q 194 617 129 571 q 344 663 258 663 q 538 585 460 663 q 483 717 519 660 q 385 824 447 775 l 299 739 l 183 793 l 272 888 q 132 925 206 911 l 168 1047 q 374 989 281 1028 l 472 1094 l 568 1011 l 485 928 m 390 113 q 508 176 467 113 q 550 363 550 239 l 549 453 q 386 533 488 533 q 242 331 242 533 q 281 167 242 222 q 390 113 321 113 z "},"ȸ":{"ha":1213,"x_min":67,"x_max":1144,"o":"m 890 756 q 1076 653 1008 756 q 1144 368 1144 551 q 1110 166 1144 254 q 1013 28 1075 78 q 868 -21 950 -21 q 766 9 811 -21 q 689 90 721 39 l 676 0 l 540 0 l 528 93 q 442 10 493 40 q 332 -21 392 -21 q 137 84 207 -21 q 67 367 67 189 q 101 567 67 479 q 199 706 136 656 q 344 756 263 756 q 440 731 394 756 q 519 658 485 706 l 519 1029 l 697 1049 l 697 651 q 890 756 771 756 m 382 114 q 454 138 421 114 q 519 208 488 161 l 519 535 q 388 622 463 622 q 291 558 328 622 q 254 368 254 494 q 382 114 254 114 m 826 113 q 921 175 883 113 q 958 368 958 238 q 833 622 958 622 q 757 598 789 622 q 697 531 725 574 l 697 214 q 755 138 726 163 q 826 113 783 113 z "},"ď":{"ha":897,"x_min":67,"x_max":956,"o":"m 725 1029 l 725 0 l 568 0 l 556 93 q 467 10 521 40 q 346 -21 414 -21 q 139 83 211 -21 q 67 367 67 188 q 103 567 67 479 q 206 706 139 656 q 363 756 274 756 q 547 676 468 756 l 547 1049 l 725 1029 m 396 114 q 479 137 443 114 q 547 208 515 160 l 547 544 q 483 603 515 583 q 407 622 450 622 q 295 559 336 622 q 254 368 254 496 q 290 173 254 232 q 396 114 326 114 m 882 750 l 956 1029 l 813 1049 l 783 765 l 882 750 z "},"ḓ":{"ha":832,"x_min":67,"x_max":725,"o":"m 725 1029 l 725 0 l 568 0 l 556 93 q 467 10 521 40 q 346 -21 414 -21 q 139 83 211 -21 q 67 367 67 188 q 103 567 67 479 q 206 706 139 656 q 363 756 274 756 q 547 676 468 756 l 547 1049 l 725 1029 m 396 114 q 479 137 443 114 q 547 208 515 160 l 547 544 q 483 603 515 583 q 407 622 450 622 q 295 559 336 622 q 254 368 254 496 q 290 173 254 232 q 396 114 326 114 m 247 -343 l 179 -265 l 371 -90 l 483 -90 l 676 -265 l 608 -343 l 428 -221 l 247 -343 z "},"đ":{"ha":842,"x_min":67,"x_max":822,"o":"m 822 949 l 822 835 l 725 835 l 725 0 l 568 0 l 556 93 q 467 10 521 40 q 346 -21 414 -21 q 139 83 211 -21 q 67 367 67 188 q 103 567 67 479 q 206 706 139 656 q 363 756 274 756 q 547 676 468 756 l 547 835 l 344 835 l 344 949 l 547 949 l 547 1049 l 725 1029 l 725 949 l 822 949 m 396 114 q 479 137 443 114 q 547 208 515 160 l 547 544 q 483 603 515 583 q 407 622 450 622 q 295 559 336 622 q 254 368 254 496 q 290 173 254 232 q 396 114 326 114 z "},"ȡ":{"ha":1064,"x_min":67,"x_max":1082,"o":"m 921 328 q 1037 286 992 328 q 1082 175 1082 244 q 1012 31 1082 82 q 829 -21 942 -21 q 751 -14 796 -21 l 707 -111 l 611 -72 l 657 22 q 572 115 600 57 q 346 -21 489 -21 q 139 83 211 -21 q 67 367 67 188 q 103 569 67 481 q 206 706 139 657 q 365 756 274 756 q 547 676 468 756 l 547 1049 l 725 1029 l 725 232 q 731 176 725 194 q 809 292 765 256 q 921 328 853 328 m 396 114 q 480 138 444 114 q 549 210 515 161 q 547 242 547 221 l 547 544 q 483 603 515 583 q 408 622 450 622 q 295 559 336 622 q 254 368 254 496 q 290 173 254 232 q 396 114 326 114 m 846 115 q 947 178 947 115 q 936 209 947 197 q 904 221 925 221 q 856 199 876 221 q 808 117 835 176 q 846 115 819 115 z "},"ḋ":{"ha":832,"x_min":67,"x_max":725,"o":"m 725 1029 l 725 0 l 568 0 l 556 93 q 467 10 521 40 q 346 -21 414 -21 q 139 83 211 -21 q 67 367 67 188 q 103 567 67 479 q 206 706 139 656 q 363 756 274 756 q 547 676 468 756 l 547 1049 l 725 1029 m 396 114 q 479 137 443 114 q 547 208 515 160 l 547 544 q 483 603 515 583 q 407 622 450 622 q 295 559 336 622 q 254 368 254 496 q 290 173 254 232 q 396 114 326 114 m 414 1351 q 495 1320 464 1351 q 526 1243 526 1289 q 495 1167 526 1197 q 414 1136 464 1136 q 334 1167 365 1136 q 303 1243 303 1197 q 334 1320 303 1289 q 414 1351 365 1351 z "},"ḍ":{"ha":832,"x_min":67,"x_max":725,"o":"m 725 1029 l 725 0 l 568 0 l 556 93 q 467 10 521 40 q 346 -21 414 -21 q 139 83 211 -21 q 67 367 67 188 q 103 567 67 479 q 206 706 139 656 q 363 756 274 756 q 547 676 468 756 l 547 1049 l 725 1029 m 396 114 q 479 137 443 114 q 547 208 515 160 l 547 544 q 483 603 515 583 q 407 622 450 622 q 295 559 336 622 q 254 368 254 496 q 290 173 254 232 q 396 114 326 114 m 428 -307 q 347 -276 378 -307 q 315 -199 315 -244 q 347 -122 315 -153 q 428 -92 378 -92 q 508 -122 476 -92 q 539 -199 539 -153 q 508 -276 539 -244 q 428 -307 476 -307 z "},"ƍ":{"ha":803,"x_min":60,"x_max":743,"o":"m 532 96 q 638 9 608 54 q 667 -99 667 -36 q 636 -203 667 -156 q 544 -278 606 -250 q 393 -306 482 -306 q 136 -225 244 -306 l 221 -125 q 297 -164 260 -151 q 378 -176 333 -176 q 464 -154 436 -176 q 492 -96 492 -132 q 480 -49 492 -68 q 437 -12 468 -31 q 340 35 406 7 q 127 176 194 94 q 60 394 60 257 q 101 579 60 497 q 220 708 143 661 q 401 756 297 756 q 651 661 558 756 q 743 401 743 567 q 688 222 743 299 q 532 96 632 144 m 247 393 q 263 282 247 325 q 319 207 279 239 q 433 140 358 175 q 527 249 497 188 q 557 396 557 310 q 403 621 557 621 q 287 564 326 621 q 247 393 247 507 z "},"ʤ":{"ha":1374,"x_min":67,"x_max":1340,"o":"m 1028 292 q 1260 216 1179 286 q 1340 11 1340 146 q 1297 -151 1340 -81 q 1174 -262 1254 -222 q 986 -303 1094 -303 q 807 -269 883 -303 q 674 -168 731 -235 l 772 -75 q 869 -143 821 -122 q 978 -164 917 -164 q 1108 -117 1061 -164 q 1154 19 1154 -71 q 1108 141 1154 104 q 961 178 1063 178 l 842 178 l 842 290 l 1100 597 l 725 597 l 725 0 l 568 0 l 556 93 q 467 10 521 40 q 346 -21 414 -21 q 139 83 211 -21 q 67 367 67 188 q 103 567 67 479 q 206 706 139 656 q 363 756 274 756 q 547 676 468 756 l 547 1049 l 725 1029 l 725 735 l 1301 735 l 1301 608 l 1028 292 m 396 114 q 479 137 443 114 q 547 208 515 160 l 547 544 q 483 603 515 583 q 407 622 450 622 q 295 559 336 622 q 254 368 254 496 q 290 173 254 232 q 396 114 326 114 z "},"ɗ":{"ha":832,"x_min":67,"x_max":960,"o":"m 785 1049 q 960 996 882 1049 l 903 885 q 854 907 876 900 q 804 914 832 914 q 725 819 725 914 l 725 0 l 568 0 l 556 93 q 467 10 521 40 q 346 -21 414 -21 q 139 83 211 -21 q 67 367 67 188 q 103 569 67 481 q 206 706 139 657 q 365 756 274 756 q 547 676 468 756 l 547 811 q 610 985 547 922 q 785 1049 672 1049 m 396 114 q 479 137 443 114 q 547 208 515 160 l 547 544 q 483 603 515 583 q 408 622 450 622 q 295 559 336 622 q 254 368 254 496 q 290 173 254 232 q 396 114 326 114 z "},"ḏ":{"ha":832,"x_min":67,"x_max":725,"o":"m 725 1029 l 725 0 l 568 0 l 556 93 q 467 10 521 40 q 346 -21 414 -21 q 139 83 211 -21 q 67 367 67 188 q 103 567 67 479 q 206 706 139 656 q 363 756 274 756 q 547 676 468 756 l 547 1049 l 725 1029 m 396 114 q 479 137 443 114 q 547 208 515 160 l 547 544 q 483 603 515 583 q 407 622 450 622 q 295 559 336 622 q 254 368 254 496 q 290 173 254 232 q 396 114 326 114 m 629 -253 l 225 -253 l 225 -126 l 629 -126 l 629 -253 z "},"ɖ":{"ha":832,"x_min":67,"x_max":971,"o":"m 971 -246 q 792 -303 899 -303 q 613 -240 679 -303 q 547 -60 547 -178 l 547 81 q 461 6 513 33 q 346 -21 410 -21 q 139 83 211 -21 q 67 367 67 188 q 103 569 67 481 q 206 706 139 657 q 365 756 274 756 q 547 676 468 756 l 547 1049 l 725 1029 l 725 -75 q 808 -168 725 -168 q 859 -161 838 -168 q 908 -140 881 -154 l 971 -246 m 396 114 q 479 137 443 114 q 547 208 515 160 l 547 544 q 483 603 515 583 q 408 622 450 622 q 295 559 336 622 q 254 368 254 496 q 290 173 254 232 q 396 114 326 114 z "},"ƌ":{"ha":832,"x_min":67,"x_max":725,"o":"m 725 0 l 568 0 l 556 93 q 467 10 521 40 q 346 -21 414 -21 q 139 83 211 -21 q 67 363 67 186 q 103 560 67 474 q 206 697 139 647 q 365 746 274 746 q 547 667 468 746 l 547 899 l 251 899 l 251 1029 l 725 1029 l 725 0 m 396 114 q 479 137 443 114 q 547 208 515 160 l 547 535 q 483 593 515 574 q 408 613 450 613 q 295 550 336 613 q 254 363 254 488 q 290 172 254 231 q 396 114 326 114 z "},"ǳ":{"ha":1456,"x_min":67,"x_max":1424,"o":"m 725 1029 l 725 0 l 568 0 l 556 93 q 467 10 521 40 q 346 -21 414 -21 q 139 83 211 -21 q 67 367 67 188 q 103 567 67 479 q 206 706 139 656 q 363 756 274 756 q 547 676 468 756 l 547 1049 l 725 1029 m 396 114 q 479 137 443 114 q 547 208 515 160 l 547 544 q 483 603 515 583 q 407 622 450 622 q 295 559 336 622 q 254 368 254 496 q 290 173 254 232 q 396 114 326 114 m 1417 735 l 1417 607 l 1061 139 l 1424 139 l 1406 0 l 857 0 l 857 128 l 1214 596 l 888 596 l 888 735 l 1417 735 z "},"ʣ":{"ha":1321,"x_min":67,"x_max":1289,"o":"m 1289 139 l 1271 0 l 568 0 l 556 93 q 467 10 521 40 q 346 -21 414 -21 q 139 83 211 -21 q 67 367 67 188 q 103 567 67 479 q 206 706 139 656 q 363 756 274 756 q 547 676 468 756 l 547 1049 l 725 1029 l 725 735 l 1283 735 l 1283 607 l 918 139 l 1289 139 m 396 114 q 479 137 443 114 q 547 208 515 160 l 547 544 q 483 603 515 583 q 407 622 450 622 q 295 559 336 622 q 254 368 254 496 q 290 173 254 232 q 396 114 326 114 m 725 596 l 725 128 l 1089 596 l 725 596 z "},"ǆ":{"ha":1456,"x_min":67,"x_max":1424,"o":"m 725 1029 l 725 0 l 568 0 l 556 93 q 467 10 521 40 q 346 -21 414 -21 q 139 83 211 -21 q 67 367 67 188 q 103 567 67 479 q 206 706 139 656 q 363 756 274 756 q 547 676 468 756 l 547 1049 l 725 1029 m 396 114 q 479 137 443 114 q 547 208 515 160 l 547 544 q 483 603 515 583 q 407 622 450 622 q 295 559 336 622 q 254 368 254 496 q 290 173 254 232 q 396 114 326 114 m 1417 735 l 1417 607 l 1061 139 l 1424 139 l 1406 0 l 857 0 l 857 128 l 1214 596 l 888 596 l 888 735 l 1417 735 m 1326 1111 l 1394 1033 l 1201 860 l 1090 860 l 897 1033 l 965 1111 l 1146 989 l 1326 1111 z "},"ʥ":{"ha":1394,"x_min":67,"x_max":1419,"o":"m 1419 188 q 1143 0 1419 3 q 1136 -174 1136 -54 l 1025 -174 q 1032 0 1025 -68 l 568 0 l 556 93 q 467 10 521 40 q 346 -21 414 -21 q 139 83 211 -21 q 67 367 67 188 q 103 567 67 479 q 206 706 139 656 q 363 756 274 756 q 547 676 468 756 l 547 1049 l 725 1029 l 725 735 l 1282 735 l 1282 611 l 917 139 l 1053 139 q 1260 336 1097 336 q 1374 297 1329 336 q 1419 188 1419 257 m 396 114 q 479 137 443 114 q 547 208 515 160 l 547 544 q 483 603 515 583 q 407 622 450 622 q 295 559 336 622 q 254 368 254 496 q 290 173 254 232 q 396 114 326 114 m 725 596 l 725 132 l 1083 596 l 725 596 m 1165 139 q 1260 152 1232 140 q 1289 194 1289 164 q 1247 235 1289 235 q 1197 213 1218 235 q 1165 139 1176 192 z "},"e":{"ha":763,"x_min":60,"x_max":710,"o":"m 710 385 q 706 313 710 371 l 244 313 q 300 160 253 206 q 425 114 347 114 q 517 130 474 114 q 608 179 560 146 l 682 78 q 410 -21 560 -21 q 151 82 242 -21 q 60 363 60 185 q 99 565 60 475 q 211 705 138 654 q 386 756 285 756 q 625 658 540 756 q 710 385 710 560 m 533 436 q 390 629 533 629 q 288 581 325 629 q 244 428 251 533 l 533 428 l 533 436 z "},"é":{"ha":763,"x_min":60,"x_max":710,"o":"m 710 385 q 706 313 710 371 l 244 313 q 300 160 253 206 q 425 114 347 114 q 517 130 474 114 q 608 179 560 146 l 682 78 q 410 -21 560 -21 q 151 82 242 -21 q 60 363 60 185 q 99 565 60 475 q 211 705 138 654 q 386 756 285 756 q 625 658 540 756 q 710 385 710 560 m 533 436 q 390 629 533 629 q 288 581 325 629 q 244 428 251 533 l 533 428 l 533 436 m 496 1139 l 568 1000 l 254 875 l 204 965 l 496 1139 z "},"ĕ":{"ha":763,"x_min":60,"x_max":710,"o":"m 710 385 q 706 313 710 371 l 244 313 q 300 160 253 206 q 425 114 347 114 q 517 130 474 114 q 608 179 560 146 l 682 78 q 410 -21 560 -21 q 151 82 242 -21 q 60 363 60 185 q 99 565 60 475 q 211 705 138 654 q 386 756 285 756 q 625 658 540 756 q 710 385 710 560 m 533 436 q 390 629 533 629 q 288 581 325 629 q 244 428 251 533 l 533 428 l 533 436 m 389 885 q 233 944 293 885 q 164 1100 172 1004 l 268 1119 q 389 1013 296 1013 q 467 1040 436 1013 q 511 1119 499 1068 l 617 1100 q 547 944 608 1004 q 389 885 485 885 z "},"ě":{"ha":763,"x_min":60,"x_max":710,"o":"m 710 385 q 706 313 710 371 l 244 313 q 300 160 253 206 q 425 114 347 114 q 517 130 474 114 q 608 179 560 146 l 682 78 q 410 -21 560 -21 q 151 82 242 -21 q 60 363 60 185 q 99 565 60 475 q 211 705 138 654 q 386 756 285 756 q 625 658 540 756 q 710 385 710 560 m 533 436 q 390 629 533 629 q 288 581 325 629 q 244 428 251 533 l 533 428 l 533 436 m 571 1111 l 639 1033 l 446 860 l 335 860 l 142 1033 l 210 1111 l 390 989 l 571 1111 z "},"ȩ":{"ha":763,"x_min":60,"x_max":710,"o":"m 710 385 q 706 313 710 371 l 244 313 q 300 160 253 206 q 425 114 347 114 q 517 130 474 114 q 608 179 560 146 l 682 78 q 456 -18 576 -7 l 456 -72 q 559 -113 525 -79 q 593 -200 593 -147 q 540 -310 593 -269 q 403 -351 488 -351 q 322 -341 360 -351 q 260 -312 285 -331 l 303 -225 q 390 -247 344 -247 q 458 -200 458 -247 q 428 -160 458 -172 q 332 -147 399 -147 l 349 -17 q 134 102 208 1 q 60 363 60 203 q 99 565 60 475 q 211 705 138 654 q 386 756 285 756 q 625 658 540 756 q 710 385 710 560 m 533 436 q 390 629 533 629 q 288 581 325 629 q 244 428 251 533 l 533 428 l 533 436 z "},"ê":{"ha":763,"x_min":60,"x_max":710,"o":"m 710 385 q 706 313 710 371 l 244 313 q 300 160 253 206 q 425 114 347 114 q 517 130 474 114 q 608 179 560 146 l 682 78 q 410 -21 560 -21 q 151 82 242 -21 q 60 363 60 185 q 99 565 60 475 q 211 705 138 654 q 386 756 285 756 q 625 658 540 756 q 710 385 710 560 m 533 436 q 390 629 533 629 q 288 581 325 629 q 244 428 251 533 l 533 428 l 533 436 m 210 871 l 142 947 l 333 1122 l 446 1122 l 639 947 l 571 871 l 390 993 l 210 871 z "},"ế":{"ha":763,"x_min":60,"x_max":797,"o":"m 710 385 q 706 313 710 371 l 244 313 q 300 160 253 206 q 425 114 347 114 q 517 130 474 114 q 608 179 560 146 l 682 78 q 410 -21 560 -21 q 151 82 242 -21 q 60 363 60 185 q 99 565 60 475 q 211 705 138 654 q 386 756 285 756 q 625 658 540 756 q 710 385 710 560 m 533 436 q 390 629 533 629 q 288 581 325 629 q 244 428 251 533 l 533 428 l 533 436 m 206 815 l 138 892 l 331 1060 l 442 1060 l 635 892 l 567 815 l 386 929 l 206 815 m 696 1289 l 797 1192 l 592 1006 l 522 1068 l 696 1289 z "},"ệ":{"ha":763,"x_min":60,"x_max":710,"o":"m 710 385 q 706 313 710 371 l 244 313 q 300 160 253 206 q 425 114 347 114 q 517 130 474 114 q 608 179 560 146 l 682 78 q 410 -21 560 -21 q 151 82 242 -21 q 60 363 60 185 q 99 565 60 475 q 211 705 138 654 q 386 756 285 756 q 625 658 540 756 q 710 385 710 560 m 533 436 q 390 629 533 629 q 288 581 325 629 q 244 428 251 533 l 533 428 l 533 436 m 210 871 l 142 947 l 333 1122 l 446 1122 l 639 947 l 571 871 l 390 993 l 210 871 m 407 -307 q 326 -276 357 -307 q 294 -199 294 -244 q 326 -122 294 -153 q 407 -92 357 -92 q 487 -122 456 -92 q 518 -199 518 -153 q 487 -276 518 -244 q 407 -307 456 -307 z "},"ề":{"ha":763,"x_min":-24,"x_max":710,"o":"m 710 385 q 706 313 710 371 l 244 313 q 300 160 253 206 q 425 114 347 114 q 517 130 474 114 q 608 179 560 146 l 682 78 q 410 -21 560 -21 q 151 82 242 -21 q 60 363 60 185 q 99 565 60 475 q 211 705 138 654 q 386 756 285 756 q 625 658 540 756 q 710 385 710 560 m 533 436 q 390 629 533 629 q 288 581 325 629 q 244 428 251 533 l 533 428 l 533 436 m 206 815 l 138 892 l 331 1060 l 442 1060 l 635 892 l 567 815 l 386 929 l 206 815 m 76 1289 l 251 1068 l 182 1006 l -24 1192 l 76 1289 z "},"ể":{"ha":763,"x_min":60,"x_max":768,"o":"m 710 385 q 706 313 710 371 l 244 313 q 300 160 253 206 q 425 114 347 114 q 517 130 474 114 q 608 179 560 146 l 682 78 q 410 -21 560 -21 q 151 82 242 -21 q 60 363 60 185 q 99 565 60 475 q 211 705 138 654 q 386 756 285 756 q 625 658 540 756 q 710 385 710 560 m 533 436 q 390 629 533 629 q 288 581 325 629 q 244 428 251 533 l 533 428 l 533 436 m 206 815 l 138 892 l 331 1060 l 442 1060 l 635 892 l 567 815 l 386 929 l 206 815 m 539 1158 q 615 1174 592 1163 q 638 1214 638 1185 q 622 1249 638 1238 q 579 1260 607 1260 q 497 1242 540 1260 l 464 1324 q 606 1358 524 1358 q 726 1322 683 1358 q 768 1225 768 1286 q 738 1141 768 1172 q 653 1100 708 1110 l 653 1024 l 539 1024 l 539 1158 z "},"ễ":{"ha":763,"x_min":60,"x_max":710,"o":"m 710 385 q 706 313 710 371 l 244 313 q 300 160 253 206 q 425 114 347 114 q 517 130 474 114 q 608 179 560 146 l 682 78 q 410 -21 560 -21 q 151 82 242 -21 q 60 363 60 185 q 99 565 60 475 q 211 705 138 654 q 386 756 285 756 q 625 658 540 756 q 710 385 710 560 m 533 436 q 390 629 533 629 q 288 581 325 629 q 244 428 251 533 l 533 428 l 533 436 m 206 806 l 138 882 l 331 1050 l 442 1050 l 635 882 l 567 806 l 386 919 l 206 806 m 468 1088 q 419 1097 440 1088 q 368 1125 397 1107 q 335 1145 347 1139 q 308 1151 322 1151 q 269 1137 285 1151 q 235 1090 253 1122 l 139 1136 q 208 1237 167 1199 q 306 1275 250 1275 q 358 1266 336 1275 q 408 1239 381 1257 q 467 1214 443 1214 q 504 1227 488 1214 q 540 1271 521 1240 l 635 1226 q 564 1125 607 1163 q 468 1088 521 1088 z "},"ȅ":{"ha":763,"x_min":60,"x_max":710,"o":"m 710 385 q 706 313 710 371 l 244 313 q 300 160 253 206 q 425 114 347 114 q 517 130 474 114 q 608 179 560 146 l 682 78 q 410 -21 560 -21 q 151 82 242 -21 q 60 363 60 185 q 99 565 60 475 q 211 705 138 654 q 386 756 285 756 q 625 658 540 756 q 710 385 710 560 m 533 436 q 390 629 533 629 q 288 581 325 629 q 244 428 251 533 l 533 428 l 533 436 m 226 1176 l 354 918 l 256 874 l 97 1110 l 226 1176 m 456 1176 l 571 922 l 471 881 l 325 1113 l 456 1176 z "},"ë":{"ha":763,"x_min":60,"x_max":710,"o":"m 710 385 q 706 313 710 371 l 244 313 q 300 160 253 206 q 425 114 347 114 q 517 130 474 114 q 608 179 560 146 l 682 78 q 410 -21 560 -21 q 151 82 242 -21 q 60 363 60 185 q 99 565 60 475 q 211 705 138 654 q 386 756 285 756 q 625 658 540 756 q 710 385 710 560 m 533 436 q 390 629 533 629 q 288 581 325 629 q 244 428 251 533 l 533 428 l 533 436 m 236 1090 q 304 1063 276 1090 q 332 994 332 1035 q 304 926 332 954 q 236 899 276 899 q 166 926 194 899 q 138 994 138 954 q 166 1063 138 1035 q 236 1090 194 1090 m 543 1090 q 613 1063 585 1090 q 640 994 640 1035 q 613 926 640 954 q 543 899 585 899 q 474 926 503 899 q 446 994 446 954 q 474 1063 446 1035 q 543 1090 503 1090 z "},"ė":{"ha":763,"x_min":60,"x_max":710,"o":"m 710 385 q 706 313 710 371 l 244 313 q 300 160 253 206 q 425 114 347 114 q 517 130 474 114 q 608 179 560 146 l 682 78 q 410 -21 560 -21 q 151 82 242 -21 q 60 363 60 185 q 99 565 60 475 q 211 705 138 654 q 386 756 285 756 q 625 658 540 756 q 710 385 710 560 m 533 436 q 390 629 533 629 q 288 581 325 629 q 244 428 251 533 l 533 428 l 533 436 m 389 1107 q 470 1076 439 1107 q 501 999 501 1044 q 470 922 501 953 q 389 892 439 892 q 309 922 340 892 q 278 999 278 953 q 309 1076 278 1044 q 389 1107 340 1107 z "},"ẹ":{"ha":763,"x_min":60,"x_max":710,"o":"m 710 385 q 706 313 710 371 l 244 313 q 300 160 253 206 q 425 114 347 114 q 517 130 474 114 q 608 179 560 146 l 682 78 q 410 -21 560 -21 q 151 82 242 -21 q 60 363 60 185 q 99 565 60 475 q 211 705 138 654 q 386 756 285 756 q 625 658 540 756 q 710 385 710 560 m 533 436 q 390 629 533 629 q 288 581 325 629 q 244 428 251 533 l 533 428 l 533 436 m 407 -307 q 326 -276 357 -307 q 294 -199 294 -244 q 326 -122 294 -153 q 407 -92 357 -92 q 487 -122 456 -92 q 518 -199 518 -153 q 487 -276 518 -244 q 407 -307 456 -307 z "},"è":{"ha":763,"x_min":60,"x_max":710,"o":"m 710 385 q 706 313 710 371 l 244 313 q 300 160 253 206 q 425 114 347 114 q 517 130 474 114 q 608 179 560 146 l 682 78 q 410 -21 560 -21 q 151 82 242 -21 q 60 363 60 185 q 99 565 60 475 q 211 705 138 654 q 386 756 285 756 q 625 658 540 756 q 710 385 710 560 m 533 436 q 390 629 533 629 q 288 581 325 629 q 244 428 251 533 l 533 428 l 533 436 m 294 1139 l 586 965 l 535 875 l 222 1000 l 294 1139 z "},"ẻ":{"ha":763,"x_min":60,"x_max":710,"o":"m 710 385 q 706 313 710 371 l 244 313 q 300 160 253 206 q 425 114 347 114 q 517 130 474 114 q 608 179 560 146 l 682 78 q 410 -21 560 -21 q 151 82 242 -21 q 60 363 60 185 q 99 565 60 475 q 211 705 138 654 q 386 756 285 756 q 625 658 540 756 q 710 385 710 560 m 533 436 q 390 629 533 629 q 288 581 325 629 q 244 428 251 533 l 533 428 l 533 436 m 333 979 q 409 994 386 983 q 432 1035 432 1006 q 417 1069 432 1058 q 374 1081 401 1081 q 292 1063 335 1081 l 258 1144 q 400 1179 318 1179 q 520 1143 478 1179 q 563 1046 563 1107 q 533 962 563 993 q 447 921 503 931 l 447 844 l 333 844 l 333 979 z "},"ȇ":{"ha":763,"x_min":60,"x_max":710,"o":"m 710 385 q 706 313 710 371 l 244 313 q 300 160 253 206 q 425 114 347 114 q 517 130 474 114 q 608 179 560 146 l 682 78 q 410 -21 560 -21 q 151 82 242 -21 q 60 363 60 185 q 99 565 60 475 q 211 705 138 654 q 386 756 285 756 q 625 658 540 756 q 710 385 710 560 m 533 436 q 390 629 533 629 q 288 581 325 629 q 244 428 251 533 l 533 428 l 533 436 m 389 1078 q 547 1018 485 1078 q 617 863 608 958 l 511 843 q 467 922 499 894 q 389 950 436 950 q 268 843 296 950 l 164 863 q 233 1018 172 958 q 389 1078 293 1078 z "},"ē":{"ha":763,"x_min":60,"x_max":710,"o":"m 710 385 q 706 313 710 371 l 244 313 q 300 160 253 206 q 425 114 347 114 q 517 130 474 114 q 608 179 560 146 l 682 78 q 410 -21 560 -21 q 151 82 242 -21 q 60 363 60 185 q 99 565 60 475 q 211 705 138 654 q 386 756 285 756 q 625 658 540 756 q 710 385 710 560 m 533 436 q 390 629 533 629 q 288 581 325 629 q 244 428 251 533 l 533 428 l 533 436 m 592 918 l 188 918 l 188 1044 l 592 1044 l 592 918 z "},"ę":{"ha":763,"x_min":60,"x_max":710,"o":"m 710 385 q 706 313 710 371 l 244 313 q 300 160 253 206 q 425 114 347 114 q 517 130 474 114 q 608 179 560 146 l 682 78 q 536 -1 613 22 q 429 -71 458 -37 q 400 -139 400 -104 q 475 -203 400 -203 q 560 -193 515 -203 l 546 -311 q 453 -321 494 -321 q 315 -279 368 -321 q 263 -169 263 -237 q 365 -19 263 -75 q 139 96 218 -6 q 60 363 60 197 q 99 565 60 475 q 211 705 138 654 q 386 756 285 756 q 625 658 540 756 q 710 385 710 560 m 533 436 q 390 629 533 629 q 288 581 325 629 q 244 428 251 533 l 533 428 l 533 436 z "},"ɛ":{"ha":660,"x_min":60,"x_max":649,"o":"m 365 756 q 624 679 518 756 l 547 582 q 469 617 506 606 q 388 628 433 628 q 301 603 332 628 q 269 535 269 579 q 302 467 269 493 q 392 442 335 442 l 481 442 l 463 319 l 383 319 q 278 294 310 319 q 247 217 247 269 q 283 140 247 168 q 385 111 318 111 q 478 126 435 111 q 571 171 522 140 l 649 67 q 521 2 593 25 q 365 -21 449 -21 q 144 38 228 -21 q 60 204 60 97 q 251 392 60 367 q 89 554 89 424 q 165 701 89 647 q 365 756 240 756 z "},"ʚ":{"ha":793,"x_min":60,"x_max":733,"o":"m 379 -21 q 148 42 236 -21 q 60 214 60 104 q 108 335 60 293 q 253 393 157 378 q 97 551 97 432 q 177 700 97 644 q 382 756 257 756 q 571 707 492 756 q 692 571 650 658 q 733 368 733 483 q 643 81 733 183 q 379 -21 553 -21 m 382 111 q 513 172 475 111 q 551 368 551 232 q 510 565 551 501 q 385 628 468 628 q 305 604 335 628 q 275 539 275 581 q 311 466 275 490 q 407 442 347 442 l 431 442 l 442 319 l 392 319 q 281 297 321 319 q 242 222 242 275 q 279 138 242 165 q 382 111 317 111 z "},"ɜ":{"ha":693,"x_min":11,"x_max":632,"o":"m 317 756 q 515 701 435 756 q 594 554 594 647 q 556 452 594 492 q 439 393 518 413 q 584 335 536 378 q 632 214 632 293 q 541 40 632 100 q 304 -21 450 -21 q 11 69 133 -21 l 99 172 q 193 126 147 140 q 297 111 239 111 q 446 221 446 111 q 289 319 446 319 l 182 319 l 193 442 l 274 442 q 376 466 339 442 q 414 540 414 490 q 381 607 414 586 q 294 628 349 628 q 201 614 242 628 q 119 572 161 600 l 38 671 q 164 735 96 714 q 317 756 232 756 z "},"ɞ":{"ha":793,"x_min":60,"x_max":733,"o":"m 414 -21 q 150 81 240 -21 q 60 368 60 183 q 101 571 60 483 q 222 707 143 658 q 411 756 301 756 q 616 700 536 756 q 696 551 696 644 q 540 393 696 432 q 685 335 636 378 q 733 214 733 293 q 645 42 733 104 q 414 -21 557 -21 m 411 111 q 514 138 476 111 q 551 222 551 165 q 512 297 551 275 q 401 319 472 319 l 351 319 l 363 442 l 386 442 q 482 466 446 442 q 518 539 518 490 q 488 604 518 581 q 408 628 458 628 q 283 565 325 628 q 242 368 242 501 q 280 172 242 232 q 411 111 318 111 z "},"ɝ":{"ha":1021,"x_min":11,"x_max":1046,"o":"m 1046 482 q 875 431 972 431 q 727 477 781 431 q 668 606 674 524 l 667 614 l 593 574 q 594 554 594 567 q 556 452 594 492 q 439 393 518 413 q 584 335 536 378 q 632 214 632 293 q 541 40 632 100 q 304 -21 450 -21 q 11 69 133 -21 l 99 172 q 193 126 147 140 q 297 111 239 111 q 446 221 446 111 q 289 319 446 319 l 182 319 l 193 442 l 274 442 q 376 466 339 442 q 414 540 414 490 q 381 607 414 586 q 294 628 349 628 q 201 614 242 628 q 119 572 161 600 l 38 671 q 164 735 96 714 q 317 756 232 756 q 448 735 388 756 q 546 675 508 714 l 661 735 l 815 735 l 815 646 q 894 560 815 560 q 942 566 922 560 q 989 588 963 572 l 1046 482 z "},"ɘ":{"ha":763,"x_min":53,"x_max":703,"o":"m 376 756 q 621 650 539 756 q 703 363 703 544 q 611 83 703 186 q 353 -21 519 -21 q 81 78 203 -21 l 154 179 q 249 129 204 144 q 347 114 293 114 q 467 159 424 114 q 519 313 511 204 l 57 313 q 53 385 53 371 q 139 657 53 558 q 376 756 225 756 m 229 428 l 519 428 q 481 585 514 540 q 375 629 447 629 q 265 579 301 629 q 229 436 229 529 l 229 428 z "},"ʃ":{"ha":392,"x_min":-139,"x_max":519,"o":"m 344 1049 q 519 996 442 1049 l 463 885 q 414 907 436 900 q 364 914 392 914 q 285 819 285 914 l 285 -60 q 219 -240 285 -178 q 40 -303 153 -303 q -139 -246 -67 -303 l -76 -140 q -27 -161 -49 -154 q 24 -168 -6 -168 q 107 -75 107 -168 l 107 811 q 169 985 107 922 q 344 1049 232 1049 z "},"ʆ":{"ha":449,"x_min":-118,"x_max":576,"o":"m 421 914 q 342 819 342 914 l 342 735 l 343 13 l 343 -8 q 489 -64 421 -31 l 453 -144 q 332 -101 394 -119 q 75 -303 286 -303 q -67 -260 -15 -303 q -118 -146 -118 -218 q -61 -19 -118 -64 q 94 26 -4 26 q 164 24 125 26 l 164 811 q 226 985 164 922 q 401 1049 289 1049 q 576 996 499 1049 l 519 885 q 471 907 493 900 q 421 914 449 914 m 67 -200 q 139 -170 117 -200 q 164 -71 161 -140 q 94 -67 106 -67 q 23 -85 47 -67 q -1 -139 -1 -104 q 67 -200 -1 -200 z "},"ƪ":{"ha":500,"x_min":-69,"x_max":639,"o":"m 639 -246 q 460 -303 567 -303 q 281 -240 347 -303 q 215 -60 215 -178 l 215 632 q 133 617 172 617 q -12 676 44 617 q -69 831 -69 735 q -7 988 -69 928 q 157 1049 56 1049 q 330 988 267 1049 q 393 815 393 926 l 393 -75 q 476 -168 393 -168 q 527 -161 506 -168 q 576 -140 549 -154 l 639 -246 m 165 746 q 215 753 185 746 l 215 838 q 154 919 215 919 q 93 835 93 919 q 110 767 93 789 q 165 746 128 746 z "},"ʅ":{"ha":644,"x_min":-7,"x_max":651,"o":"m 651 36 q 472 -21 579 -21 q 294 42 360 -21 q 228 222 228 104 l 228 526 q 149 621 228 621 q 99 614 121 621 q 50 592 76 607 l -7 703 q 168 756 71 756 q 343 692 281 756 q 406 518 406 629 l 406 207 q 489 114 406 114 q 540 121 518 114 q 589 142 561 128 l 651 36 z "},"ɇ":{"ha":763,"x_min":60,"x_max":710,"o":"m 397 315 l 347 125 q 425 114 383 114 q 517 130 474 114 q 608 179 560 146 l 682 78 q 410 -21 560 -21 q 310 -10 358 -21 l 286 -100 l 218 -83 l 244 13 q 107 146 154 56 q 60 363 60 236 q 99 565 60 475 q 211 705 138 654 q 386 756 285 756 q 444 751 415 756 l 465 831 l 532 814 l 511 735 q 658 610 607 700 q 710 385 710 519 q 706 315 710 374 l 397 315 m 390 632 q 281 583 319 632 q 235 425 243 535 l 356 425 l 411 631 q 390 632 404 632 m 546 433 q 478 610 543 567 l 428 425 l 546 425 l 546 433 m 326 315 l 235 315 q 286 167 243 217 l 326 315 z "},"ẽ":{"ha":763,"x_min":60,"x_max":710,"o":"m 710 385 q 706 313 710 371 l 244 313 q 300 160 253 206 q 425 114 347 114 q 517 130 474 114 q 608 179 560 146 l 682 78 q 410 -21 560 -21 q 151 82 242 -21 q 60 363 60 185 q 99 565 60 475 q 211 705 138 654 q 386 756 285 756 q 625 658 540 756 q 710 385 710 560 m 533 436 q 390 629 533 629 q 288 581 325 629 q 244 428 251 533 l 533 428 l 533 436 m 471 894 q 420 905 442 894 q 371 933 399 915 q 338 953 350 947 q 311 960 325 960 q 272 945 288 960 q 238 897 256 931 l 142 944 q 211 1049 169 1010 q 308 1089 253 1089 q 360 1079 339 1089 q 411 1051 382 1069 q 442 1031 429 1038 q 469 1025 456 1025 q 507 1039 490 1025 q 543 1085 524 1053 l 638 1038 q 567 933 610 971 q 471 894 524 894 z "},"ǝ":{"ha":771,"x_min":53,"x_max":711,"o":"m 374 756 q 626 652 542 756 q 711 368 711 549 q 672 165 711 253 q 556 28 632 78 q 378 -21 481 -21 q 207 24 281 -21 q 93 151 133 68 q 53 350 53 235 q 57 424 53 390 l 533 424 q 485 576 526 528 q 368 624 444 624 q 272 608 317 624 q 181 558 226 593 l 104 664 q 374 756 218 756 m 378 110 q 489 156 450 110 q 533 308 528 203 l 224 308 l 224 297 q 265 159 224 208 q 378 110 306 110 z "},"ə":{"ha":771,"x_min":53,"x_max":711,"o":"m 374 756 q 626 652 542 756 q 711 368 711 549 q 672 165 711 253 q 556 28 632 78 q 378 -21 481 -21 q 207 24 281 -21 q 93 151 133 68 q 53 350 53 235 q 57 424 53 390 l 533 424 q 485 576 526 528 q 368 624 444 624 q 272 608 317 624 q 181 558 226 593 l 104 664 q 374 756 218 756 m 378 110 q 489 156 450 110 q 533 308 528 203 l 224 308 l 224 297 q 265 159 224 208 q 378 110 306 110 z "},"ɚ":{"ha":1114,"x_min":53,"x_max":1138,"o":"m 1138 482 q 967 431 1064 431 q 819 477 872 431 q 760 606 765 524 l 758 614 l 676 568 q 711 368 711 486 q 672 165 711 253 q 556 28 632 78 q 378 -21 481 -21 q 207 24 281 -21 q 93 151 133 68 q 53 350 53 235 q 57 424 53 390 l 533 424 q 485 576 526 528 q 368 624 444 624 q 272 608 317 624 q 181 558 226 593 l 104 664 q 374 756 218 756 q 617 664 529 756 l 753 735 l 907 735 l 907 646 q 986 560 907 560 q 1034 566 1014 560 q 1081 588 1054 572 l 1138 482 m 378 110 q 489 156 450 110 q 533 308 528 203 l 224 308 l 224 297 q 265 159 224 208 q 378 110 306 110 z "},"ʒ":{"ha":690,"x_min":-10,"x_max":657,"o":"m 344 292 q 576 216 496 286 q 657 11 657 146 q 614 -151 657 -81 q 491 -262 571 -222 q 303 -303 411 -303 q 124 -269 200 -303 q -10 -168 47 -235 l 89 -75 q 185 -143 138 -122 q 294 -164 233 -164 q 424 -117 378 -164 q 471 19 471 -71 q 425 141 471 104 q 278 178 379 178 l 158 178 l 158 290 l 417 597 l 40 597 l 40 735 l 618 735 l 618 608 l 344 292 z "},"ǯ":{"ha":690,"x_min":-10,"x_max":657,"o":"m 344 292 q 576 216 496 286 q 657 11 657 146 q 614 -151 657 -81 q 491 -262 571 -222 q 303 -303 411 -303 q 124 -269 200 -303 q -10 -168 47 -235 l 89 -75 q 185 -143 138 -122 q 294 -164 233 -164 q 424 -117 378 -164 q 471 19 471 -71 q 425 141 471 104 q 278 178 379 178 l 158 178 l 158 290 l 417 597 l 40 597 l 40 735 l 618 735 l 618 608 l 344 292 m 510 1111 l 578 1033 l 385 860 l 274 860 l 81 1033 l 149 1111 l 329 989 l 510 1111 z "},"ʓ":{"ha":690,"x_min":-40,"x_max":657,"o":"m 657 13 q 597 -173 657 -96 q 422 -282 538 -250 l 457 -357 l 357 -396 l 314 -301 q 260 -303 296 -303 q 37 -251 114 -303 q -40 -103 -40 -199 q 8 17 -40 -28 q 131 61 56 61 q 261 14 211 61 q 360 -151 311 -33 q 444 -92 417 -133 q 471 19 471 -50 q 425 146 471 108 q 278 183 379 183 l 158 183 l 158 294 l 418 597 l 40 597 l 40 735 l 618 735 l 618 608 l 343 296 q 576 220 496 292 q 657 13 657 149 m 92 -96 q 128 -149 92 -133 q 254 -164 164 -164 q 200 -70 222 -94 q 144 -46 178 -46 q 106 -59 119 -46 q 92 -96 92 -72 z "},"ƹ":{"ha":690,"x_min":32,"x_max":699,"o":"m 699 -168 q 564 -269 640 -235 q 385 -303 488 -303 q 199 -264 279 -303 q 76 -156 119 -225 q 32 -1 32 -87 q 115 210 32 135 q 346 292 197 286 l 72 608 l 72 735 l 650 735 l 650 597 l 274 597 l 532 288 l 532 178 l 413 178 q 265 136 313 178 q 218 6 218 94 q 265 -119 218 -75 q 393 -164 311 -164 q 504 -144 456 -164 q 604 -78 553 -124 l 699 -168 z "},"ƺ":{"ha":682,"x_min":32,"x_max":650,"o":"m 243 -304 q 39 -100 39 -231 q 96 15 39 -26 q 274 75 153 56 q 420 115 376 90 q 464 192 464 140 q 350 272 464 272 l 154 272 l 154 379 l 396 603 l 32 603 l 32 735 l 606 735 l 606 614 l 347 383 l 401 383 q 584 332 518 383 q 650 188 650 281 q 372 -47 650 -7 q 241 -78 274 -62 q 208 -119 208 -93 q 229 -160 208 -140 q 293 -200 250 -179 l 243 -304 z "},"f":{"ha":482,"x_min":8,"x_max":576,"o":"m 404 914 q 328 890 351 914 q 306 813 306 865 l 306 735 l 482 735 l 463 607 l 306 607 l 306 0 l 128 0 l 128 607 l 8 607 l 8 735 l 128 735 l 128 815 q 195 984 128 919 q 386 1049 263 1049 q 576 1006 483 1049 l 525 886 q 404 914 465 914 z "},"ḟ":{"ha":482,"x_min":8,"x_max":576,"o":"m 404 914 q 328 890 351 914 q 306 813 306 865 l 306 735 l 482 735 l 463 607 l 306 607 l 306 0 l 128 0 l 128 607 l 8 607 l 8 735 l 128 735 l 128 815 q 195 984 128 919 q 386 1049 263 1049 q 576 1006 483 1049 l 525 886 q 404 914 465 914 m 364 1351 q 445 1320 414 1351 q 476 1243 476 1289 q 445 1167 476 1197 q 364 1136 414 1136 q 284 1167 315 1136 q 253 1243 253 1197 q 284 1320 253 1289 q 364 1351 315 1351 z "},"ʩ":{"ha":1219,"x_min":8,"x_max":1119,"o":"m 911 756 q 1065 697 1010 756 q 1119 532 1119 638 l 1119 -60 q 1053 -240 1119 -178 q 875 -303 988 -303 q 696 -246 768 -303 l 758 -140 q 808 -161 786 -154 q 858 -168 829 -168 q 942 -75 942 -168 l 942 504 q 919 596 942 569 q 851 622 896 622 q 769 594 806 622 q 697 511 732 565 l 697 0 l 519 0 l 519 607 l 306 607 l 306 0 l 128 0 l 128 607 l 8 607 l 8 735 l 128 735 l 128 815 q 195 984 128 919 q 386 1049 263 1049 q 576 1006 483 1049 l 525 886 q 404 914 465 914 q 328 890 351 914 q 306 813 306 865 l 306 735 l 674 735 l 688 639 q 911 756 778 756 z "},"g":{"ha":746,"x_min":21,"x_max":746,"o":"m 746 696 q 533 671 675 671 q 634 595 601 640 q 667 482 667 550 q 631 354 667 410 q 528 267 596 299 q 371 235 461 235 q 283 246 321 235 q 253 192 253 225 q 342 140 253 140 l 454 140 q 595 114 535 140 q 689 40 656 88 q 722 -68 722 -8 q 628 -241 722 -179 q 356 -303 533 -303 q 155 -276 228 -303 q 51 -200 82 -250 q 21 -72 21 -150 l 181 -72 q 195 -133 181 -111 q 248 -167 210 -156 q 358 -178 286 -178 q 501 -153 460 -178 q 543 -81 543 -128 q 511 -16 543 -39 q 418 7 479 7 l 307 7 q 150 47 203 7 q 97 149 97 88 q 120 224 97 188 q 183 285 143 260 q 85 370 117 319 q 54 492 54 421 q 93 631 54 571 q 201 723 132 690 q 358 756 269 756 q 547 773 475 753 q 701 838 618 793 l 746 696 m 361 635 q 267 597 301 635 q 233 494 233 558 q 268 389 233 428 q 364 350 303 350 q 461 388 428 350 q 494 496 494 426 q 361 635 494 635 z "}}}
